<svg width="330" height="236" viewBox="0 0 330 236" fill="none" xmlns="http://www.w3.org/2000/svg">
<path d="M36.38 9.45544C32.2544 8.87777 28.6396 12.2399 26.7742 16.3096C23.678 14.1482 16.8819 12.175 14.2424 15.2451C18.3371 13.2979 23.2987 14.8167 26.542 17.3026C26.7664 17.4519 27.3624 17.5817 27.5095 17.1858C29.1969 12.7008 32.7807 9.94224 36.38 9.45544Z" fill="#455A64"/>
<path d="M15.7208 23.3065C12.5704 22.6574 9.62135 25.9028 8.80086 28.499C6.56388 26.6687 2.97232 24.6695 0 26.3311C3.65348 25.5847 6.19234 27.1684 8.51446 29.2584C8.67701 29.3882 9.18014 29.531 9.28851 29.2195C10.1632 26.1883 12.942 23.4947 15.7208 23.3065Z" fill="#455A64"/>
<path d="M223.482 4.37325C223.482 1.98469 226.578 0.323088 230.146 0.0439898C234.31 -0.287033 237.267 1.27072 237.368 4.02276C240.092 3.08811 242.972 3.69174 242.786 6.20362C243.491 5.51561 246.146 5.55455 247.098 5.7298C247.616 5.85167 248.097 6.06619 248.507 6.35861C248.917 6.65103 249.247 7.01443 249.474 7.42386C249.701 7.82821 249.787 8.27835 249.722 8.72199C251.308 8.28712 254.923 8.021 255.829 9.24124C257.439 11.4221 251.007 11.487 249.714 10.8315C249.443 12.5255 242.531 12.7786 240.859 11.2404C239.551 12.3438 237.677 12.5839 235.649 12.6878C232.228 12.8565 230.138 11.8829 227.468 10.7406C224.573 12.7981 219.557 12.8371 216.941 10.481C216.275 11.0067 214.441 11.169 212.97 10.8769C212.003 10.6822 211.778 10.3382 211.778 10.3382C211.208 10.541 210.614 10.6912 210.005 10.786C208.109 11.117 204.587 10.786 206.066 9.33211C206.569 8.84531 208.388 8.54025 209.162 8.68305C209.99 7.32001 213.311 6.02837 215.215 7.17722C215.284 5.52859 217.088 4.23695 219.619 3.93189C220.501 3.79559 222.545 3.69823 223.482 4.37325Z" fill="#F5F5F5"/>
<path d="M261.317 22.9884C262.143 22.7486 263.012 22.6279 263.887 22.6315C264.723 22.5925 264.986 22.4562 265.148 22.3134C265.966 21.3651 267.145 20.6791 268.49 20.3688C269.836 20.0584 271.267 20.1422 272.548 20.6064C272.933 19.6717 273.723 18.8926 274.761 18.4237C275.799 17.9547 277.01 17.8303 278.152 18.075C278.114 15.9007 281.473 13.6289 284.445 13.1486C287.418 12.6683 289.778 12.9409 291.365 14.5376C293.169 11.7207 299.996 11.0327 303.641 12.5904C305.739 13.4926 307.512 14.4078 308.363 16.0499C308.915 17.0663 309.162 18.1805 309.083 19.2953C310.546 18.2568 313.425 17.9971 315.33 18.6462C317.381 19.3472 317.505 20.6583 317.574 21.9889C318.808 21.7072 320.11 21.7072 321.344 21.9889C322.636 22.3329 323.372 23.2026 323.178 23.8971C324.208 23.8971 326.646 24.6046 326.344 25.5133C326.004 26.5323 323.202 26.3766 322.149 26.3311C321.165 26.2469 320.189 26.1015 319.231 25.8963C318.733 26.0416 318.209 26.1141 317.683 26.1104C315.895 26.0715 315.159 25.4159 314.881 24.8578C313.975 26.3831 310.848 27.4994 308.642 27.9343C304.493 28.7521 298.664 28.1161 296.18 25.4873C295.873 25.9716 295.446 26.3946 294.926 26.7271C293.809 27.4491 292.462 27.8782 291.056 27.9603C289.36 28.0641 284.801 28.1745 283.578 25.8898C282.634 27.3761 278.563 27.9992 275.497 27.5773C274.307 27.407 273.152 27.0944 272.068 26.6492C271.402 26.3572 270.756 26.0343 270.133 25.6821C269.891 25.5367 269.606 25.4486 269.31 25.4269C269.013 25.4052 268.714 25.4508 268.446 25.5587C266.254 26.1681 263.879 26.1268 261.719 25.4419C260.016 24.7928 259.684 23.5726 261.317 22.9884Z" fill="#F5F5F5"/>
<path d="M9.00977 102.473C9.21876 86.0257 11.6183 62.5684 12.0595 58.3365L50.1579 39.8966C50.87 46.2055 52.9908 66.1643 53.0605 81.1577L9.00977 102.473Z" fill="#455A64"/>
<path d="M130.07 75.8029L51.4661 37.7482L10.6199 57.5382C10.6199 57.5382 7.47729 86.4605 7.47729 104.725L86.0813 142.78L133.244 119.946C133.213 101.681 130.07 75.8029 130.07 75.8029Z" fill="#E0E0E0"/>
<path d="M86.2515 133.751C86.1277 136.919 86.0503 139.976 86.0503 142.78L7.44629 104.725C7.44629 101.921 7.52369 98.8836 7.64754 95.6902L86.2515 133.751Z" fill="#07AD0D"/>
<path opacity="0.2" d="M86.2515 133.751C86.1277 136.919 86.0503 139.976 86.0503 142.78L7.44629 104.725C7.44629 101.921 7.52369 98.8836 7.64754 95.6902L86.2515 133.751Z" fill="black"/>
<path d="M89.1929 95.5929L130.07 75.8029C130.07 75.8029 133.213 101.681 133.213 119.939L86.0503 142.773C86.0503 124.515 89.1929 95.5929 89.1929 95.5929Z" fill="#E0E0E0"/>
<path opacity="0.2" d="M89.1929 95.5929L130.07 75.8029C130.07 75.8029 133.213 101.681 133.213 119.939L86.0503 142.773C86.0503 124.515 89.1929 95.5929 89.1929 95.5929Z" fill="black"/>
<path d="M89.1929 95.5929V94.0676L130.07 74.2841V75.8029L89.1929 95.5929Z" fill="#07AD0D"/>
<path d="M10.5889 57.5382V56.0129L51.466 36.2294V37.7482L10.5889 57.5382Z" fill="#07AD0D"/>
<path d="M89.1929 94.0676L10.5889 56.0129L51.466 36.2294L130.07 74.2841L89.1929 94.0676Z" fill="#07AD0D"/>
<path opacity="0.3" d="M89.1929 94.0676L10.5889 56.0129L51.466 36.2294L130.07 74.2841L89.1929 94.0676Z" fill="white"/>
<path d="M89.1928 94.0676V95.5929L10.5889 57.5382V56.0129L89.1928 94.0676Z" fill="#07AD0D"/>
<path opacity="0.15" d="M89.1928 94.0676V95.5929L10.5889 57.5382V56.0129L89.1928 94.0676Z" fill="white"/>
<path d="M84.9279 96.5794C84.3319 102.421 83.0238 116.116 82.4123 128.851L11.4558 94.483C12.0905 81.6055 13.4141 67.7934 13.9792 62.2114L84.9279 96.5794Z" fill="#37474F"/>
<path d="M14.6294 93.0356C15.1557 83.1503 16.0536 72.9145 16.6651 66.5212L81.6847 98.0009C81.1428 103.466 80.1366 113.877 79.5561 124.463L14.6294 93.0356Z" fill="#455A64"/>
<path d="M31.1707 104.037L35.1183 105.945C35.7452 93.1199 37.0611 79.3338 37.6339 73.6804L33.694 71.7657C33.1212 77.419 31.7976 91.1987 31.1707 104.037Z" fill="#37474F"/>
<path d="M55.2434 115.694L59.1833 117.603C59.8103 104.771 61.1339 90.991 61.7067 85.3312L57.7668 83.4489C57.194 89.0763 55.8704 102.856 55.2434 115.694Z" fill="#37474F"/>
<path d="M35.7454 81.8911V83.1892L82.9078 106.023V104.725L35.7454 81.8911Z" fill="#37474F"/>
<path d="M16.3324 65.9825L16.2782 66.4953C15.7596 71.9669 14.792 82.7219 14.2425 93.0226C13.7084 101.396 13.7238 103.408 13.7393 105.55C13.7393 105.926 13.7393 106.302 13.7393 106.724V106.906L31.1166 115.344V114.792C31.1166 114.727 31.2249 108.386 31.6971 101.162C32.2389 91.4843 33.1291 81.4238 33.7793 74.6865V74.4853L16.3324 65.9825ZM14.5134 105.575C14.5134 103.447 14.5134 101.441 15.0165 93.081C15.5506 83.0789 16.4717 72.7003 17.0058 67.1184L24.2663 70.6363C23.7787 76.1079 22.7879 86.6942 22.2306 96.8975C21.6965 105.277 21.712 107.283 21.7274 109.424C21.7274 109.626 21.7274 109.833 21.7274 110.041L14.4901 106.536C14.4901 106.166 14.4901 105.868 14.4901 105.55L14.5134 105.575ZM30.9385 101.123C30.5515 107.153 30.4122 112.553 30.3735 114.253L22.5247 110.443C22.5247 110.099 22.5247 109.794 22.5247 109.45C22.5247 107.321 22.5247 105.316 23.0278 96.9494C23.5619 86.9343 24.483 76.5623 25.0171 70.9868L33.013 74.8812C32.355 81.5471 31.4726 91.5103 30.9385 101.097V101.123Z" fill="#263238"/>
<path d="M101.771 66.3849L67.1868 49.6391L57.7512 54.2085V54.7796L92.3354 71.5255L101.771 66.9561V66.3849Z" fill="#07AD0D"/>
<path d="M57.7512 54.2085L92.3354 70.9544L101.771 66.3849L67.1868 49.6391L57.7512 54.2085Z" fill="#07AD0D"/>
<path opacity="0.3" d="M57.7512 54.2085L92.3354 70.9544L101.771 66.3849L67.1868 49.8468L57.7512 54.2085Z" fill="white"/>
<path opacity="0.15" d="M57.7512 54.2085L92.3354 70.9543V71.5255L57.7512 54.7796V54.2085Z" fill="black"/>
<path d="M92.3354 70.9543L101.771 66.3849V66.9561L92.3354 71.5255V70.9543Z" fill="#07AD0D"/>
<path d="M92.3355 70.9608L57.7513 54.215L48.3235 58.7844V60.3032L82.9077 76.095L92.3355 71.532V70.9608Z" fill="#EBEBEB"/>
<path d="M48.3235 58.7844L82.9077 75.5303L92.3355 70.9608L57.7513 54.215L48.3235 58.7844Z" fill="#07AD0D"/>
<path opacity="0.6" d="M48.3235 58.7844L82.9077 75.5303L92.3355 70.9608L57.7513 54.215L48.3235 58.7844Z" fill="white"/>
<path d="M82.9077 75.5303L92.3356 70.9609V71.532L82.9077 76.095V75.5303Z" fill="#07AD0D"/>
<path opacity="0.3" d="M82.9077 75.5303L92.3356 70.9609V71.532L82.9077 76.095V75.5303Z" fill="white"/>
<path d="M82.9077 75.5173L48.3158 58.7779L38.8879 63.3408V63.912L73.4721 80.6579L82.9077 76.0885V75.5173Z" fill="#07AD0D"/>
<path d="M38.8879 63.3408L73.4721 80.0867L82.9077 75.5173L48.3158 58.7779L38.8879 63.3408Z" fill="#07AD0D"/>
<path opacity="0.3" d="M39.3755 63.3408L73.472 80.0867L82.9076 75.5173L48.3157 58.7779L39.3755 63.3408Z" fill="white"/>
<path opacity="0.15" d="M38.8879 63.3408L73.4721 80.0867V80.6579L38.8879 63.912V63.3408Z" fill="white"/>
<path d="M73.4722 80.0867L82.9077 75.5173V76.0885L73.4722 80.6579V80.0867Z" fill="#07AD0D"/>
<path d="M82.2575 73.609L88.4112 70.6363C88.7827 70.4546 88.9762 70.2599 88.8446 70.195C88.5195 70.1729 88.1956 70.2488 87.9313 70.4091L81.7776 73.3819C81.4061 73.5636 81.2126 73.7583 81.3519 73.8232C81.4912 73.8881 81.8937 73.7908 82.2575 73.609Z" fill="#455A64"/>
<path d="M79.5716 72.3109L85.7252 69.3382C86.0967 69.1564 86.2903 68.9617 86.1587 68.8968C85.8343 68.8711 85.5098 68.9449 85.2453 69.1045L79.0917 72.0837C78.7201 72.259 78.5266 72.4537 78.6582 72.5186C78.9829 72.5474 79.3087 72.4733 79.5716 72.3109Z" fill="#455A64"/>
<path d="M76.8856 71.0063L83.0392 68.0336C83.4108 67.8518 83.6043 67.6571 83.465 67.5922C83.1399 67.5707 82.8162 67.6466 82.5516 67.8064L76.4134 70.7791C76.0419 70.9608 75.8484 71.1556 75.98 71.2205C76.3025 71.241 76.6234 71.1651 76.8856 71.0063Z" fill="#455A64"/>
<path d="M74.1996 69.7082L80.3919 66.7289C80.7634 66.5537 80.957 66.359 80.8176 66.2941C80.493 66.2659 80.1675 66.34 79.9043 66.5018L73.7119 69.4745C73.3481 69.6562 73.1546 69.8509 73.2862 69.9159C73.4178 69.9808 73.828 69.8834 74.1996 69.7082Z" fill="#455A64"/>
<path d="M71.5137 68.4035L77.706 65.4308C78.0775 65.2491 78.2633 65.0544 78.1317 64.9894C78.0001 64.9245 77.5899 65.0219 77.2183 65.2036L71.026 68.1764C70.6545 68.3581 70.4687 68.5528 70.6003 68.6177C70.9254 68.6392 71.249 68.5633 71.5137 68.4035Z" fill="#455A64"/>
<path d="M68.8278 67.1054L75.0201 64.1262C75.3917 63.9509 75.5774 63.7497 75.4458 63.6913C75.1212 63.6632 74.7957 63.7372 74.5325 63.899L68.3401 66.8717C67.9686 67.0535 67.7751 67.2482 67.9144 67.3131C68.0537 67.378 68.4562 67.2806 68.8278 67.1054Z" fill="#455A64"/>
<path d="M66.142 65.8008L72.3343 62.8281C72.6981 62.6463 72.8916 62.4516 72.7601 62.3867C72.4357 62.3616 72.1115 62.4353 71.8467 62.5944L65.6543 65.5736C65.2828 65.7489 65.0893 65.9501 65.2286 66.0085C65.5533 66.0366 65.8788 65.9626 66.142 65.8008Z" fill="#455A64"/>
<path d="M63.4483 64.5026L69.6406 61.5234C70.0122 61.3482 70.2057 61.147 70.0741 61.0886C69.7494 61.0598 69.4236 61.1339 69.1607 61.2963L62.9684 64.269C62.5968 64.4507 62.4033 64.6454 62.5349 64.7104C62.8593 64.736 63.1838 64.6622 63.4483 64.5026Z" fill="#455A64"/>
<path d="M60.7622 63.198L66.9546 60.2253C67.3261 60.0436 67.5196 59.8489 67.3803 59.7839C67.241 59.719 66.8385 59.7839 66.4747 59.9916L60.2823 62.9709C59.9108 63.1461 59.7173 63.3473 59.8489 63.4057C60.1736 63.4345 60.4994 63.3604 60.7622 63.198Z" fill="#455A64"/>
<path d="M58.0764 61.8999L64.2687 58.9207C64.6403 58.7454 64.8338 58.5442 64.6945 58.4858C64.3698 58.4577 64.0443 58.5317 63.7811 58.6935L57.6275 61.6662C57.2637 61.848 57.0701 62.0427 57.2017 62.1076C57.3333 62.1725 57.7049 62.0751 58.0764 61.8999Z" fill="#455A64"/>
<path d="M55.3904 60.5953L61.5827 57.6226C61.9542 57.4408 62.14 57.2461 62.0084 57.1812C61.8768 57.1163 61.4666 57.1812 61.095 57.3889L54.9027 60.3681C54.5312 60.5434 54.3454 60.7446 54.477 60.803C54.8016 60.8311 55.1272 60.7571 55.3904 60.5953Z" fill="#455A64"/>
<path d="M52.7046 59.2907L58.8583 56.3179C59.2298 56.1362 59.4156 55.9415 59.284 55.8766C58.9589 55.8551 58.6352 55.931 58.3706 56.0908L52.1783 59.0635C51.8067 59.2452 51.6132 59.4399 51.7526 59.5049C51.8919 59.5698 52.3331 59.4724 52.7046 59.2907Z" fill="#455A64"/>
<path d="M139.498 122.996C139.428 108.003 137.307 88.0442 136.595 81.7353L128.762 77.9383L90.6635 96.3782C90.2223 100.623 87.8228 124.08 87.6138 140.515L95.4471 144.305L139.498 122.996Z" fill="#37474F"/>
<path d="M90.6636 96.3782L98.4969 100.175L136.595 81.7353L128.762 77.9383L90.6636 96.3782Z" fill="#455A64"/>
<path d="M95.447 144.318C95.6638 127.877 98.0555 104.42 98.5045 100.182L136.595 81.7418C137.307 88.0507 139.428 108.009 139.498 123.003L95.447 144.318Z" fill="#263238"/>
<path d="M95.447 144.318C95.6638 127.877 98.0555 104.42 98.5045 100.182L136.595 81.7353C137.307 88.0507 139.428 108.009 139.498 123.003L95.447 144.318Z" fill="#455A64"/>
<path d="M216.515 117.655L137.903 79.5999L97.0339 99.3899C97.0339 99.3899 93.8835 128.312 93.8835 146.577L172.488 184.632L219.65 161.798C219.65 143.533 216.515 117.655 216.515 117.655Z" fill="#E0E0E0"/>
<path d="M172.689 175.616C172.565 178.784 172.488 181.841 172.488 184.645L93.8835 146.577C93.8835 143.773 93.9609 140.735 94.0848 137.542L172.689 175.616Z" fill="#07AD0D"/>
<path opacity="0.2" d="M172.689 175.616C172.565 178.784 172.488 181.841 172.488 184.645L93.8835 146.577C93.8835 143.773 93.9609 140.735 94.0848 137.542L172.689 175.616Z" fill="black"/>
<path d="M175.63 137.445L216.515 117.655C216.515 117.655 219.658 143.533 219.658 161.791L172.495 184.625C172.488 166.367 175.63 137.445 175.63 137.445Z" fill="#E0E0E0"/>
<path opacity="0.2" d="M175.63 137.445L216.515 117.655C216.515 117.655 219.658 143.533 219.658 161.791L172.495 184.625C172.488 166.367 175.63 137.445 175.63 137.445Z" fill="black"/>
<path d="M175.638 137.445V135.919L216.507 116.129V117.655L175.638 137.445Z" fill="#07AD0D"/>
<path d="M97.0261 99.3899V97.8646L137.903 78.0746V79.5999L97.0261 99.3899Z" fill="#07AD0D"/>
<path d="M175.638 135.919L97.0261 97.8646L137.903 78.0746L216.507 116.129L175.638 135.919Z" fill="#07AD0D"/>
<path opacity="0.3" d="M175.638 135.919L97.0261 97.8646L137.903 78.0746L216.507 116.129L175.638 135.919Z" fill="white"/>
<path d="M175.638 135.919V137.445L97.0261 99.3899V97.8646L175.638 135.919Z" fill="#07AD0D"/>
<path opacity="0.15" d="M175.638 135.919V137.445L97.0261 99.3899V97.8646L175.638 135.919Z" fill="white"/>
<path d="M171.381 138.431C170.785 144.273 169.476 157.968 168.865 170.703L97.8931 136.348C98.5278 123.47 99.8514 109.658 100.416 104.076L171.381 138.431Z" fill="#37474F"/>
<path d="M101.067 134.887C101.593 125.002 102.499 114.766 103.102 108.373L168.122 139.853C167.58 145.318 166.574 155.729 165.993 166.315L101.067 134.887Z" fill="#455A64"/>
<path d="M117.608 145.889L121.556 147.797C122.183 134.965 123.498 121.185 124.079 115.526L120.131 113.617C119.558 119.271 118.212 133.05 117.608 145.889Z" fill="#37474F"/>
<path d="M141.681 157.546L145.628 159.454C146.255 146.622 147.571 132.843 148.152 127.183L144.204 125.275C143.631 130.921 142.308 144.701 141.681 157.546Z" fill="#37474F"/>
<path d="M122.183 123.743V125.041L169.345 147.869V146.577L122.183 123.743Z" fill="#37474F"/>
<path d="M102.769 107.834L102.723 108.347C102.197 113.819 101.237 124.541 100.68 134.868C100.153 143.247 100.169 145.253 100.184 147.401V148.758L117.561 157.196V156.637C117.561 156.579 117.67 150.238 118.134 143.007C118.676 133.33 119.566 123.269 120.216 116.532V116.324L102.769 107.834ZM100.958 147.395C100.958 145.272 100.958 143.26 101.454 134.9C101.988 124.898 102.909 114.52 103.443 108.938L110.703 112.449C110.177 117.979 109.233 128.565 108.683 138.769C108.157 147.148 108.172 149.154 108.188 151.302V151.919L100.958 148.414V147.395ZM117.383 142.949C116.989 148.978 116.849 154.379 116.811 156.079L108.962 152.25V151.276C108.962 149.147 108.962 147.142 109.457 138.775C109.991 128.76 110.912 118.388 111.446 112.813L119.442 116.707C118.792 123.399 117.917 133.362 117.383 142.949Z" fill="#263238"/>
<path d="M188.208 108.237L153.624 91.4908L144.188 96.0602V96.6314L178.78 113.371L188.208 108.808V108.237Z" fill="#07AD0D"/>
<path d="M144.188 96.0602L178.78 112.806L188.208 108.237L153.624 91.4908L144.188 96.0602Z" fill="#07AD0D"/>
<path opacity="0.3" d="M144.188 96.0602L178.78 112.806L188.208 108.237L153.624 91.6985L144.188 96.0602Z" fill="white"/>
<path opacity="0.15" d="M144.188 96.0602L178.78 112.806V113.371L144.188 96.6314V96.0602Z" fill="black"/>
<path d="M178.781 112.806L188.208 108.237V108.808L178.781 113.371V112.806Z" fill="#07AD0D"/>
<path d="M178.781 112.813L144.189 96.0667L134.761 100.636V102.155L169.345 117.947L178.781 113.384V112.813Z" fill="#EBEBEB"/>
<path d="M134.761 100.636L169.345 117.376L178.781 112.813L144.189 96.0667L134.761 100.636Z" fill="#07AD0D"/>
<path opacity="0.6" d="M134.761 100.636L169.345 117.376L178.781 112.813L144.189 96.0667L134.761 100.636Z" fill="white"/>
<path d="M169.345 117.375L178.781 112.813V113.384L169.345 117.947V117.375Z" fill="#07AD0D"/>
<path opacity="0.3" d="M169.345 117.375L178.781 112.813V113.384L169.345 117.947V117.375Z" fill="white"/>
<path d="M169.345 117.369L134.761 100.623L125.325 105.193V105.764L159.909 122.51L169.345 117.94V117.369Z" fill="#07AD0D"/>
<path d="M125.325 105.193L159.909 121.938L169.345 117.369L134.761 100.623L125.325 105.193Z" fill="#07AD0D"/>
<path opacity="0.3" d="M125.813 105.193L159.909 121.938L169.345 117.369L134.761 100.623L125.813 105.193Z" fill="white"/>
<path opacity="0.15" d="M125.325 105.193L159.909 121.938V122.51L125.325 105.764V105.193Z" fill="white"/>
<path d="M159.909 121.938L169.345 117.369V117.94L159.909 122.51V121.938Z" fill="#07AD0D"/>
<path d="M168.703 115.461L174.895 112.488C175.266 112.306 175.452 112.112 175.321 112.047C175.189 111.982 174.779 112.079 174.407 112.254L168.215 115.234C167.843 115.409 167.658 115.61 167.789 115.675C168.114 115.696 168.438 115.621 168.703 115.461Z" fill="#455A64"/>
<path d="M166.017 114.163L172.17 111.183C172.534 111.008 172.727 110.807 172.596 110.749C172.271 110.72 171.946 110.794 171.682 110.956L165.529 113.955C165.157 114.137 164.964 114.331 165.103 114.396C165.242 114.461 165.645 114.338 166.017 114.163Z" fill="#455A64"/>
<path d="M163.323 112.858L169.477 109.885C169.848 109.704 170.042 109.509 169.91 109.444C169.586 109.419 169.261 109.493 168.997 109.652L162.804 112.631C162.433 112.806 162.239 113.007 162.371 113.066C162.708 113.104 163.05 113.029 163.323 112.858Z" fill="#455A64"/>
<path d="M160.637 111.56L166.791 108.581C167.162 108.405 167.356 108.204 167.224 108.146C166.899 108.116 166.573 108.191 166.311 108.353L160.157 111.359C159.786 111.54 159.592 111.735 159.724 111.8C160.053 111.816 160.378 111.73 160.637 111.56Z" fill="#455A64"/>
<path d="M157.951 110.255L164.105 107.283C164.476 107.101 164.67 106.906 164.53 106.841C164.391 106.776 163.989 106.874 163.617 107.049L157.463 110.061C157.1 110.236 156.906 110.437 157.038 110.495C157.367 110.514 157.693 110.429 157.951 110.255Z" fill="#455A64"/>
<path d="M155.265 108.951L161.419 105.978C161.79 105.796 161.984 105.601 161.844 105.537C161.519 105.515 161.196 105.591 160.931 105.751L154.777 108.723C154.406 108.905 154.22 109.1 154.352 109.165C154.483 109.23 154.894 109.132 155.265 108.951Z" fill="#455A64"/>
<path d="M152.579 107.653L158.733 104.68C159.104 104.498 159.29 104.303 159.158 104.238C159.027 104.174 158.617 104.271 158.245 104.446L152.091 107.425C151.72 107.601 151.534 107.795 151.666 107.86C151.99 107.888 152.316 107.814 152.579 107.653Z" fill="#455A64"/>
<path d="M149.893 106.348L156.047 103.375C156.411 103.193 156.604 102.999 156.473 102.934C156.147 102.912 155.824 102.988 155.559 103.148L149.406 106.121C149.034 106.302 148.841 106.497 148.98 106.562C149.305 106.584 149.629 106.508 149.893 106.348Z" fill="#455A64"/>
<path d="M147.2 105.05L153.392 102.071C153.763 101.895 153.957 101.701 153.825 101.636C153.501 101.611 153.177 101.684 152.912 101.843L146.758 104.823C146.387 104.998 146.193 105.193 146.333 105.257C146.472 105.322 146.851 105.225 147.2 105.05Z" fill="#455A64"/>
<path d="M144.529 103.745L150.722 100.772C151.093 100.591 151.287 100.396 151.155 100.331C150.83 100.308 150.506 100.384 150.242 100.545L144.088 103.518C143.716 103.7 143.523 103.894 143.655 103.959C143.967 103.974 144.275 103.898 144.529 103.745Z" fill="#455A64"/>
<path d="M141.828 102.447L148.02 99.4678C148.392 99.2925 148.585 99.0913 148.446 99.0329C148.121 99.0048 147.796 99.0788 147.532 99.2406L141.387 102.213C141.015 102.395 140.822 102.59 140.953 102.655C141.265 102.672 141.573 102.599 141.828 102.447Z" fill="#455A64"/>
<path d="M139.111 101.142L145.303 98.1696C145.675 97.9879 145.868 97.7932 145.729 97.7283C145.59 97.6634 145.187 97.7607 144.816 97.936L138.623 100.915C138.259 101.09 138.066 101.292 138.198 101.357C138.523 101.378 138.846 101.302 139.111 101.142Z" fill="#455A64"/>
<path d="M225.935 164.848C225.865 149.855 223.752 129.896 223.032 123.581L215.199 119.797L177.108 138.23C176.66 142.475 174.268 165.932 174.051 182.366L181.884 186.163L225.935 164.848Z" fill="#37474F"/>
<path d="M177.109 138.23L184.942 142.027L223.033 123.581L215.199 119.79L177.109 138.23Z" fill="#455A64"/>
<path d="M181.885 186.17C182.101 169.729 184.493 146.272 184.942 142.033L223.033 123.587C223.752 129.902 225.866 149.861 225.935 164.855L181.885 186.17Z" fill="#263238"/>
<path d="M181.892 186.17C182.101 169.729 184.493 146.272 184.942 142.033L223.032 123.587C223.752 129.902 225.865 149.861 225.935 164.855L181.892 186.17Z" fill="#455A64"/>
<path d="M329.703 218.682C329.7 212.292 328.072 205.977 324.927 200.157L314.13 180.16C306.858 166.708 294.745 155.505 279.491 148.122L224.341 121.426L183.471 141.216C183.471 141.216 180.329 170.138 180.329 188.403L240.983 217.805C252.907 223.577 265.649 228.067 278.911 231.17L293.083 234.493C297.715 235.579 302.559 235.879 307.331 235.374C312.103 234.869 316.707 233.57 320.871 231.553C323.561 230.246 325.793 228.368 327.344 226.109C328.894 223.85 329.708 221.288 329.703 218.682Z" fill="#E0E0E0"/>
<path d="M329.045 211.724C328.708 209.934 328.243 208.163 327.652 206.421L321.212 215.547L295.111 217.059C295.111 217.059 298.262 221.362 299.067 222.686C317.141 222.803 326.661 219.701 329.045 211.724Z" fill="#263238"/>
<path d="M298.509 218.954C298.527 219.209 298.611 219.458 298.757 219.683C298.903 219.907 299.106 220.102 299.353 220.252C300.121 220.684 300.984 220.984 301.892 221.133C302.8 221.282 303.734 221.279 304.64 221.122C305.414 221.012 306.288 220.648 306.366 219.993C306.528 218.571 303.339 218.046 302.178 217.87C301.017 217.695 298.703 217.637 298.509 218.954Z" fill="#FAFAFA"/>
<path d="M309.152 221.181C309.508 221.129 309.671 221.038 309.748 220.921C309.8 220.812 309.812 220.692 309.785 220.577C309.758 220.462 309.691 220.356 309.594 220.272C309.371 220.025 309.073 219.834 308.73 219.72C308.388 219.606 308.014 219.572 307.651 219.623C307.539 219.639 307.433 219.674 307.337 219.725C307.242 219.776 307.16 219.842 307.095 219.92C307.03 219.998 306.984 220.086 306.96 220.178C306.936 220.271 306.934 220.367 306.954 220.46C307.078 221.226 308.378 221.297 309.152 221.181Z" fill="#FAFAFA"/>
<path d="M328.976 211.315C328.725 211.451 328.432 211.52 328.134 211.514C327.835 211.509 327.546 211.428 327.304 211.282C325.941 210.438 326.839 208.686 327.211 208.082C327.4 207.779 327.648 207.505 327.946 207.271C328.983 208.517 329.045 210.276 328.976 211.315Z" fill="#FAFAFA"/>
<path d="M327.621 213.444C327.535 213.557 327.4 213.638 327.245 213.671C327.089 213.703 326.925 213.685 326.785 213.619C326.562 213.498 326.401 213.31 326.336 213.093C326.181 212.554 326.197 212.074 326.615 211.827C326.78 211.745 326.972 211.709 327.164 211.723C327.355 211.737 327.537 211.801 327.683 211.905C328.326 212.282 327.977 213.1 327.621 213.444Z" fill="#FAFAFA"/>
<path d="M329.417 221.304C328.751 225.107 320.724 232.987 305.824 232.721C290.924 232.455 278.322 226.483 259.134 217.455L180.53 179.394C180.406 182.555 180.336 185.605 180.336 188.409L240.983 217.805C252.907 223.577 265.649 228.067 278.911 231.17L293.083 234.493C297.716 235.578 302.559 235.877 307.331 235.372C312.103 234.867 316.706 233.568 320.872 231.553C323.101 230.471 325.023 228.995 326.503 227.227C327.983 225.46 328.985 223.443 329.44 221.317L329.417 221.304Z" fill="#07AD0D"/>
<path opacity="0.2" d="M329.417 221.304C328.751 225.107 320.724 232.987 305.824 232.721C290.924 232.455 278.322 226.483 259.134 217.455L180.53 179.394C180.406 182.555 180.336 185.605 180.336 188.409L240.983 217.805C252.907 223.577 265.649 228.067 278.911 231.17L293.083 234.493C297.716 235.578 302.559 235.877 307.331 235.372C312.103 234.867 316.706 233.568 320.872 231.553C323.101 230.471 325.023 228.995 326.503 227.227C327.983 225.46 328.985 223.443 329.44 221.317L329.417 221.304Z" fill="black"/>
<path d="M183.471 141.242V139.716L224.341 119.926V121.452L183.471 141.242Z" fill="#07AD0D"/>
<path d="M281.233 147.486L224.341 119.926L183.471 139.716L240.363 167.276C254.853 174.266 273.105 182.71 298.262 218.117L321.212 215.521L327.66 206.388C308.2 160.519 293.362 153.548 281.233 147.486Z" fill="#07AD0D"/>
<path opacity="0.3" d="M281.233 147.486L224.341 119.926L183.471 139.716L240.363 167.276C254.853 174.266 273.105 182.71 298.262 218.117L321.212 215.521L327.66 206.388C308.2 160.519 293.362 153.548 281.233 147.486Z" fill="white"/>
<path d="M324.246 206.122L319.316 213.126L299.191 214.235C285.08 194.64 273.771 184.469 263.391 177.128C279.747 172.442 290.568 167.042 296.675 161.019C304.663 168.671 313.743 181.613 324.246 206.122Z" fill="#37474F"/>
<path d="M322.559 206.005L318.379 211.944L300.027 212.853C293.775 204.078 286.621 195.777 278.647 188.046C289.244 184.437 298.626 180.127 306.118 174.746C311.606 182.879 317.048 193.238 322.559 206.005Z" fill="#455A64"/>
<path d="M240.363 167.276V168.801C254.853 175.791 275.42 188.799 295.111 217.059L298.262 218.117C273.105 182.71 254.853 174.266 240.363 167.276Z" fill="#07AD0D"/>
<path opacity="0.15" d="M240.363 167.276V168.801C254.853 175.791 275.42 188.799 295.111 217.059L298.262 218.117C273.105 182.71 254.853 174.266 240.363 167.276Z" fill="white"/>
<path d="M240.363 167.276V168.801L183.471 141.242V139.716L240.363 167.276Z" fill="#07AD0D"/>
<path opacity="0.15" d="M240.363 167.276V168.801L183.471 141.242V139.716L240.363 167.276Z" fill="white"/>
<path d="M255.426 212.613L184.454 178.212C185.089 165.335 186.413 151.523 186.978 145.941L241.935 172.553C253.189 178.005 263.414 184.612 271.65 193.05C278.484 200.043 284.723 207.43 290.32 215.157L271.743 220.531L255.426 212.613Z" fill="#37474F"/>
<path d="M268.051 192.245C268.051 192.245 268.918 197.438 272.2 218.117L286.674 213.989C286.674 213.989 276.248 200.443 268.051 192.245Z" fill="#455A64"/>
<path opacity="0.1" d="M268.051 192.245C268.051 192.245 268.918 197.438 272.2 218.117L286.674 213.989C286.674 213.989 276.248 200.443 268.051 192.245Z" fill="white"/>
<path d="M268.051 192.245C265.435 190.051 257.988 184.632 257.988 184.632C257.988 184.632 256.038 203.753 255.798 209.737L272.215 218.117L268.051 192.245Z" fill="#455A64"/>
<path d="M187.79 176.966C188.317 167.081 189.215 156.845 189.818 150.452L254.838 181.938C254.288 187.403 253.29 197.808 252.701 208.4L187.79 176.966Z" fill="#455A64"/>
<path d="M231.586 201.046L235.526 202.955C236.153 190.123 237.476 176.343 238.049 170.683L234.109 168.775C233.544 174.428 232.213 188.208 231.586 201.046Z" fill="#37474F"/>
<path d="M207.606 189.448L211.554 191.356C212.181 178.53 213.504 164.744 214.077 159.091L210.137 157.144C209.549 162.83 208.241 176.609 207.606 189.448Z" fill="#37474F"/>
<path d="M188.727 155.936V157.235L235.889 180.069V178.771L188.727 155.936Z" fill="#37474F"/>
<path d="M237.414 173.02L237.368 173.526C236.841 179.004 235.882 189.753 235.332 200.053C234.798 208.433 234.813 210.438 234.829 212.587C234.829 212.957 234.829 213.34 234.829 213.755V213.911L252.206 222.349V221.791C252.206 221.726 252.315 215.391 252.787 208.16C253.329 198.476 254.219 188.416 254.869 181.678V181.477L237.414 173.02ZM235.603 212.58C235.603 210.451 235.603 208.446 236.106 200.086C236.64 190.077 237.561 179.699 238.088 174.091L245.356 177.609C244.822 183.139 243.877 193.725 243.336 203.928C242.802 212.308 242.817 214.313 242.833 216.462C242.833 216.663 242.833 216.864 242.833 217.111L235.603 213.599C235.603 213.204 235.603 212.879 235.595 212.561L235.603 212.58ZM252.028 208.134C251.633 214.164 251.494 219.564 251.463 221.265L243.607 217.435C243.607 217.085 243.607 216.754 243.607 216.436C243.607 214.313 243.607 212.301 244.11 203.941C244.644 193.926 245.565 183.554 246.091 177.946L254.095 181.841C253.437 188.559 252.554 198.522 252.02 208.115L252.028 208.134Z" fill="#263238"/>
<path d="M269.661 147.654L235.069 130.915L225.641 135.478V136.049L260.225 152.795L269.661 148.226V147.654Z" fill="#07AD0D"/>
<path d="M225.641 135.478L260.225 152.224L269.661 147.654L235.069 130.915L225.641 135.478Z" fill="#07AD0D"/>
<path opacity="0.3" d="M225.641 135.478L260.225 152.224L269.661 147.654L235.069 131.123L225.641 135.478Z" fill="white"/>
<path opacity="0.15" d="M225.641 135.478L260.225 152.224V152.795L225.641 136.049V135.478Z" fill="black"/>
<path d="M260.225 152.224L269.661 147.654V148.226L260.225 152.795V152.224Z" fill="#07AD0D"/>
<path d="M260.225 152.23L225.641 135.484L216.206 140.054V141.579L250.79 157.364L260.225 152.801V152.23Z" fill="#EBEBEB"/>
<path d="M216.206 140.054L250.79 156.8L260.225 152.23L225.641 135.484L216.206 140.054Z" fill="#07AD0D"/>
<path opacity="0.6" d="M216.206 140.054L250.79 156.8L260.225 152.23L225.641 135.484L216.206 140.054Z" fill="white"/>
<path d="M250.79 156.8L260.225 152.23V152.801L250.79 157.364V156.8Z" fill="#07AD0D"/>
<path opacity="0.3" d="M250.79 156.8L260.225 152.23V152.801L250.79 157.364V156.8Z" fill="white"/>
<path d="M250.797 156.793L216.205 140.047L206.778 144.61V145.181L241.362 161.927L250.797 157.358V156.793Z" fill="#07AD0D"/>
<path d="M206.778 144.61L241.362 161.356L250.797 156.793L216.205 140.047L206.778 144.61Z" fill="#07AD0D"/>
<path opacity="0.3" d="M207.258 144.61L241.362 161.356L250.797 156.793L216.205 140.047L207.258 144.61Z" fill="white"/>
<path opacity="0.15" d="M206.778 144.61L241.362 161.356V161.927L206.778 145.181V144.61Z" fill="white"/>
<path d="M241.362 161.356L250.797 156.793V157.358L241.362 161.927V161.356Z" fill="#07AD0D"/>
<path d="M250.147 154.885L256.301 151.906C256.672 151.724 256.866 151.529 256.727 151.464C256.402 151.443 256.078 151.519 255.813 151.679L249.667 154.651C249.296 154.833 249.102 155.028 249.234 155.093C249.558 155.118 249.882 155.044 250.147 154.885Z" fill="#455A64"/>
<path d="M247.477 153.58L253.63 150.608C254.002 150.426 254.195 150.231 254.056 150.166C253.917 150.101 253.514 150.166 253.143 150.374L246.989 153.353C246.625 153.528 246.432 153.723 246.563 153.788C246.888 153.816 247.213 153.742 247.477 153.58Z" fill="#455A64"/>
<path d="M244.775 152.25L250.929 149.277C251.301 149.095 251.486 148.901 251.355 148.836C251.03 148.814 250.706 148.89 250.441 149.05L244.288 152.023C243.916 152.204 243.73 152.399 243.862 152.464C244.187 152.485 244.511 152.41 244.775 152.25Z" fill="#455A64"/>
<path d="M242.058 150.952L248.212 147.972C248.584 147.797 248.769 147.602 248.638 147.538C248.506 147.473 248.096 147.57 247.724 147.745L241.571 150.724C241.199 150.9 241.006 151.094 241.145 151.159C241.284 151.224 241.718 151.153 242.058 150.952Z" fill="#455A64"/>
<path d="M239.403 149.654L245.557 146.681C245.921 146.499 246.114 146.304 245.983 146.239C245.658 146.218 245.334 146.294 245.069 146.454L238.916 149.426C238.544 149.608 238.351 149.803 238.49 149.868C238.815 149.889 239.139 149.813 239.403 149.654Z" fill="#455A64"/>
<path d="M236.71 148.355L242.902 145.376C243.274 145.201 243.467 145 243.336 144.941C243.011 144.912 242.685 144.987 242.422 145.149L236.269 148.122C235.897 148.303 235.704 148.498 235.835 148.563C236.147 148.581 236.456 148.508 236.71 148.355Z" fill="#455A64"/>
<path d="M234.024 147.057L240.178 144.085C240.549 143.903 240.743 143.708 240.603 143.643C240.464 143.578 240.062 143.676 239.698 143.851L233.544 146.843C233.173 147.018 232.979 147.22 233.111 147.284C233.438 147.303 233.762 147.222 234.024 147.057Z" fill="#455A64"/>
<path d="M231.338 145.759L237.53 142.78C237.902 142.605 238.095 142.403 237.956 142.345C237.631 142.317 237.306 142.391 237.043 142.553L230.85 145.525C230.487 145.707 230.293 145.902 230.425 145.967C230.556 146.032 230.966 145.947 231.338 145.759Z" fill="#455A64"/>
<path d="M228.652 144.461L234.806 141.488C235.177 141.307 235.363 141.112 235.231 141.047C235.1 140.982 234.69 141.079 234.318 141.255L228.164 144.234C227.793 144.409 227.607 144.61 227.739 144.669C228.063 144.697 228.389 144.623 228.652 144.461Z" fill="#455A64"/>
<path d="M225.966 143.163L232.158 140.184C232.53 140.008 232.716 139.807 232.584 139.749C232.26 139.721 231.934 139.795 231.671 139.956L225.517 142.929C225.146 143.111 224.952 143.306 225.091 143.371C225.231 143.435 225.595 143.345 225.966 143.163Z" fill="#455A64"/>
<path d="M223.28 141.865L229.434 138.892C229.798 138.71 229.991 138.516 229.86 138.451C229.728 138.386 229.318 138.451 228.946 138.658L222.793 141.638C222.421 141.813 222.227 142.014 222.367 142.072C222.691 142.101 223.017 142.027 223.28 141.865Z" fill="#455A64"/>
<path d="M220.586 140.567L226.74 137.587C227.112 137.412 227.305 137.211 227.174 137.146C226.848 137.124 226.525 137.2 226.26 137.36L220.107 140.333C219.735 140.515 219.542 140.709 219.673 140.774C219.997 140.8 220.322 140.726 220.586 140.567Z" fill="#455A64"/>
</svg>
