<svg width="343" height="296" viewBox="0 0 343 296" fill="none" xmlns="http://www.w3.org/2000/svg">
<path d="M0 295.674L40.9351 295.511L81.8701 295.459L163.74 295.348L245.61 295.459L286.545 295.511L327.488 295.674L286.545 295.83L245.61 295.889L163.74 296L81.8701 295.889L40.9351 295.83L0 295.674Z" fill="#263238"/>
<path d="M298.259 271.157H212.404V278.612H298.259V271.157Z" fill="#23B124"/>
<path d="M298.259 218.242H212.404V225.697H298.259V218.242Z" fill="#23B124"/>
<path d="M212.404 211.315L199.999 217.707V280.203L212.404 285.545V211.315Z" fill="#23B124"/>
<path opacity="0.5" d="M212.404 211.315L199.999 217.707V280.203L212.404 285.545V211.315Z" fill="white"/>
<path d="M207.883 281.847H204.528V291.063H207.883V281.847Z" fill="#23B124"/>
<path d="M212.73 295.537L209.468 291.069H202.407L199.681 295.537H212.73Z" fill="#23B124"/>
<path opacity="0.5" d="M212.73 295.537L209.468 291.069H202.407L199.681 295.537H212.73Z" fill="white"/>
<path d="M306.143 281.847H302.787V291.063H306.143V281.847Z" fill="#23B124"/>
<path d="M310.99 295.537L307.727 291.069H300.667L297.94 295.537H310.99Z" fill="#23B124"/>
<path opacity="0.5" d="M310.99 295.537L307.727 291.069H300.667L297.94 295.537H310.99Z" fill="white"/>
<path d="M298.259 211.315L310.664 217.707V280.203L298.259 285.545V211.315Z" fill="#23B124"/>
<path opacity="0.5" d="M298.259 211.315L310.664 217.707V280.203L298.259 285.545V211.315Z" fill="white"/>
<path d="M313.382 259.221L316.621 260.891V277.216L313.382 278.612V259.221Z" fill="#23B124"/>
<path opacity="0.5" d="M313.382 259.221L316.621 260.891V277.216L313.382 278.612V259.221Z" fill="white"/>
<path d="M216.816 211.315H214.276V285.545H216.816V211.315Z" fill="#23B124"/>
<path opacity="0.5" d="M216.816 211.315H214.276V285.545H216.816V211.315Z" fill="white"/>
<path d="M221.469 211.315H218.929V285.545H221.469V211.315Z" fill="#23B124"/>
<path opacity="0.5" d="M221.469 211.315H218.929V285.545H221.469V211.315Z" fill="white"/>
<path d="M226.121 211.315H223.581V285.545H226.121V211.315Z" fill="#23B124"/>
<path opacity="0.5" d="M226.121 211.315H223.581V285.545H226.121V211.315Z" fill="white"/>
<path d="M230.774 211.315H228.234V285.545H230.774V211.315Z" fill="#23B124"/>
<path opacity="0.5" d="M230.774 211.315H228.234V285.545H230.774V211.315Z" fill="white"/>
<path d="M235.427 211.315H232.887V285.545H235.427V211.315Z" fill="#23B124"/>
<path opacity="0.5" d="M235.427 211.315H232.887V285.545H235.427V211.315Z" fill="white"/>
<path d="M240.072 211.315H237.532V285.545H240.072V211.315Z" fill="#23B124"/>
<path opacity="0.5" d="M240.072 211.315H237.532V285.545H240.072V211.315Z" fill="white"/>
<path d="M244.725 211.315H242.185V285.545H244.725V211.315Z" fill="#23B124"/>
<path opacity="0.5" d="M244.725 211.315H242.185V285.545H244.725V211.315Z" fill="white"/>
<path d="M249.378 211.315H246.838V285.545H249.378V211.315Z" fill="#23B124"/>
<path opacity="0.5" d="M249.378 211.315H246.838V285.545H249.378V211.315Z" fill="white"/>
<path d="M254.03 211.315H251.49V285.545H254.03V211.315Z" fill="#23B124"/>
<path opacity="0.5" d="M254.03 211.315H251.49V285.545H254.03V211.315Z" fill="white"/>
<path d="M258.683 211.315H256.143V285.545H258.683V211.315Z" fill="#23B124"/>
<path opacity="0.5" d="M258.683 211.315H256.143V285.545H258.683V211.315Z" fill="white"/>
<path d="M263.336 211.315H260.796V285.545H263.336V211.315Z" fill="#23B124"/>
<path opacity="0.5" d="M263.336 211.315H260.796V285.545H263.336V211.315Z" fill="white"/>
<path d="M267.989 211.315H265.449V285.545H267.989V211.315Z" fill="#23B124"/>
<path opacity="0.5" d="M267.989 211.315H265.449V285.545H267.989V211.315Z" fill="white"/>
<path d="M272.641 211.315H270.101V285.545H272.641V211.315Z" fill="#23B124"/>
<path opacity="0.5" d="M272.641 211.315H270.101V285.545H272.641V211.315Z" fill="white"/>
<path d="M277.294 211.315H274.754V285.545H277.294V211.315Z" fill="#23B124"/>
<path opacity="0.5" d="M277.294 211.315H274.754V285.545H277.294V211.315Z" fill="white"/>
<path d="M281.947 211.315H279.407V285.545H281.947V211.315Z" fill="#23B124"/>
<path opacity="0.5" d="M281.947 211.315H279.407V285.545H281.947V211.315Z" fill="white"/>
<path d="M286.6 211.315H284.06V285.545H286.6V211.315Z" fill="#23B124"/>
<path opacity="0.5" d="M286.6 211.315H284.06V285.545H286.6V211.315Z" fill="white"/>
<path d="M291.252 211.315H288.712V285.545H291.252V211.315Z" fill="#23B124"/>
<path opacity="0.5" d="M291.252 211.315H288.712V285.545H291.252V211.315Z" fill="white"/>
<path d="M295.897 211.315H293.357V285.545H295.897V211.315Z" fill="#23B124"/>
<path opacity="0.5" d="M295.897 211.315H293.357V285.545H295.897V211.315Z" fill="white"/>
<path d="M307.588 274.887C307.588 275.403 307.405 275.908 307.064 276.337C306.723 276.766 306.237 277.1 305.67 277.298C305.102 277.495 304.477 277.547 303.874 277.446C303.272 277.346 302.718 277.097 302.284 276.732C301.849 276.367 301.553 275.903 301.433 275.396C301.313 274.89 301.375 274.366 301.61 273.889C301.845 273.412 302.243 273.005 302.754 272.718C303.265 272.432 303.866 272.279 304.481 272.279C305.305 272.279 306.095 272.553 306.678 273.043C307.26 273.532 307.588 274.196 307.588 274.887Z" fill="#23B124"/>
<path d="M305.964 265.88C305.966 266.131 305.879 266.377 305.714 266.586C305.549 266.795 305.313 266.958 305.038 267.054C304.762 267.151 304.458 267.177 304.165 267.128C303.872 267.079 303.603 266.959 303.392 266.781C303.181 266.604 303.037 266.378 302.979 266.132C302.921 265.886 302.952 265.631 303.067 265.399C303.182 265.168 303.376 264.97 303.625 264.832C303.874 264.693 304.166 264.62 304.465 264.621C304.863 264.621 305.244 264.754 305.525 264.99C305.806 265.226 305.964 265.546 305.964 265.88Z" fill="#23B124"/>
<path d="M313.382 262.091H310.664V275.794H313.382V262.091Z" fill="#23B124"/>
<path opacity="0.15" d="M91.1367 133.237H3.48755L26.7902 89.2637H67.834L91.1367 133.237Z" fill="#23B124"/>
<path d="M55.5147 89.2637C55.5147 90.626 55.0336 91.9576 54.1323 93.0902C53.231 94.2229 51.95 95.1057 50.4511 95.627C48.9523 96.1483 47.3031 96.2847 45.7119 96.0189C44.1208 95.7531 42.6592 95.0972 41.5121 94.1339C40.3649 93.1707 39.5837 91.9435 39.2672 90.6074C38.9507 89.2714 39.1132 87.8865 39.734 86.628C40.3548 85.3695 41.4062 84.2938 42.7551 83.537C44.104 82.7802 45.6899 82.3762 47.3122 82.3762C49.4876 82.3762 51.574 83.1019 53.1122 84.3935C54.6505 85.6852 55.5147 87.4371 55.5147 89.2637Z" fill="#23B124"/>
<path d="M47.7006 0H46.9238V55.8176H47.7006V0Z" fill="#455A64"/>
<path d="M52.3221 51.0563H42.2942V60.1744H52.3221V51.0563Z" fill="#263238"/>
<path d="M67.8341 89.2637H26.7903C27.6214 76.154 35.0627 55.1392 47.3122 55.1392C59.5616 55.1392 67.0185 76.154 67.8341 89.2637Z" fill="#37474F"/>
<path d="M132.91 71.6275C136.113 68.9377 136.113 64.5768 132.91 61.8871C129.707 59.1973 124.513 59.1973 121.31 61.8871C118.107 64.5768 118.107 68.9377 121.31 71.6275C124.513 74.3172 129.707 74.3172 132.91 71.6275Z" fill="#23B124"/>
<path d="M127.497 0H126.72V33.3092H127.497V0Z" fill="#455A64"/>
<path d="M132.126 28.548H122.098V37.6661H132.126V28.548Z" fill="#263238"/>
<path d="M147.638 66.7554H106.586C107.418 53.6456 114.859 32.6113 127.108 32.6113C139.358 32.6113 146.815 53.6456 147.638 66.7554Z" fill="#37474F"/>
<path opacity="0.15" d="M170.941 110.729H83.2837L106.586 66.7554H147.638L170.941 110.729Z" fill="#23B124"/>
<path d="M124.794 102.145L123.527 103.195L122.805 103.802C121.207 102.454 119.308 101.385 117.217 100.655C115.125 99.9254 112.883 99.5497 110.618 99.5497C108.353 99.5497 106.11 99.9254 104.019 100.655C101.928 101.385 100.028 102.454 98.4305 103.802C98.2052 103.6 97.98 103.397 97.7469 103.202L96.4963 102.145H96.4575L96.5507 102.08C97.0867 101.682 97.5993 101.271 98.1508 100.893C100.646 99.1972 103.599 98.0415 106.75 97.5274C107.526 97.4035 108.381 97.3383 109.196 97.2535C109.476 97.2535 111.286 97.2535 111.34 97.2535C111.899 97.2861 112.459 97.3057 113.01 97.3579C114.548 97.5 116.059 97.8024 117.508 98.2579C118.56 98.5837 119.579 98.9829 120.552 99.4515C121.58 99.9467 122.552 100.519 123.458 101.16C123.908 101.486 124.343 101.813 124.794 102.171V102.145Z" fill="#263238"/>
<path d="M102.439 107.141L100.442 105.472C102.632 103.604 105.498 102.4 108.591 102.047C110.804 101.769 113.064 101.932 115.188 102.523C117.312 103.115 119.241 104.118 120.817 105.452L118.813 107.128C116.643 105.308 113.701 104.286 110.633 104.286C107.566 104.286 104.624 105.308 102.454 107.128L102.439 107.141Z" fill="#263238"/>
<path d="M116.801 108.811L114.805 110.481C113.693 109.547 112.186 109.023 110.614 109.023C109.042 109.023 107.535 109.547 106.423 110.481L104.435 108.817C105.242 108.129 106.204 107.583 107.266 107.209C108.327 106.836 109.466 106.643 110.616 106.643C111.767 106.642 112.906 106.833 113.968 107.206C115.029 107.578 115.992 108.124 116.801 108.811Z" fill="#263238"/>
<path d="M77.8543 84.0981L76.5959 83.035L75.8735 82.4349C77.4778 81.0922 78.7508 79.4968 79.6193 77.7401C80.4878 75.9835 80.9349 74.1002 80.9349 72.1982C80.9349 70.2962 80.4878 68.4129 79.6193 66.6563C78.7508 64.8997 77.4778 63.3042 75.8735 61.9615L76.5804 61.3876C77.0076 61.0419 77.4193 60.6897 77.8387 60.344L77.9164 60.4223C78.3824 60.8658 78.8718 61.3028 79.3301 61.7267C80.2449 62.6838 81.0267 63.7254 81.6604 64.8313C82.436 66.134 82.9903 67.5215 83.3071 68.9534C83.4547 69.6056 83.5323 70.3231 83.6333 71.0079C83.6333 71.2427 83.6333 72.7624 83.6333 72.808C83.5867 73.2711 83.5634 73.7407 83.509 74.2103C83.3327 75.5012 82.9702 76.7693 82.4294 77.9867C82.0446 78.8698 81.569 79.7231 81.0079 80.5369C80.422 81.4018 79.7406 82.2185 78.9728 82.9763C78.5844 83.3611 78.196 83.7263 77.7766 84.0981H77.8543Z" fill="#263238"/>
<path d="M71.9043 65.3335C72.5645 64.7661 73.217 64.2182 73.885 63.6508C76.1101 65.4834 77.5449 67.8861 77.963 70.4796C78.2972 72.3374 78.1049 74.2353 77.4018 76.019C76.6986 77.8028 75.5044 79.4221 73.9161 80.7456L71.9121 79.0629C74.0712 77.2448 75.2837 74.7821 75.2837 72.2145C75.2837 69.647 74.0712 67.1842 71.9121 65.3661L71.9043 65.3335Z" fill="#263238"/>
<path d="M69.9079 77.3867L67.9194 75.717C68.4725 75.2562 68.9115 74.7081 69.2111 74.1041C69.5106 73.5002 69.6648 72.8525 69.6648 72.1982C69.6648 71.544 69.5106 70.8963 69.2111 70.2923C68.9115 69.6884 68.4725 69.1403 67.9194 68.6795C68.5874 68.1251 69.2399 67.5707 69.9002 67.0163C70.7184 67.6936 71.3683 68.5006 71.8122 69.3904C72.256 70.2803 72.4849 71.2354 72.4856 72.2001C72.4864 73.1649 72.2589 74.1202 71.8164 75.0105C71.3739 75.9009 70.7252 76.7086 69.9079 77.3867Z" fill="#263238"/>
<path d="M321.593 248.564L320.342 247.5L319.62 246.894C321.225 245.552 322.498 243.957 323.367 242.201C324.236 240.445 324.684 238.562 324.684 236.66C324.684 234.759 324.236 232.876 323.367 231.12C322.498 229.363 321.225 227.769 319.62 226.427C319.853 226.238 320.101 226.049 320.334 225.853L321.593 224.803C321.593 224.803 321.593 224.803 321.593 224.77L321.67 224.849C322.144 225.299 322.633 225.729 323.084 226.192C324.002 227.147 324.784 228.189 325.414 229.297C326.182 230.6 326.736 231.984 327.061 233.412C327.209 234.065 327.286 234.782 327.387 235.467C327.387 235.702 327.426 237.221 327.387 237.267C327.348 237.737 327.325 238.206 327.263 238.669C327.09 239.96 326.73 241.228 326.191 242.446C325.803 243.33 325.328 244.185 324.77 245.002C324.18 245.865 323.499 246.682 322.734 247.442C322.346 247.82 321.958 248.185 321.53 248.564H321.593Z" fill="#263238"/>
<path d="M315.643 229.793L317.631 228.116C319.852 229.952 321.286 232.353 321.709 234.945C322.044 236.807 321.852 238.71 321.147 240.498C320.443 242.286 319.246 243.91 317.654 245.237L315.658 243.555C317.826 241.732 319.043 239.262 319.043 236.687C319.043 234.111 317.826 231.641 315.658 229.819L315.643 229.793Z" fill="#263238"/>
<path d="M313.654 241.852L311.666 240.182C312.217 239.721 312.654 239.172 312.952 238.569C313.251 237.965 313.404 237.317 313.404 236.664C313.404 236.01 313.251 235.363 312.952 234.759C312.654 234.155 312.217 233.607 311.666 233.145L313.654 231.475C314.471 232.154 315.12 232.962 315.562 233.853C316.005 234.743 316.233 235.699 316.233 236.664C316.233 237.629 316.005 238.584 315.562 239.475C315.12 240.365 314.471 241.173 313.654 241.852Z" fill="#263238"/>
<path d="M60.4239 236.667H31.8237L15.4497 168.144L41.6419 158.041L60.4239 236.667Z" fill="#23B124"/>
<g opacity="0.2">
<path opacity="0.2" d="M60.4239 236.667H31.8237L15.4497 168.144L41.6419 158.041L60.4239 236.667Z" fill="black"/>
</g>
<path d="M137.618 236.667H60.4238L41.6418 158.041H118.836L137.618 236.667Z" fill="#23B124"/>
<path d="M45.7354 199.901H1.90308V275.416H45.7354V199.901Z" fill="#23B124"/>
<g opacity="0.1">
<path opacity="0.1" d="M45.7354 199.901H1.90308V275.416H45.7354V199.901Z" fill="black"/>
</g>
<path d="M158.66 275.416H146.683L128.841 199.901H158.66V275.416Z" fill="#23B124"/>
<g opacity="0.1">
<path opacity="0.1" d="M158.66 275.416H146.683L128.841 199.901H158.66V275.416Z" fill="black"/>
</g>
<path d="M69.8226 199.901H45.7354V275.416H69.8226V199.901Z" fill="#23B124"/>
<path d="M182.74 199.901H158.652V275.416H182.74V199.901Z" fill="#23B124"/>
<path d="M158.66 236.667H69.8225V275.422H158.66V236.667Z" fill="#23B124"/>
<path d="M158.66 219.911H69.8225V236.824H158.66V219.911Z" fill="#23B124"/>
<path d="M51.6387 199.901L60.7267 199.764L69.8225 199.673H70.0944V199.907L70.2031 208.745V217.583C70.2031 223.453 70.2575 229.369 70.2031 235.258C70.1488 241.148 70.2031 247.044 70.0789 252.933C69.9546 258.823 69.9235 264.719 69.7759 270.609C69.6309 264.721 69.53 258.83 69.473 252.933C69.3798 247.063 69.372 241.148 69.3487 235.258C69.3254 229.369 69.3487 223.472 69.3487 217.583V208.745L69.4497 199.907L69.7293 200.142L60.6335 200.044L51.6387 199.901Z" fill="#263238"/>
<path d="M158.652 199.901C158.847 205.817 158.932 211.726 159.002 217.642L159.111 235.382L159.002 253.123L158.878 261.993L158.652 270.863L158.435 261.993L158.311 253.123L158.202 235.382L158.311 217.642C158.381 211.726 158.466 205.817 158.652 199.901Z" fill="#263238"/>
<path d="M158.653 236.667C150.885 236.823 143.071 236.895 135.28 236.96L111.907 237.045L93.1953 236.96L81.5051 236.856L69.8538 236.667L81.5051 236.478L93.1953 236.373L111.907 236.282L135.28 236.373C143.071 236.432 150.862 236.51 158.653 236.667Z" fill="#263238"/>
<path d="M158.653 219.911C150.885 220.068 143.071 220.146 135.28 220.205L111.907 220.296L93.1953 220.205L81.5051 220.1L69.8538 219.911L81.5051 219.729L93.1953 219.618L111.907 219.533L135.28 219.618C143.071 219.683 150.862 219.755 158.653 219.911Z" fill="#263238"/>
<path d="M18.5644 275.416L17.9741 281.534L16.5837 295.674H10.2376L8.85498 281.534L8.26465 275.416H18.5644Z" fill="#C7C7C7"/>
<path d="M8.26465 275.416H18.5644L17.9741 281.534H8.85498L8.26465 275.416Z" fill="#A6A6A6"/>
<path d="M62.9328 275.416L62.3347 281.534L60.9521 295.674H54.606L53.2233 281.534L52.6252 275.416H62.9328Z" fill="#C7C7C7"/>
<path d="M52.6252 275.416H62.9328L62.3347 281.534H53.2233L52.6252 275.416Z" fill="#A6A6A6"/>
<path d="M131.862 275.416L131.264 281.534L129.882 295.674H123.535L122.153 281.534L121.555 275.416H131.862Z" fill="#C7C7C7"/>
<path d="M121.555 275.416H131.862L131.264 281.534H122.153L121.555 275.416Z" fill="#A6A6A6"/>
<path d="M176.238 275.416L175.64 281.534L174.257 295.674H167.911L166.529 281.534L165.931 275.416H176.238Z" fill="#C7C7C7"/>
<path d="M176.238 275.416L175.64 281.534H166.529L165.931 275.416H176.238Z" fill="#A6A6A6"/>
<path d="M82.9964 164.505L77.6989 164.844C76.0789 162.63 75.41 160.018 75.8036 157.441C75.8736 156.854 74.1569 160.311 75.0269 165.02C69.4342 165.385 61.822 165.874 55.1808 166.253C54.9943 164.263 54.7069 162.424 54.7069 162.424C54.5293 163.752 54.2016 165.062 53.7282 166.337C52.8194 166.396 51.9339 166.435 51.0795 166.487C51.0206 163.651 50.7613 160.819 50.3027 158.008C49.8929 161.026 48.8626 163.961 47.2579 166.683C43.0401 166.892 40.267 166.964 40.4302 166.807C46.6442 160.878 41.8905 157.858 43.5372 152.817C45.549 146.777 52.1903 145.525 51.864 141.077C51.6155 137.457 50.8387 130.895 56.7654 129.213C58.3875 127.91 60.3978 126.998 62.5848 126.573C64.7719 126.149 67.0548 126.227 69.1935 126.799C78.7009 129.141 75.2832 140.496 75.9978 142.753C76.9998 145.962 79.0505 147.018 80.6584 150.658C82.2663 154.297 80.1379 156.932 79.9593 159.489C79.7806 162.046 84.0606 164.446 82.9964 164.505Z" fill="#263238"/>
<path d="M40.2358 166.011C41.0729 165.01 41.7322 163.911 42.1933 162.75C42.5415 161.629 42.5038 160.449 42.0845 159.346C41.7092 158.176 41.4161 156.989 41.2068 155.791C40.9973 154.532 41.1193 153.249 41.5641 152.034C42.0686 150.781 42.9113 149.642 44.0264 148.708C45.1308 147.787 46.3204 146.94 47.584 146.177C48.8022 145.449 49.9062 144.594 50.8696 143.633C51.7696 142.675 52.3272 141.521 52.4775 140.307C52.5653 141.563 52.1705 142.809 51.3512 143.862C50.4654 144.93 49.4007 145.886 48.1898 146.699C47.032 147.488 45.9322 148.335 44.8964 149.236C43.9365 150.101 43.2128 151.132 42.7758 152.256C42.3914 153.358 42.2726 154.513 42.4263 155.654C42.5506 156.815 42.8613 157.969 43.1021 159.163C43.2288 159.77 43.2964 160.385 43.304 161.002C43.2849 161.646 43.1216 162.281 42.8224 162.874C42.1851 164.039 41.3097 165.1 40.2358 166.011Z" fill="#263238"/>
<path d="M74.6929 130.713C75.3857 132.078 75.8585 133.515 76.0988 134.985C76.3784 136.446 76.5649 137.913 76.7357 139.381L76.9998 141.572C77.0766 142.278 77.2406 142.976 77.4892 143.653C78.0924 144.997 79.0028 146.229 80.169 147.279C80.7538 147.871 81.2885 148.497 81.7691 149.151C82.2405 149.816 82.611 150.529 82.8721 151.271C83.1059 152.006 83.267 152.757 83.3537 153.515C83.4404 154.28 83.4065 155.052 83.2527 155.81C83.1051 156.58 82.8488 157.304 82.6313 158.021C82.4206 158.725 82.2931 159.443 82.2507 160.167C82.247 160.898 82.4681 161.617 82.8927 162.255C83.3174 162.892 83.931 163.427 84.6742 163.807C83.8353 163.482 83.1137 162.977 82.583 162.342C82.0522 161.708 81.7312 160.966 81.6526 160.193C81.6135 159.433 81.676 158.672 81.839 157.924C81.9866 157.18 82.2041 156.456 82.2895 155.745C82.441 154.328 82.2535 152.9 81.738 151.545C81.4734 150.875 81.1218 150.232 80.6894 149.627C80.2227 149.012 79.7035 148.425 79.1359 147.873C78.5572 147.286 78.0153 146.674 77.5125 146.04C77.0045 145.387 76.6071 144.678 76.3318 143.933C76.0907 143.196 75.9423 142.44 75.8891 141.677C75.8192 140.933 75.7803 140.196 75.7415 139.459C75.6561 137.985 75.6017 136.518 75.4696 135.05C75.4051 133.584 75.1446 132.13 74.6929 130.713Z" fill="#263238"/>
<path d="M266.559 196.972C265.006 197.833 216.404 208.973 214.237 208.413C213.996 208.354 213.569 206.521 211.58 201.949C211.487 201.734 210.128 201.068 208.054 200.168C200.24 196.79 182.196 189.968 182.196 189.968L201.902 167.453L230.914 182.558L238.456 186.472C238.456 186.472 260.671 190.678 262.978 191.5C265.285 192.322 268.105 196.118 266.559 196.972Z" fill="#D3766A"/>
<path d="M266.567 196.972C265.014 197.833 216.404 208.973 214.237 208.419C213.996 208.354 213.569 206.521 211.581 201.949C218.843 201.512 256.726 196.079 257.036 192.107C257.153 190.555 250.869 188.95 249.735 188.67C255.615 189.831 261.821 191.102 262.979 191.513C265.278 192.361 268.105 196.118 266.567 196.972Z" fill="#263238"/>
<path d="M219.791 175.058L216.987 179.395L203.005 201.049C203.005 201.049 172.789 190.118 163.763 186.335C163.468 186.211 138.278 209.691 117.282 217.276C101.196 223.094 88.3326 219.937 78.2114 208.028L103.215 192.446C123.9 178.404 146.014 158.106 162.303 156.717C179.974 155.23 219.791 175.058 219.791 175.058Z" fill="#263238"/>
<path d="M213.507 174.862C210.579 179.115 211.355 177.862 208.481 182.141C207.075 184.228 199.984 194.735 199.059 196.875C199.059 196.92 199.121 196.959 199.153 196.92C200.815 195.12 207.635 184.489 208.994 182.376C211.775 178.058 210.928 179.271 213.655 174.927C213.66 174.919 213.663 174.91 213.664 174.901C213.665 174.892 213.664 174.883 213.66 174.874C213.657 174.865 213.652 174.857 213.645 174.85C213.638 174.843 213.629 174.837 213.62 174.833C213.61 174.828 213.599 174.826 213.588 174.825C213.578 174.824 213.567 174.825 213.556 174.828C213.546 174.83 213.536 174.835 213.527 174.841C213.519 174.847 213.512 174.854 213.507 174.862Z" fill="#37474F"/>
<path d="M214.758 182.839L202.982 201.049C202.982 201.049 172.766 190.118 163.74 186.335C163.453 186.211 138.255 209.691 117.267 217.276C101.165 223.094 88.3094 219.937 78.196 208.028L103.192 192.446C105.926 190.587 108.691 188.617 111.465 186.576C136.857 185.715 192.48 183.667 214.758 182.839Z" fill="#37474F"/>
<path d="M252.523 246.353C250.721 246.718 200.52 243.091 198.71 241.911C198.515 241.78 198.865 239.954 198.881 235.076C198.881 234.841 197.879 233.83 196.302 232.382C190.36 226.942 176.23 215.307 176.23 215.307L203.992 199.888L225.003 222.481L230.44 228.351C230.44 228.351 249.556 238.741 251.413 240.189C253.269 241.637 254.333 245.987 252.523 246.353Z" fill="#D3766A"/>
<path d="M252.523 246.353C250.721 246.711 200.52 243.091 198.71 241.911C198.516 241.78 198.865 239.954 198.881 235.076C205.872 236.771 243.668 242.641 245.579 239.022C246.356 237.6 241.097 234.273 240.142 233.686C245.183 236.478 250.481 239.465 251.405 240.209C253.215 241.643 254.333 245.987 252.523 246.353Z" fill="#263238"/>
<path d="M72.5956 190.065C72.5956 190.065 66.2883 206.495 75.6405 214.85C82.3749 220.87 92.2087 222.475 100.947 222.403C125.097 222.194 148.951 200.371 157.037 199.96C161.185 199.751 188.845 229.682 188.845 229.682L216.699 212.332C211.13 207.056 178.638 171.092 159.74 169.005C146.791 167.57 110.424 186.524 109.67 186.172C108.451 185.598 103.068 182.643 103.068 182.643L72.5956 190.065Z" fill="#263238"/>
<path d="M212.031 209.639C208.598 211.485 205.328 213.552 202.042 215.548C198.756 217.544 195.517 219.559 192.294 221.607C190.461 222.775 188.643 223.942 186.856 225.155C186.851 225.162 186.848 225.17 186.849 225.178C186.849 225.187 186.852 225.195 186.858 225.201C186.864 225.208 186.873 225.212 186.882 225.215C186.892 225.217 186.902 225.217 186.911 225.214C190.321 223.329 193.614 221.301 196.908 219.311C200.201 217.322 203.44 215.3 206.664 213.259C208.497 212.104 210.346 210.95 212.101 209.717C212.163 209.678 212.093 209.606 212.031 209.639Z" fill="#37474F"/>
<path d="M92.6437 189.641C92.6437 189.55 92.4418 189.596 92.4495 189.687C92.7684 192.289 91.9816 194.902 90.228 197.064C88.224 199.457 85.0238 200.977 82.1498 202.523C81.8701 202.673 82.1498 203.032 82.4294 202.934C84.2363 202.294 85.9552 201.491 87.556 200.54C89.0258 199.707 90.2807 198.633 91.2456 197.383C92.101 196.243 92.6667 194.967 92.9073 193.635C93.1479 192.303 93.0582 190.943 92.6437 189.641Z" fill="#37474F"/>
<path d="M109.864 187.907C109.204 187.372 108.505 186.876 107.822 186.361C106.221 185.141 104.606 183.921 102.943 182.754C102.788 182.65 102.547 182.858 102.695 182.982C103.845 183.934 105.025 184.848 106.229 185.774L108.055 187.189C108.679 187.602 109.253 188.065 109.771 188.572C109.873 188.684 109.938 188.817 109.958 188.957C109.978 189.097 109.953 189.239 109.886 189.368C109.818 189.497 109.711 189.609 109.574 189.691C109.438 189.774 109.278 189.824 109.111 189.837C108.466 189.926 107.805 189.804 107.262 189.498C106.035 188.812 104.889 188.03 103.837 187.163C103.169 186.68 102.501 186.204 101.817 185.728C101.134 185.252 100.341 184.756 99.619 184.254C99.5724 184.221 99.5025 184.254 99.5491 184.319C100.194 184.887 100.807 185.487 101.46 186.048C102.112 186.609 102.765 187.176 103.433 187.73C104.101 188.285 104.714 188.761 105.375 189.257C105.929 189.698 106.567 190.06 107.262 190.326C108.396 190.724 110.229 190.62 110.602 189.42C110.65 189.135 110.606 188.845 110.477 188.579C110.347 188.314 110.136 188.081 109.864 187.907Z" fill="#37474F"/>
<path d="M188.643 222.631C181.979 215.704 163.787 197.925 159.53 194.82C159.098 194.512 158.595 194.282 158.053 194.144C157.51 194.006 156.94 193.963 156.377 194.018C155.155 194.246 154.006 194.691 153.006 195.322L149.262 197.201L141.572 201.062C136.771 203.482 131.987 205.934 127.14 208.302C122.857 210.46 118.386 212.342 113.764 213.93C104.878 216.878 94.0342 218.189 85.4355 213.852C81.5432 211.836 78.6538 208.703 77.3029 205.034C75.8736 201.368 75.6484 197.442 75.7494 193.613C75.7494 192.687 75.8193 191.761 75.8736 190.835C75.8767 190.829 75.878 190.823 75.8774 190.816C75.8767 190.81 75.8742 190.803 75.8699 190.798C75.8657 190.792 75.8599 190.788 75.8531 190.785C75.8463 190.782 75.8387 190.78 75.8309 190.78C75.8232 190.78 75.8156 190.782 75.8088 190.785C75.802 190.788 75.7962 190.792 75.7919 190.798C75.7877 190.803 75.7851 190.81 75.7845 190.816C75.7838 190.823 75.7851 190.829 75.7882 190.835C75.0969 198.009 75.1435 206.397 81.5828 211.876C88.426 217.694 99.2928 218.013 108.171 216.037C118.121 213.826 126.93 209.013 135.668 204.61L150.939 196.914C152.174 196.294 153.394 195.609 154.652 195.048C155.911 194.487 157.348 194.083 158.536 194.872C162.575 197.481 187.548 221.907 188.433 222.755C188.55 222.866 188.752 222.735 188.643 222.631Z" fill="#37474F"/>
<path d="M129.338 177.51C136.268 174.288 143.571 171.665 151.133 169.683C153.047 169.197 155.01 168.862 156.998 168.685C158.005 168.588 159.024 168.601 160.027 168.725C161.025 168.85 162.008 169.051 162.963 169.325C166.699 170.518 170.22 172.14 173.426 174.145C176.637 176.097 179.718 178.196 182.654 180.432C185.606 182.656 188.464 184.952 191.199 187.346C196.7 192.12 201.908 197.127 206.804 202.347C204.232 199.829 201.63 197.331 198.951 194.898C196.271 192.466 193.568 190.046 190.771 187.724C185.267 182.976 179.31 178.613 172.96 174.679C169.824 172.702 166.379 171.095 162.723 169.905C160.909 169.333 158.966 169.11 157.037 169.253C155.092 169.425 153.167 169.73 151.281 170.166C147.484 171.051 143.758 172.141 140.127 173.427C136.484 174.679 132.887 176.056 129.338 177.51Z" fill="#37474F"/>
<path d="M96.6597 119.194L99.1919 139.25C99.1919 139.864 99.7045 140.203 100.334 140.007L111.62 136.524C111.955 136.396 112.24 136.191 112.44 135.932C112.641 135.673 112.75 135.372 112.754 135.063L110.23 115.007C110.23 114.394 109.717 114.055 109.088 114.251L97.8015 117.733C97.4668 117.862 97.1822 118.068 96.9802 118.326C96.7782 118.584 96.6671 118.885 96.6597 119.194Z" fill="#37474F"/>
<path d="M97.9956 118.771L100.52 138.826C100.52 139.44 101.04 139.779 101.67 139.583L112.956 136.1C113.29 135.974 113.575 135.769 113.775 135.512C113.976 135.254 114.085 134.954 114.09 134.646L111.566 114.583C111.566 113.97 111.053 113.631 110.424 113.827L99.1374 117.31C98.8028 117.438 98.5181 117.644 98.3161 117.902C98.1142 118.16 98.0031 118.461 97.9956 118.771Z" fill="#455A64"/>
<path d="M101.46 118.653C101.526 118.814 101.534 118.988 101.482 119.153C101.43 119.318 101.322 119.466 101.169 119.579C101.017 119.692 100.828 119.765 100.627 119.787C100.426 119.81 100.221 119.782 100.039 119.707C99.8564 119.632 99.7048 119.513 99.6031 119.365C99.5014 119.217 99.4542 119.048 99.4675 118.878C99.4808 118.708 99.554 118.545 99.6777 118.409C99.8015 118.274 99.9703 118.173 100.163 118.118C100.419 118.046 100.7 118.061 100.943 118.161C101.186 118.261 101.372 118.438 101.46 118.653Z" fill="#263238"/>
<path d="M73.5122 161.974C86.0646 170.309 108.14 178.71 113.834 176.401C116.537 175.305 121.663 173.831 123.652 169.755C127.986 160.859 128.74 147.579 127.046 141.057C126.417 138.611 109.181 138.781 108.326 141.37C106.408 147.429 106.175 157.832 105.367 158.113C102.361 159.143 86.3442 155.973 75.1279 153.717C61.5191 150.945 68.5099 158.654 73.5122 161.974Z" fill="#D3766A"/>
<path d="M122.448 130.106C119.022 125.821 117.36 125.162 116.754 120.258C116.35 117.036 113.732 115.868 112.241 118.992C109.81 124.106 112.855 130.419 114.657 132.35L122.448 130.106Z" fill="#D3766A"/>
<path d="M127.427 144.423C127.427 144.423 127.139 137.105 124.024 132.232C121.865 128.86 116.203 121.973 102.625 121.516C99.4013 121.412 94.7252 123.173 99.9062 124.954C103.588 126.219 106.377 126.088 108.365 127.152C108.365 127.152 102.726 129.989 102.726 132.702C102.719 135.076 102.916 137.448 103.316 139.798C103.834 139.822 104.352 139.822 104.87 139.798C104.87 139.798 104.963 142.335 108.35 144.964L127.427 144.423Z" fill="#D3766A"/>
<path d="M121.352 129.291C119.123 128.586 114.362 127.158 109.973 127.126C105.111 127.126 95.7195 128.123 95.7273 131.143C95.7273 133.354 99.3547 133.224 99.3547 133.224C99.3547 133.224 95.5875 134.339 96.1079 136.335C96.5895 138.155 99.3858 137.913 99.3858 137.913C99.3858 137.913 97.2342 138.918 98.0964 140.594C99.1373 142.616 103.472 140.177 106.641 141.461C107.332 141.748 121.352 129.291 121.352 129.291Z" fill="#D3766A"/>
<path d="M110.789 131.45C106.879 131.029 102.908 131.62 99.4094 133.146C99.3239 133.191 99.3084 133.269 99.4094 133.243C103.105 132.269 106.93 131.68 110.797 131.489C110.797 131.489 110.812 131.456 110.789 131.45Z" fill="#263238"/>
<path d="M110.602 135.572C108.637 135.415 103.161 135.865 99.3627 137.842C99.2772 137.881 99.2772 137.959 99.3627 137.933C102.996 136.806 106.769 136.027 110.61 135.611C110.61 135.611 110.626 135.572 110.602 135.572Z" fill="#263238"/>
<path d="M90.0727 172.331L91.665 155.706C91.665 155.706 77.4038 152.765 69.6595 152.588C65.3175 152.491 65.1699 155.315 67.7565 157.806C76.829 166.455 90.0727 172.331 90.0727 172.331Z" fill="#23B124"/>
<path d="M90.0727 172.331L91.665 155.706C91.665 155.706 77.4038 152.765 69.6595 152.588C65.3175 152.491 65.1699 155.315 67.7565 157.806C76.829 166.455 90.0727 172.331 90.0727 172.331Z" fill="#455A64"/>
<path opacity="0.1" d="M91.5018 157.604L90.1037 172.331C90.1037 172.331 76.8522 166.461 67.7797 157.793C66.0009 156.091 65.5193 154.226 66.801 153.228L91.5018 157.604Z" fill="black"/>
<path d="M88.4957 156.078C87.5964 160.725 87.0516 165.415 86.8645 170.12C86.8645 170.12 86.9888 170.159 86.9965 170.12C87.6956 166.311 88.4491 158.648 88.6821 156.084C88.6821 156.045 88.5035 156.032 88.4957 156.078Z" fill="#263238"/>
<path d="M94.104 170.473L109.857 186.061C109.857 186.061 79.1281 195.388 69.5663 197.996C69.5663 197.996 51.8407 170.492 57.4411 157.976C60.2374 151.714 64.5173 150.801 69.7993 152.725C71.1353 153.208 88.1385 158.028 91.6417 162.411C93.4887 164.8 94.3535 167.632 94.104 170.473Z" fill="#455A64"/>
<path d="M86.9812 171.497C85.0974 172.205 83.2798 173.031 81.5439 173.968C80.6895 174.438 79.8661 174.947 79.0583 175.469C78.6544 175.729 78.2349 175.977 77.8233 176.219C77.3942 176.48 76.9302 176.699 76.4406 176.871C76.394 176.871 76.4406 176.936 76.4406 176.93C76.9234 176.809 77.3957 176.661 77.8543 176.486C78.2972 176.31 78.7231 176.105 79.1282 175.873C79.9982 175.403 80.8448 174.895 81.707 174.412C83.4547 173.44 85.1947 172.455 87.0201 171.601C87.1443 171.581 87.0744 171.457 86.9812 171.497Z" fill="#263238"/>
<path d="M92.364 171.536C90.7096 171.86 89.0784 172.263 87.4782 172.742C86.7014 172.984 85.9247 173.264 85.1479 173.558C84.7751 173.701 84.3711 173.851 84.0527 174.001C83.7342 174.151 83.2759 174.379 82.872 174.542C82.8332 174.542 82.872 174.614 82.872 174.601C83.2604 174.458 83.6487 174.366 84.0682 174.242L85.2566 173.864C86.0334 173.616 86.849 173.375 87.6413 173.121C89.1948 172.603 90.782 172.11 92.4028 171.64C92.5038 171.627 92.4494 171.536 92.364 171.536Z" fill="#263238"/>
<path d="M56.8276 156.469C43.2188 168.451 26.2855 192.857 29.6411 197.84C33.3773 203.39 52.8506 186.432 52.2369 185.617C51.7087 184.919 58.6452 170.375 63.5776 159.346C68.51 148.316 60.1987 153.508 56.8276 156.469Z" fill="#D3766A"/>
<path d="M40.1504 170.831L59.6936 173.786C59.6936 173.786 64.5794 162.157 65.5426 155.7C66.0863 152.08 63.5541 151.936 60.3694 153.854C49.2151 160.585 40.1504 170.831 40.1504 170.831Z" fill="#455A64"/>
<path d="M59.5695 171.099C54.1497 169.895 48.6444 168.983 43.0867 168.366C43.0867 168.366 43.0246 168.464 43.0867 168.47C47.5297 169.435 56.5401 170.805 59.5617 171.255C59.585 171.262 59.6549 171.112 59.5695 171.099Z" fill="#263238"/>
<path d="M57.3245 173.427C58.1012 173.492 58.9323 173.577 59.7324 173.668L59.5615 173.747C60.1441 171.96 60.7888 170.192 61.4879 168.431C62.187 166.67 62.9171 164.929 63.7638 163.213C63.2511 165.013 62.6375 166.794 61.9772 168.568C61.317 170.342 60.6179 172.09 59.8489 173.825L59.8023 173.936H59.678C58.878 173.766 58.1012 173.603 57.3245 173.427Z" fill="#263238"/>
<path d="M62.459 166.748C62.6349 166.383 62.8589 166.035 63.127 165.711C63.3906 165.384 63.6868 165.076 64.0125 164.792C63.9666 164.989 63.8881 165.18 63.7795 165.359C63.6755 165.536 63.556 165.706 63.4222 165.868C63.1624 166.205 62.8367 166.502 62.459 166.748Z" fill="#263238"/>
<path d="M30.0761 198.349C33.7657 201.708 42.2945 201.447 63.8262 202.49C66.8089 202.634 73.6754 185.252 70.4985 184.958C66.506 184.593 50.9009 183.895 49.7513 183.967C40.0652 184.58 27.5749 196.079 30.0761 198.349Z" fill="#D3766A"/>
<path d="M66.1796 184.639C66.1796 184.639 75.2444 184.743 79.9904 186.041C86.3365 187.776 90.9737 191.468 92.8068 193.111C96.6285 196.549 103.037 207.075 99.751 209.156C96.7683 211.034 90.8649 200.025 90.8649 200.025C90.8649 200.025 99.0986 210.461 95.0206 212.156C90.9426 213.852 84.9228 200.729 84.9228 200.729C84.9228 200.729 93.0942 211.595 88.5502 212.802C85.117 213.715 78.9029 202.066 78.9029 202.066C78.9029 202.066 85.8471 211.445 82.3672 212.502C78.5223 213.676 71.9742 203.234 71.9742 203.234C62.5833 204.695 57.4023 202.164 53.969 199.973C53.169 199.457 66.1796 184.639 66.1796 184.639Z" fill="#D3766A"/>
<path d="M88.2937 196.242C89.3113 197.436 90.3522 198.642 91.2454 199.907C92.1387 201.173 92.9698 202.464 93.7155 203.821C94.7395 205.541 95.5215 207.356 96.0458 209.228C94.8263 205.967 91.727 201.401 90.8415 200.097C89.956 198.792 89.1404 197.533 88.2471 196.268C88.2161 196.235 88.2704 196.216 88.2937 196.242Z" fill="#263238"/>
<path d="M82.7866 198.857C84.0139 200.429 85.2955 201.949 86.4373 203.573C87.5792 205.197 88.4802 206.795 89.4822 208.465C89.5599 208.595 89.4822 208.589 89.3657 208.465C88.286 206.828 87.1442 205.386 86.0412 203.756C84.9382 202.125 83.9129 200.494 82.74 198.883L82.7866 198.857Z" fill="#263238"/>
<path d="M77.5824 200.39C79.5294 202.763 81.1797 205.299 82.5071 207.956C82.577 208.086 82.4371 208.06 82.3595 207.956C80.806 205.419 79.5632 203.39 77.4892 200.475C77.4582 200.397 77.5203 200.338 77.5824 200.39Z" fill="#263238"/>
<path d="M41.0127 186.537C42.7682 185.604 47.7239 183.419 52.6019 184.019C52.6563 184.019 52.6563 184.098 52.6019 184.091C48.5783 184.091 42.8381 185.806 41.0515 186.596C41.0127 186.628 41.0127 186.569 41.0127 186.537Z" fill="#263238"/>
<path d="M61.8296 154.095C62.1559 154.708 66.296 157.05 69.7448 156.326C70.8711 156.091 70.0943 152.086 70.0943 152.086V151.682L70.2497 146.053L61.7053 143.255L60.4858 142.903C60.4858 142.903 60.5635 144.442 60.6878 146.366C60.6878 146.451 60.6878 146.542 60.6878 146.64C60.6878 146.738 60.6878 146.849 60.6878 146.953C60.6878 147.234 60.6878 147.527 60.7422 147.821C60.7965 148.114 60.7422 148.258 60.7965 148.473L60.8664 149.164C61.05 150.825 61.3719 152.472 61.8296 154.095Z" fill="#D3766A"/>
<path d="M60.7347 146.366C61.7428 147.77 63.1031 148.973 64.7208 149.891C66.3385 150.809 68.1749 151.42 70.1024 151.682L70.2577 146.053L61.7134 143.255L60.4939 142.903C60.4939 142.903 60.6104 144.442 60.7347 146.366Z" fill="#263238"/>
<path d="M77.1941 136.009C81.1866 145.31 75.0114 148.362 72.619 149.086C70.4518 149.738 62.9717 151.734 57.8606 142.838C52.7495 133.941 56.6333 129.434 61.4958 127.719C66.3583 126.004 73.2015 126.715 77.1941 136.009Z" fill="#D3766A"/>
<path d="M74.4909 134.267C74.2334 134.299 73.9742 134.318 73.7142 134.326C73.432 134.379 73.1367 134.352 72.8753 134.248C72.8005 134.202 72.746 134.137 72.7207 134.063C72.6953 133.988 72.7005 133.909 72.7354 133.837C72.8268 133.703 72.9592 133.591 73.119 133.515C73.2788 133.438 73.4601 133.398 73.6442 133.4C74.019 133.355 74.4001 133.427 74.7162 133.602C74.7867 133.647 74.8394 133.71 74.8674 133.78C74.8954 133.851 74.8974 133.927 74.8731 133.999C74.8488 134.071 74.7994 134.135 74.7312 134.183C74.663 134.231 74.5793 134.26 74.4909 134.267Z" fill="#263238"/>
<path d="M67.2748 136.42C67.5195 136.321 67.758 136.213 67.9894 136.094C68.2618 136.011 68.4921 135.852 68.6419 135.644C68.6746 135.571 68.6779 135.491 68.6512 135.417C68.6245 135.343 68.5693 135.278 68.4943 135.233C68.3297 135.163 68.1458 135.13 67.9615 135.14C67.7773 135.149 67.5992 135.199 67.4456 135.285C67.0973 135.411 66.8195 135.645 66.6689 135.937C66.6315 136.007 66.621 136.086 66.6388 136.161C66.6566 136.237 66.7019 136.306 66.7684 136.358C66.8349 136.411 66.9193 136.446 67.01 136.457C67.1007 136.468 67.1932 136.455 67.2748 136.42Z" fill="#263238"/>
<path d="M69.8848 138.435C69.8848 138.435 69.8305 138.481 69.8848 138.507C70.1567 139.159 70.3354 139.903 69.7295 140.307C70.5296 140.014 70.2577 138.996 69.8848 138.435Z" fill="#263238"/>
<path d="M68.9759 137.952C67.7175 138.207 68.4166 140.294 69.5817 140.059C70.7469 139.824 69.9934 137.737 68.9759 137.952Z" fill="#263238"/>
<path d="M68.4943 138.174C68.3156 138.344 68.1681 138.605 67.9117 138.69C67.6554 138.774 67.3136 138.618 67.0495 138.455C67.0495 138.455 67.0029 138.455 67.0495 138.494C67.1816 138.892 67.5 139.263 68.0282 139.198C68.5564 139.133 68.7351 138.709 68.7195 138.279C68.6729 138.2 68.5642 138.109 68.4943 138.174Z" fill="#263238"/>
<path d="M73.8618 137.137C73.8618 137.137 73.9317 137.137 73.9395 137.183C74.1259 137.835 74.4755 138.559 75.2445 138.618V138.657C74.359 138.748 73.9162 137.783 73.8618 137.137Z" fill="#263238"/>
<path d="M74.3355 136.315C75.555 135.95 76.3318 138.024 75.1977 138.363C74.0636 138.703 73.3102 136.609 74.3355 136.315Z" fill="#263238"/>
<path d="M74.9025 136.315C75.1356 136.374 75.4074 136.524 75.6793 136.472C75.9512 136.42 76.0677 136.139 76.1609 135.878C76.1609 135.878 76.1997 135.878 76.2075 135.878C76.3706 136.27 76.3706 136.726 75.9434 136.922C75.5162 137.118 75.1666 136.844 74.8637 136.478C74.7782 136.407 74.8016 136.315 74.9025 136.315Z" fill="#263238"/>
<path d="M71.3063 143.372C71.5232 143.529 71.7972 143.619 72.083 143.627C72.365 143.562 72.6289 143.451 72.8598 143.301C72.8598 143.301 72.9141 143.301 72.8598 143.301C72.7835 143.45 72.6612 143.579 72.5056 143.676C72.3499 143.772 72.1665 143.832 71.9743 143.849C71.8047 143.845 71.6402 143.799 71.5019 143.716C71.3636 143.634 71.2576 143.519 71.1975 143.386C71.1975 143.386 71.2596 143.353 71.3063 143.372Z" fill="#263238"/>
<path d="M73.6908 140.229C73.6908 140.229 74.1879 141.155 74.351 141.611C74.351 141.657 74.2423 141.709 74.0558 141.761C73.6142 141.946 73.1207 142.026 72.6289 141.991C72.1372 141.957 71.6662 141.81 71.2673 141.566C71.2129 141.533 71.2673 141.468 71.3294 141.488C72.1569 141.716 73.0497 141.716 73.8772 141.488C73.8772 141.351 72.9684 139.922 73.0538 139.896C73.4835 139.827 73.9223 139.805 74.3588 139.831C73.3956 137.874 72.0673 136.068 71.143 134.111C71.1395 134.098 71.1409 134.084 71.1471 134.071C71.1533 134.059 71.164 134.048 71.1776 134.041C71.1913 134.034 71.2072 134.031 71.2233 134.031C71.2393 134.032 71.2547 134.037 71.2673 134.046C72.7675 135.944 74.0349 137.966 75.0501 140.079C75.1899 140.333 73.9393 140.268 73.6908 140.229Z" fill="#263238"/>
<path d="M73.9395 141.468C73.8056 141.919 73.5385 142.334 73.1627 142.675C72.9488 142.848 72.6784 142.963 72.3859 143.007C71.7257 143.079 71.4849 142.629 71.3995 142.198C71.3678 141.967 71.3678 141.732 71.3995 141.501C72.2304 141.707 73.1164 141.695 73.9395 141.468Z" fill="#263238"/>
<path d="M73.1238 142.675C72.9099 142.848 72.6395 142.963 72.3471 143.007C71.6868 143.079 71.446 142.629 71.3606 142.198C71.6764 142.108 72.0184 142.106 72.336 142.192C72.6535 142.278 72.9297 142.447 73.1238 142.675Z" fill="#FF9ABB"/>
<path d="M58.9868 143.49C61.7598 142.635 59.7636 135.154 59.4839 134.241C59.6859 134.809 60.7501 137.822 61.0375 137.868C61.34 137.783 61.6217 137.652 61.8686 137.483C61.7306 137.125 61.6242 136.758 61.5501 136.387C61.5501 136.218 61.7676 136.726 62.1249 137.339L62.5987 137.079C62.2702 136.322 62.0612 135.533 61.9773 134.73C61.9773 134.43 62.5366 135.676 63.2901 136.687C65.4594 135.438 67.7855 134.393 70.2265 133.57C70.9178 133.354 71.5237 133.198 72.0674 133.074C71.7256 132.187 71.2363 131.28 71.3916 131.463C71.8104 131.938 72.1721 132.447 72.4713 132.983L73.2947 132.813C72.8752 131.548 71.3994 129.754 71.7412 129.995C72.8276 130.732 73.7348 131.638 74.4132 132.663C75.4929 132.552 75.8347 132.663 75.7725 132.409C74.5119 130.039 72.2867 128.124 69.4963 127.008C64.9057 125.201 57.6197 126.434 55.3438 131.795C55.3438 131.795 52.7883 134.476 53.3942 137.489C54.0001 140.503 57.3789 143.979 58.9868 143.49Z" fill="#263238"/>
<path d="M59.9189 143.014C59.9189 143.014 56.4934 140.587 55.1186 141.709C53.7437 142.831 56.975 146.718 59.0567 146.888C59.3234 146.929 59.5972 146.923 59.8613 146.872C60.1253 146.821 60.3741 146.725 60.5924 146.59C60.8106 146.455 60.9937 146.284 61.1303 146.087C61.267 145.89 61.3543 145.673 61.387 145.447L59.9189 143.014Z" fill="#D3766A"/>
<path d="M56.0818 142.792C56.0818 142.792 56.0818 142.831 56.0818 142.838C57.5499 142.988 58.5752 143.868 59.4063 144.827C59.2936 144.733 59.1578 144.66 59.0084 144.614C58.8591 144.568 58.6996 144.549 58.5409 144.56C58.3823 144.57 58.2282 144.61 58.0893 144.675C57.9504 144.74 57.83 144.83 57.7363 144.938C57.728 144.944 57.723 144.952 57.7223 144.962C57.7215 144.971 57.7252 144.98 57.7324 144.987C57.7396 144.994 57.7498 144.998 57.7607 144.998C57.7716 144.999 57.7824 144.996 57.7906 144.99C58.0047 144.876 58.2555 144.82 58.5086 144.831C58.7617 144.841 59.0048 144.918 59.2043 145.049C59.5347 145.27 59.8366 145.519 60.1054 145.792C60.1986 145.877 60.4005 145.792 60.3151 145.675C59.8801 144.22 57.9382 142.531 56.0818 142.792Z" fill="#263238"/>
</svg>
