<svg width="351" height="287" viewBox="0 0 351 287" fill="none" xmlns="http://www.w3.org/2000/svg">
<g filter="url(#filter0_ddd_2_651)">
<path d="M293.556 48.5275C293.848 45.7884 290.859 43.5356 288.608 43.2988C287.534 43.19 286.425 43.4012 285.411 42.9468C283.199 41.9292 282.318 38.2813 280.195 37.1165C278.592 36.2397 276.731 37.0205 275.192 38.0317C273.653 39.0429 272.105 40.3165 270.368 40.4573C268.858 40.5853 267.215 39.8557 265.914 40.8093C264.924 41.5196 264.429 42.9916 263.504 43.8556C262.579 44.7196 261.46 44.8796 260.357 44.9564C259.253 45.0332 258.115 45.0524 257.111 45.6476C256.106 46.2428 255.28 47.6123 255.487 49.0139L293.556 48.5275Z" fill="#EBEBEB"/>
<path d="M208.007 201.869C208.407 201.171 190.984 165.639 190.984 165.639L178.514 163.079L165.677 184.775L160.234 181.472L122.13 200.73L95.4086 156.698L91.331 162.183L80.6225 141.595L73.7441 161.3L63.1444 195.277L55.974 188.359L36.0613 214.553H226.534C226.534 214.553 207.601 202.566 208.007 201.869Z" fill="#F5F5F5"/>
<path d="M277.098 213.932C277.098 214.022 220.215 214.099 150.06 214.099C79.9051 214.099 23.0023 214.022 23.0023 213.932C23.0023 213.843 79.8803 213.766 150.05 213.766C220.22 213.766 277.098 213.843 277.098 213.932Z" fill="#E0E0E0"/>
<path d="M267.869 223.385C267.869 223.481 255.497 223.558 240.212 223.558C224.926 223.558 212.554 223.481 212.554 223.385C212.554 223.289 224.926 223.219 240.212 223.219C255.497 223.219 267.869 223.295 267.869 223.385Z" fill="#E0E0E0"/>
<path d="M76.0253 76.303C76.4558 72.3031 72.0665 69.0071 68.8005 68.6679C67.2368 68.5015 65.6137 68.8151 64.1291 68.1432C60.9175 66.6968 59.6309 61.3273 56.4985 59.6185C54.153 58.3385 51.456 59.4777 49.1797 60.9561C46.9034 62.4345 44.6469 64.3288 42.1232 64.508C39.9161 64.6872 37.5161 63.6312 35.5862 65.0264C34.1462 66.0632 33.394 68.2264 32.0678 69.4743C30.7416 70.7223 29.0987 70.9783 27.4657 71.0935C25.8327 71.2087 24.1849 71.2279 22.7201 72.0919C21.2554 72.9559 20.038 74.9654 20.3448 77.0198L76.0253 76.303Z" fill="#EBEBEB"/>
<path d="M302.261 142.683C302.632 139.201 298.831 136.334 295.976 136.039C294.615 135.892 293.2 136.167 291.913 135.585C289.117 134.305 287.999 129.652 285.273 128.168C283.234 127.054 280.883 128.046 278.909 129.332C276.934 130.619 274.98 132.238 272.768 132.417C270.848 132.577 268.764 131.656 267.082 132.872C265.83 133.774 265.172 135.643 264.019 136.743C262.866 137.844 261.416 138.023 260.015 138.145C258.615 138.267 257.165 138.26 255.888 139.015C254.612 139.771 253.558 141.518 253.82 143.303L302.261 142.683Z" fill="#F5F5F5"/>
<path d="M208.764 33.3662C209.026 30.9087 206.344 28.8863 204.31 28.6751C203.345 28.5727 202.331 28.7647 201.44 28.3551C199.461 27.4655 198.679 24.1696 196.754 23.12C195.314 22.3328 193.656 23.0368 192.26 23.9392C190.865 24.8416 189.484 25.9935 187.926 26.1215C186.575 26.2367 185.1 25.584 183.912 26.4415C183.031 27.0815 182.566 28.3615 181.75 29.1743C180.902 29.8514 179.92 30.196 178.924 30.1663C177.932 30.1444 176.945 30.3614 176.015 30.8063C175.114 31.3374 174.367 32.5726 174.555 33.827L208.764 33.3662Z" fill="#F5F5F5"/>
<path d="M347 269.765C346.307 252.095 346.609 258.245 345.916 240.569L321.56 223.02L299.663 234.156L295.813 242.226C293.471 247.102 290.282 251.205 286.5 254.207C281.818 257.938 275.504 263.807 273.218 269.765H347Z" fill="#E0E0E0"/>
<path d="M4 226.623L29.0097 237.343L58.4582 269.746H4V226.623Z" fill="#E0E0E0"/>
<path d="M304.527 183.655L309.723 231.519L311.074 231.571C310.213 215.321 309.293 198.726 304.527 183.655Z" fill="#E0E0E0"/>
<path d="M318.957 181.447C315.33 186.567 313.87 193.664 312.95 200.525C311.643 210.253 311.524 221.74 311.915 231.603L313.816 231.66C313.062 214.653 314.807 197.614 318.957 181.447Z" fill="#E0E0E0"/>
<path d="M305.482 211.974C305.061 209.6 304.586 207.187 303.542 205.171C302.127 202.438 299.821 200.691 297.505 199.373C295.189 198.054 292.75 196.954 290.656 195.098C292.992 200.051 298.297 201.369 300.994 205.977C302.34 208.281 302.899 211.174 303.423 213.977C304.572 220.096 305.279 225.388 306.427 231.507H307.961C307.454 224.935 306.626 218.411 305.482 211.974Z" fill="#E0E0E0"/>
<path d="M315.201 231.571C315.201 231.571 316.502 212.563 317.467 209.075C318.432 205.587 327.552 195.942 327.463 196.397C327.374 196.851 320.624 207.398 319.66 209.555C318.695 211.712 317.027 231.571 317.027 231.571H315.201Z" fill="#E0E0E0"/>
<path d="M259.872 228.294C259.767 228.318 259.661 228.329 259.555 228.326L258.659 228.358L255.354 228.409L244.467 228.46L233.58 228.409L230.28 228.358L229.379 228.326C229.275 228.329 229.17 228.318 229.067 228.294C229.17 228.266 229.275 228.255 229.379 228.262H230.28L233.58 228.211L244.467 228.159L255.354 228.211L258.659 228.262H259.555C259.661 228.255 259.768 228.265 259.872 228.294Z" fill="#E0E0E0"/>
<path d="M278.562 237.766C278.881 238.061 279.151 238.436 279.355 238.87C279.559 239.303 279.693 239.785 279.75 240.287C279.859 241.295 279.788 242.322 279.542 243.289C278.999 245.205 278.082 246.907 276.88 248.229C275.826 246.533 275.89 244.012 275.964 242.732C276.108 240.71 277.305 237.17 278.562 237.766Z" fill="#5AAA3F"/>
<path d="M277.894 251.717C277.884 251.15 277.99 250.588 278.202 250.091C278.414 249.594 278.725 249.179 279.102 248.889C279.481 248.604 279.901 248.42 280.336 248.349C280.771 248.277 281.213 248.319 281.636 248.473C281.839 248.511 282.033 248.607 282.205 248.754C282.376 248.901 282.519 249.096 282.625 249.324C282.694 249.553 282.714 249.802 282.684 250.045C282.654 250.288 282.573 250.517 282.452 250.706C282.203 251.078 281.885 251.36 281.527 251.525C280.324 252.165 279.052 252.473 277.914 251.717" fill="#5AAA3F"/>
<path d="M275.484 257.228C275.507 257.095 275.54 256.967 275.583 256.844C275.658 256.575 275.757 256.204 275.88 255.813C276.183 254.662 276.627 253.581 277.197 252.613C277.784 251.649 278.559 250.905 279.443 250.457C279.711 250.326 279.99 250.238 280.275 250.194C280.373 250.194 280.453 250.194 280.507 250.194H280.586C280.206 250.268 279.832 250.395 279.473 250.572C278.612 251.034 277.857 251.774 277.281 252.722C276.721 253.685 276.273 254.748 275.95 255.877C275.816 256.306 275.702 256.652 275.623 256.888C275.582 257.005 275.535 257.118 275.484 257.228Z" fill="#5AAA3F"/>
<path d="M277.83 240.55C277.835 240.609 277.835 240.669 277.83 240.729C277.83 240.857 277.815 241.023 277.785 241.228C277.746 241.663 277.681 242.284 277.592 243.058C277.419 244.607 277.157 246.732 276.825 249.081C276.494 251.429 276.157 253.56 275.895 255.058C275.766 255.826 275.658 256.44 275.578 256.863C275.539 257.061 275.504 257.228 275.484 257.349C275.475 257.409 275.46 257.467 275.44 257.522C275.44 257.522 275.44 257.458 275.44 257.343C275.44 257.228 275.484 257.055 275.514 256.85L275.801 255.039C276.039 253.509 276.365 251.397 276.697 249.055C277.028 246.713 277.3 244.575 277.493 243.045C277.592 242.284 277.667 241.67 277.726 241.222C277.751 241.017 277.776 240.85 277.79 240.722C277.798 240.663 277.811 240.605 277.83 240.55Z" fill="#5AAA3F"/>
<path d="M275.573 252.389C275.583 251.193 275.372 250.01 274.958 248.939C274.544 247.869 273.939 246.941 273.193 246.233C272.812 245.874 272.288 245.593 271.892 245.906C271.496 246.22 271.471 246.969 271.56 247.564C271.764 248.807 272.249 249.945 272.954 250.83C273.659 251.716 274.552 252.31 275.519 252.537" fill="#5AAA3F"/>
<path d="M273.144 248.095C273.229 248.157 273.31 248.228 273.386 248.306C273.482 248.39 273.572 248.482 273.658 248.581C273.776 248.706 273.888 248.839 273.995 248.978C274.114 249.138 274.247 249.305 274.376 249.503C274.514 249.706 274.643 249.92 274.762 250.143C275.039 250.675 275.268 251.246 275.445 251.845C275.611 252.437 275.728 253.051 275.791 253.676C275.815 253.95 275.826 254.225 275.826 254.501C275.836 254.74 275.836 254.979 275.826 255.218C275.816 255.414 275.796 255.608 275.766 255.8C275.75 255.949 275.727 256.097 275.697 256.242C275.677 256.364 275.649 256.484 275.613 256.6C275.588 256.6 275.702 256.076 275.747 255.212C275.757 254.975 275.757 254.738 275.747 254.501C275.742 254.232 275.725 253.962 275.697 253.695C275.634 253.081 275.518 252.477 275.351 251.897C275.176 251.319 274.954 250.768 274.688 250.252C274.574 250.029 274.45 249.816 274.317 249.612C274.193 249.413 274.064 249.241 273.95 249.081C273.475 248.428 273.129 248.121 273.144 248.095Z" fill="#5AAA3F"/>
<path d="M47.0074 269.067L47.2152 269.035C46.7847 260.716 43.5533 251.794 41.2077 243.993C38.7978 235.961 36.5363 227.718 31.0485 222.841C36.9814 237.883 42.3081 253.313 47.0074 269.067Z" fill="#5AAA3F"/>
<path d="M50.8573 226.777C50.8573 226.777 50.8573 226.815 50.8573 226.886L50.7831 227.193L50.4762 228.383C50.4119 228.639 50.3377 228.927 50.2536 229.235L50.016 230.265C49.8478 231.001 49.635 231.839 49.4569 232.78C49.3628 233.247 49.2589 233.74 49.155 234.252C49.0511 234.764 48.967 235.302 48.868 235.858C48.6601 236.966 48.4919 238.162 48.3039 239.423C47.9674 241.983 47.6754 244.741 47.5022 247.692C47.329 250.642 47.3191 253.452 47.3636 256.012C47.4082 257.292 47.4329 258.508 47.5121 259.64C47.5467 260.21 47.5665 260.76 47.6111 261.285C47.6556 261.81 47.6952 262.322 47.7298 262.802C47.7991 263.768 47.908 264.632 47.9822 265.4L48.096 266.463C48.1406 266.789 48.1801 267.103 48.2148 267.352C48.2791 267.877 48.3286 268.293 48.3682 268.587L48.4028 268.907C48.4051 268.944 48.4051 268.98 48.4028 269.016C48.4028 269.016 47.9871 266.674 47.6259 262.815C47.5863 262.335 47.5418 261.829 47.4973 261.298C47.4527 260.767 47.428 260.223 47.3884 259.653C47.3043 258.514 47.2746 257.298 47.23 256.012C47.1756 253.452 47.2003 250.617 47.3587 247.66C47.517 244.703 47.8535 241.9 48.1752 239.378C48.3632 238.098 48.5364 236.914 48.7492 235.807C48.8531 235.25 48.9422 234.713 49.0461 234.201C49.15 233.689 49.254 233.196 49.3529 232.729C49.541 231.788 49.7587 230.956 49.9319 230.214L50.1843 229.19L50.4169 228.339C50.5554 227.839 50.6692 227.443 50.7435 227.167C50.7831 227.039 50.8127 226.937 50.8325 226.86L50.8573 226.777Z" fill="#5AAA3F"/>
<path d="M49.8888 222.17L47.6818 232.244C47.4598 233.257 47.915 234.312 48.6986 234.599L49.0271 234.719C49.8107 235.006 50.6259 234.418 50.8479 233.404L53.0549 223.331C53.277 222.317 52.8217 221.263 52.0382 220.976L51.7096 220.855C50.9261 220.568 50.1109 221.157 49.8888 222.17Z" fill="#5AAA3F"/>
<path d="M49.0314 234.726C49.0314 234.726 49.1204 234.758 49.2936 234.77C49.5452 234.797 49.7977 234.737 50.026 234.598C50.2052 234.493 50.3655 234.341 50.4967 234.151C50.628 233.962 50.7272 233.739 50.7881 233.497C50.9167 232.921 51.0553 232.249 51.2186 231.513C51.5353 230.035 51.9163 228.281 52.337 226.335C52.5448 225.363 52.7675 224.339 53.0001 223.283C53.0524 223.024 53.06 222.753 53.0224 222.49C52.9848 222.226 52.9028 221.977 52.7823 221.759C52.6603 221.535 52.4993 221.351 52.3122 221.222C52.1141 221.097 51.9046 221.004 51.6887 220.947C51.3843 220.841 51.0612 220.87 50.7713 221.03C50.4814 221.191 50.2416 221.472 50.0903 221.83C50.0006 222.075 49.9326 222.333 49.8874 222.598C49.6549 223.654 49.4272 224.678 49.2145 225.651C48.7839 227.571 48.393 229.337 48.0664 230.815C47.9823 231.18 47.9081 231.532 47.8338 231.865C47.749 232.165 47.699 232.48 47.6854 232.799C47.6888 233.054 47.7312 233.304 47.8102 233.537C47.8892 233.77 48.0032 233.981 48.1456 234.156C48.3317 234.375 48.5557 234.533 48.7988 234.617L48.9868 234.694L49.0512 234.726H48.9819L48.7889 234.662C48.5379 234.59 48.3049 234.438 48.1109 234.22C47.9593 234.041 47.8373 233.823 47.7523 233.581C47.6672 233.339 47.6209 233.078 47.6161 232.812C47.6288 232.483 47.6771 232.158 47.7596 231.846C47.8289 231.513 47.9031 231.161 47.9823 230.796C48.3039 229.318 48.685 227.596 49.1056 225.619C49.3134 224.646 49.5361 223.622 49.7687 222.566C49.815 222.287 49.8864 222.017 49.9815 221.759C50.0929 221.508 50.2448 221.289 50.4268 221.119C50.6159 220.94 50.834 220.819 51.0645 220.765C51.2951 220.71 51.5322 220.725 51.758 220.806C51.9815 220.874 52.1987 220.973 52.4062 221.1C52.6032 221.246 52.7723 221.447 52.9011 221.689C53.0332 221.928 53.123 222.201 53.164 222.49C53.2051 222.779 53.1964 223.076 53.1386 223.359C52.906 224.415 52.6784 225.439 52.4656 226.412L51.3176 231.577C51.1543 232.313 51.0108 232.972 50.8673 233.561C50.757 233.973 50.5416 234.324 50.2565 234.557C49.9714 234.789 49.6336 234.89 49.2986 234.841C49.2057 234.819 49.1157 234.78 49.0314 234.726Z" fill="#5AAA3F"/>
<path d="M48.393 269.035C48.1901 262.604 48.1851 255.525 51.0058 250.213C52.6042 247.212 55.0091 245.042 57.5823 243.551C60.1906 242.158 62.8923 241.079 65.6533 240.326C62.6001 245.855 55.6871 245.919 52.7872 251.564C51.9163 253.24 51.5105 255.231 51.1196 257.183C50.3031 261.215 49.5905 265.042 48.774 269.08" fill="#5AAA3F"/>
<path d="M26.5947 246.444H26.664H26.8619C27.0351 246.476 27.2925 246.501 27.6191 246.585C28.5444 246.787 29.456 247.082 30.3457 247.468C31.6693 248.039 32.9417 248.792 34.1412 249.714C34.8438 250.265 35.5213 250.867 36.1701 251.519C36.8703 252.229 37.5316 253.001 38.1495 253.829C38.763 254.654 39.3255 255.54 39.832 256.479C40.0893 256.92 40.3268 257.388 40.5346 257.829C40.7425 258.271 40.9602 258.732 41.1433 259.18C41.8168 260.758 42.3672 262.42 42.7862 264.139C43.0742 265.295 43.291 266.479 43.4345 267.679C43.4938 268.101 43.5087 268.434 43.5285 268.658V268.914C43.5285 268.971 43.5285 269.003 43.5285 269.003V268.92C43.5285 268.85 43.5285 268.767 43.4988 268.664C43.4641 268.44 43.4444 268.107 43.3751 267.691C43.2124 266.5 42.9825 265.326 42.6872 264.178C42.2597 262.472 41.7045 260.823 41.0295 259.256C40.8464 258.808 40.6287 258.373 40.4208 257.919C40.213 257.464 39.9755 257.016 39.7231 256.575C39.2153 255.647 38.6546 254.77 38.0455 253.951C37.4407 253.13 36.7925 252.365 36.1057 251.66C35.4611 251.01 34.7887 250.407 34.0917 249.855C32.1 248.3 29.9098 247.216 27.624 246.655C27.2974 246.559 27.045 246.527 26.8718 246.482L26.6739 246.437L26.5947 246.444Z" fill="#5AAA3F"/>
<path d="M21.6889 242.318L21.5409 242.716C21.188 243.665 21.4969 244.804 22.2308 245.261L29.527 249.798C30.2609 250.255 31.1421 249.855 31.495 248.906L31.643 248.508C31.9959 247.559 31.687 246.419 30.953 245.963L23.6569 241.425C22.9229 240.969 22.0418 241.368 21.6889 242.318Z" fill="#5AAA3F"/>
<path d="M31.6471 248.505C31.6471 248.505 31.6867 248.396 31.7263 248.178C31.8022 247.776 31.7729 247.352 31.6431 246.974C31.5133 246.595 31.2903 246.283 31.0088 246.085C30.5931 245.817 30.1032 245.529 29.5737 245.196L25.8425 242.885L23.6256 241.516C23.4382 241.402 23.2338 241.343 23.0268 241.343C22.8199 241.343 22.6155 241.402 22.4281 241.516C22.236 241.637 22.0671 241.812 21.9332 242.028C21.8072 242.26 21.701 242.509 21.6165 242.77C21.5236 243.019 21.4754 243.291 21.4754 243.567C21.4754 243.843 21.5236 244.115 21.6165 244.364C21.7084 244.61 21.84 244.829 22.0025 245.004C22.1743 245.163 22.3604 245.294 22.5567 245.394L24.7588 246.725L28.4999 249.074L29.257 249.548C29.4716 249.708 29.7034 249.827 29.9448 249.9C30.1395 249.939 30.3382 249.927 30.5294 249.865C30.7206 249.804 30.9003 249.694 31.0583 249.541C31.2557 249.343 31.4136 249.086 31.5185 248.793L31.6125 248.562C31.6224 248.535 31.634 248.51 31.6471 248.485C31.6503 248.513 31.6503 248.541 31.6471 248.569L31.5679 248.805C31.4694 249.115 31.313 249.387 31.1127 249.599C30.9507 249.763 30.7644 249.884 30.5653 249.952C30.3662 250.02 30.1585 250.035 29.9547 249.996C29.7052 249.927 29.465 249.811 29.2422 249.65L28.4801 249.183L24.7291 246.873C24.0264 246.431 23.2842 245.977 22.5171 245.503C22.3137 245.394 22.121 245.255 21.9431 245.087C21.7634 244.904 21.6165 244.672 21.5126 244.409C21.4099 244.137 21.3564 243.838 21.3564 243.535C21.3564 243.232 21.4099 242.934 21.5126 242.661C21.5988 242.387 21.7101 242.127 21.8442 241.887C22.0575 241.536 22.3566 241.288 22.6927 241.185C23.0288 241.081 23.382 241.128 23.6949 241.318L25.9019 242.694L29.643 245.042C30.1725 245.375 30.6327 245.682 31.078 245.951C31.2561 246.086 31.4106 246.267 31.5315 246.483C31.6525 246.698 31.7374 246.945 31.7807 247.205C31.8512 247.528 31.8512 247.869 31.7807 248.191C31.7498 248.304 31.7047 248.41 31.6471 248.505Z" fill="#5AAA3F"/>
<path d="M314.934 99.4897C315.418 99.3261 315.92 99.2698 316.418 99.3233C316.917 99.2713 317.418 99.3276 317.903 99.4897C317.418 99.6519 316.917 99.7081 316.418 99.6561C315.92 99.7096 315.418 99.6534 314.934 99.4897Z" fill="#263238"/>
<path d="M303.067 99.4898C305.043 99.2675 307.03 99.2675 309.005 99.4898C307.03 99.712 305.043 99.712 303.067 99.4898Z" fill="#263238"/>
<path d="M291.206 99.4897C293.181 99.2671 295.168 99.2671 297.144 99.4897C295.168 99.7123 293.181 99.7123 291.206 99.4897Z" fill="#263238"/>
<path d="M279.339 99.4898C281.315 99.2675 283.302 99.2675 285.277 99.4898C283.302 99.712 281.315 99.712 279.339 99.4898Z" fill="#263238"/>
<path d="M267.478 99.4897C269.453 99.2671 271.44 99.2671 273.416 99.4897C271.44 99.7123 269.453 99.7123 267.478 99.4897Z" fill="#263238"/>
<path d="M255.621 99.1506C256.611 99.1143 257.603 99.1485 258.59 99.253C259.583 99.2452 260.575 99.3243 261.559 99.4898C260.575 99.6573 259.58 99.6894 258.59 99.5858C257.591 99.5956 256.594 99.4494 255.621 99.1506Z" fill="#263238"/>
<path d="M245.13 92.9427C245.194 92.8723 246.016 94.2227 247.337 95.4579C248.658 96.693 249.891 97.333 249.856 97.4354C249.565 97.3808 249.284 97.2617 249.025 97.0834C248.375 96.718 247.758 96.2631 247.184 95.7267C246.347 95.0089 245.645 94.0576 245.13 92.9427Z" fill="#263238"/>
<path d="M241.889 78.4406C241.953 78.4406 242.038 80.1493 242.24 82.2421C242.443 84.3348 242.735 86.0116 242.646 86.0372C242.283 84.8364 242.059 83.5725 241.983 82.2869C241.813 81.0167 241.781 79.7221 241.889 78.4406Z" fill="#263238"/>
<path d="M237.569 64.4696C238.306 65.3403 238.932 66.3553 239.425 67.4775C239.986 68.5472 240.406 69.7303 240.667 70.9783C240.598 71.0167 240.068 69.4423 239.207 67.6503C238.346 65.8584 237.51 64.5336 237.569 64.4696Z" fill="#263238"/>
<path d="M227.83 56.041C228.81 56.2769 229.754 56.7087 230.631 57.3209C231.545 57.8387 232.393 58.5336 233.145 59.3817C233.105 59.4649 231.987 58.5433 230.522 57.6217C229.057 56.7001 227.805 56.1306 227.83 56.041Z" fill="#263238"/>
<path d="M216.093 55.4522C217.033 55.0225 218.02 54.7829 219.017 54.7418C219.719 54.6858 220.423 54.6858 221.125 54.7418C221.416 54.7279 221.708 54.7645 221.991 54.8506C221.71 54.9547 221.417 54.998 221.125 54.9786C220.586 54.9786 219.848 55.0234 219.037 55.1066C217.414 55.2282 216.107 55.5482 216.093 55.4522Z" fill="#263238"/>
<path d="M205.785 62.6264C206.394 61.6017 207.128 60.7113 207.957 59.9897C208.734 59.1762 209.606 58.5281 210.54 58.0697C210.575 58.1593 209.417 58.9977 208.111 60.2521C206.804 61.5065 205.839 62.6968 205.785 62.6264Z" fill="#263238"/>
<path d="M200.604 76.1238C200.68 73.5349 201.271 71.0152 202.321 68.8087C202.39 68.8535 201.826 70.3959 201.331 72.4183C200.836 74.4406 200.683 76.1366 200.604 76.1238Z" fill="#263238"/>
<path d="M200.331 91.4579C200.219 90.1834 200.191 88.8987 200.247 87.618C200.218 86.3339 200.275 85.0489 200.421 83.778C200.533 85.0526 200.561 86.3372 200.505 87.618C200.534 88.902 200.477 90.187 200.331 91.4579Z" fill="#263238"/>
<path d="M200.163 106.798C200.047 105.524 200.017 104.239 200.074 102.958C200.047 101.674 200.105 100.39 200.247 99.1186C200.364 100.393 200.393 101.678 200.336 102.958C200.363 104.243 200.305 105.527 200.163 106.798Z" fill="#263238"/>
<path d="M199.99 122.139C199.877 120.864 199.849 119.58 199.906 118.299C199.876 117.015 199.934 115.73 200.079 114.459C200.192 115.734 200.22 117.018 200.163 118.299C200.193 119.583 200.135 120.868 199.99 122.139Z" fill="#263238"/>
<path d="M196.719 136.603C196.655 136.545 197.402 135.124 198.115 133.23C198.827 131.336 199.218 129.704 199.292 129.729C199.138 131.006 198.817 132.24 198.342 133.377C197.944 134.561 197.395 135.652 196.719 136.603Z" fill="#263238"/>
<path d="M187.416 145.761C187.391 145.671 188.624 145.031 190.049 144.014C191.474 142.996 192.553 141.998 192.597 142.094C191.885 142.997 191.067 143.749 190.172 144.321C189.317 144.984 188.387 145.47 187.416 145.761Z" fill="#263238"/>
<path d="M175.718 147.527C176.703 147.374 177.695 147.321 178.687 147.367H179.84H180.78C181.071 147.336 181.365 147.359 181.651 147.438C181.37 147.55 181.078 147.606 180.785 147.604L179.84 147.694C179.488 147.694 179.097 147.694 178.687 147.694C177.695 147.76 176.701 147.704 175.718 147.527Z" fill="#263238"/>
<path d="M164.51 143.124C164.554 143.041 165.677 143.95 167.157 144.826C168.637 145.703 169.893 146.247 169.874 146.343C168.888 146.132 167.935 145.722 167.048 145.127C166.127 144.633 165.271 143.957 164.51 143.124Z" fill="#263238"/>
<path d="M157.111 131.444C157.186 131.412 157.68 133.006 158.507 134.817C159.333 136.628 160.155 137.972 160.095 138.017C159.366 137.135 158.755 136.103 158.284 134.964C157.745 133.883 157.349 132.693 157.111 131.444Z" fill="#263238"/>
<path d="M155.988 116.277C156.116 117.55 156.159 118.834 156.117 120.117C156.158 121.399 156.115 122.684 155.988 123.956C155.858 122.684 155.815 121.399 155.859 120.117C155.815 118.834 155.858 117.549 155.988 116.277Z" fill="#263238"/>
<path d="M155.988 100.936C156.116 102.209 156.159 103.494 156.117 104.776C156.159 106.058 156.116 107.343 155.988 108.616C155.858 107.343 155.815 106.058 155.859 104.776C155.815 103.494 155.858 102.209 155.988 100.936Z" fill="#263238"/>
<path d="M155.988 85.5892C156.115 86.8621 156.158 88.1468 156.117 89.4291C156.159 90.7115 156.116 91.9962 155.988 93.2691C155.858 91.9965 155.815 90.7115 155.859 89.4291C155.815 88.1468 155.858 86.8618 155.988 85.5892Z" fill="#263238"/>
<path d="M155.988 70.2487C156.116 71.5216 156.159 72.8063 156.117 74.0886C156.158 75.371 156.115 76.6556 155.988 77.9286C155.858 76.656 155.815 75.371 155.859 74.0886C155.815 72.8063 155.858 71.5213 155.988 70.2487Z" fill="#263238"/>
<path d="M155.988 54.9018C156.066 55.2685 156.105 55.6477 156.102 56.0282C156.127 56.7193 156.141 57.6793 156.141 58.7417C156.183 60.0241 156.14 61.3088 156.013 62.5816C155.882 61.3091 155.839 60.0241 155.884 58.7417C155.884 57.6793 155.884 56.7193 155.919 56.0282C155.9 55.6503 155.923 55.271 155.988 54.9018Z" fill="#263238"/>
<path d="M151.485 41.0012C152.235 41.8542 152.874 42.8593 153.375 43.9772C153.943 45.0408 154.37 46.2197 154.637 47.4651C154.563 47.5035 154.028 45.9291 153.153 44.1564C152.277 42.3836 151.425 41.0652 151.485 41.0012Z" fill="#263238"/>
<path d="M141.519 33.0718C143.488 33.5323 145.349 34.5676 146.962 36.0989C146.923 36.1821 145.774 35.3181 144.28 34.4926C142.786 33.667 141.499 33.1678 141.519 33.0718Z" fill="#263238"/>
<path d="M129.761 32.5726C130.708 32.167 131.698 31.9512 132.695 31.9326C133.522 31.875 134.264 31.9326 134.804 31.9326C135.095 31.9179 135.387 31.9589 135.669 32.0542C135.387 32.1488 135.095 32.1876 134.804 32.1694C134.264 32.2078 133.522 32.1694 132.71 32.259C131.067 32.3934 129.761 32.6686 129.761 32.5726Z" fill="#263238"/>
<path d="M119.295 39.4013C120.624 37.4721 122.283 35.971 124.14 35.0173C124.174 35.1069 123.002 35.9069 121.665 37.1165C120.329 38.3261 119.369 39.4717 119.295 39.4013Z" fill="#263238"/>
<path d="M113.807 52.6938C113.834 51.4014 114.032 50.1244 114.391 48.9179C114.671 47.6778 115.112 46.5089 115.697 45.462C115.767 45.5068 115.153 47.0299 114.634 49.0267C114.114 51.0235 113.881 52.7066 113.807 52.6938Z" fill="#263238"/>
<path d="M113.604 68.0215C113.474 66.749 113.431 65.464 113.476 64.1816C113.431 62.8992 113.474 61.6142 113.604 60.3417C113.732 61.6146 113.775 62.8992 113.733 64.1816C113.775 65.464 113.732 66.7487 113.604 68.0215Z" fill="#263238"/>
<path d="M113.604 83.3684C113.474 82.0959 113.431 80.8109 113.476 79.5285C113.431 78.2461 113.474 76.9612 113.604 75.6886C113.731 76.9615 113.774 78.2461 113.733 79.5285C113.775 80.8109 113.732 82.0955 113.604 83.3684Z" fill="#263238"/>
<path d="M113.302 98.6898C113.228 98.6898 113.451 96.9746 113.471 94.8498C113.429 93.5673 113.473 92.2824 113.604 91.0099C113.732 92.2828 113.773 93.5677 113.728 94.8498C113.758 96.152 113.614 97.4511 113.302 98.6898Z" fill="#263238"/>
<path d="M107.493 111.752C107.443 111.675 108.418 110.51 109.472 108.878C110.526 107.246 111.194 105.787 111.264 105.838C110.398 108.178 109.104 110.208 107.493 111.752Z" fill="#263238"/>
<path d="M96.8931 118.197C96.8931 118.101 98.1846 117.793 99.7434 117.173C101.302 116.552 102.515 115.893 102.549 115.957C101.705 116.647 100.784 117.165 99.8176 117.493C98.8771 117.923 97.8903 118.161 96.8931 118.197Z" fill="#263238"/>
<path d="M85.0415 118.728C86.0248 118.548 87.0179 118.476 88.0106 118.51C89.001 118.433 89.9947 118.472 90.9797 118.625C89.9964 118.805 89.0033 118.878 88.0106 118.843C87.0202 118.92 86.0265 118.881 85.0415 118.728Z" fill="#263238"/>
<path d="M73.1799 118.926C74.1629 118.743 75.1563 118.67 76.149 118.709C77.1393 118.635 78.1326 118.672 79.1181 118.817C78.1355 119.005 77.1419 119.08 76.149 119.041C75.1586 119.111 74.1654 119.072 73.1799 118.926Z" fill="#263238"/>
<path d="M61.3186 119.144C62.3013 118.956 63.2948 118.881 64.2877 118.92C65.2781 118.847 66.2715 118.885 67.2568 119.035C66.2738 119.218 65.2804 119.291 64.2877 119.253C63.2974 119.326 62.3041 119.289 61.3186 119.144Z" fill="#263238"/>
<path d="M49.4569 119.368C50.4399 119.184 51.4333 119.112 52.426 119.15C53.4163 119.076 54.4096 119.113 55.3951 119.259C54.4125 119.447 53.4189 119.522 52.426 119.483C51.4356 119.556 50.4421 119.518 49.4569 119.368Z" fill="#263238"/>
<path d="M40.5198 119.515C41.0032 119.347 41.5047 119.282 42.0043 119.323C42.5018 119.262 43.0036 119.309 43.4889 119.464C43.0059 119.635 42.504 119.7 42.0043 119.656C41.5069 119.724 41.0041 119.676 40.5198 119.515Z" fill="#263238"/>
<path d="M139.213 22.5312C139.214 21.829 139.09 21.136 138.85 20.506C138.61 19.8761 138.261 19.3262 137.83 18.8993C137.399 18.4723 136.897 18.1797 136.365 18.0444C135.832 17.909 135.282 17.9345 134.758 18.1188C134.234 18.3031 133.75 18.6413 133.344 19.1071C132.938 19.5728 132.62 20.1536 132.416 20.8041C132.211 21.4546 132.126 22.1574 132.166 22.8577C132.206 23.5579 132.37 24.2369 132.646 24.8415C132.785 25.1359 132.953 25.3471 133.141 25.6607L135.204 29.1807C135.264 29.2815 135.341 29.3632 135.429 29.4195C135.517 29.4757 135.613 29.505 135.712 29.505C135.81 29.505 135.907 29.4757 135.995 29.4195C136.082 29.3632 136.159 29.2815 136.219 29.1807L138.233 25.7311C138.409 25.4497 138.574 25.1571 138.728 24.8543C139.047 24.1501 139.215 23.3478 139.213 22.5312ZM135.699 24.5215C135.392 24.5215 135.092 24.4037 134.836 24.1829C134.58 23.9621 134.381 23.6482 134.264 23.281C134.146 22.9138 134.115 22.5097 134.175 22.1199C134.235 21.7301 134.383 21.372 134.601 21.091C134.818 20.81 135.095 20.6186 135.396 20.541C135.698 20.4635 136.01 20.5033 136.294 20.6554C136.578 20.8075 136.82 21.0651 136.991 21.3955C137.162 21.726 137.253 22.1145 137.253 22.512C137.253 23.0449 137.089 23.5561 136.798 23.933C136.507 24.3098 136.111 24.5215 135.699 24.5215Z" fill="#21C124"/>
<path d="M272.98 90.0883C272.981 89.3869 272.856 88.6947 272.617 88.0655C272.377 87.4364 272.028 86.8873 271.597 86.4607C271.167 86.0342 270.666 85.7419 270.134 85.6064C269.602 85.4708 269.052 85.4958 268.529 85.6793C268.005 85.8629 267.522 86.2 267.115 86.6646C266.709 87.1291 266.391 87.7086 266.186 88.358C265.981 89.0074 265.894 89.7092 265.933 90.4088C265.971 91.1085 266.134 91.7872 266.409 92.3923C266.542 92.6867 266.711 92.8979 266.904 93.2051L268.952 96.7122C269.012 96.8083 269.087 96.8858 269.173 96.9391C269.258 96.9924 269.352 97.02 269.447 97.02C269.542 97.02 269.636 96.9924 269.722 96.9391C269.807 96.8858 269.883 96.8083 269.942 96.7122L271.956 93.2627C272.132 92.9813 272.297 92.6887 272.451 92.3859C272.783 91.6949 272.966 90.9016 272.98 90.0883ZM269.452 92.0723C269.145 92.0736 268.844 91.9568 268.587 91.7367C268.331 91.5167 268.131 91.2033 268.013 90.8362C267.895 90.4691 267.863 90.0649 267.923 89.6746C267.982 89.2844 268.13 88.9257 268.347 88.644C268.564 88.3623 268.841 88.1703 269.142 88.0923C269.444 88.0142 269.756 88.0536 270.041 88.2055C270.325 88.3574 270.568 88.615 270.739 88.9456C270.91 89.2762 271.001 89.665 271.001 90.0627C271.002 90.3263 270.962 90.5875 270.885 90.8313C270.807 91.075 270.693 91.2966 270.549 91.4833C270.405 91.67 270.234 91.8181 270.046 91.9192C269.858 92.0203 269.656 92.0723 269.452 92.0723Z" fill="#21C124"/>
<path d="M223.402 44.9052C223.403 44.2027 223.28 43.5092 223.04 42.8787C222.801 42.2481 222.452 41.6975 222.022 41.2698C221.591 40.8421 221.089 40.5488 220.556 40.4128C220.024 40.2767 219.474 40.3017 218.949 40.4856C218.425 40.6695 217.941 41.0075 217.534 41.4731C217.128 41.9388 216.81 42.5196 216.605 43.1702C216.4 43.8209 216.315 44.5239 216.354 45.2245C216.394 45.925 216.559 46.6042 216.835 47.2091C216.968 47.5035 217.137 47.7147 217.33 48.0283L219.378 51.5355C219.438 51.6363 219.515 51.718 219.603 51.7743C219.691 51.8305 219.787 51.8598 219.886 51.8598C219.984 51.8598 220.081 51.8305 220.169 51.7743C220.256 51.718 220.333 51.6363 220.393 51.5355L222.407 48.0859C222.583 47.8045 222.748 47.5119 222.902 47.2091C223.224 46.5126 223.397 45.7171 223.402 44.9052ZM219.878 46.8891C219.571 46.8904 219.27 46.7736 219.014 46.5536C218.757 46.3335 218.557 46.0201 218.439 45.653C218.321 45.286 218.289 44.8817 218.349 44.4915C218.408 44.1012 218.556 43.7426 218.773 43.4609C218.99 43.1792 219.267 42.9872 219.568 42.9091C219.87 42.831 220.182 42.8705 220.467 43.0224C220.751 43.1743 220.994 43.4319 221.165 43.7625C221.336 44.0931 221.427 44.4819 221.427 44.8796C221.427 45.4114 221.264 45.9216 220.974 46.2983C220.683 46.675 220.289 46.8874 219.878 46.8891Z" fill="#455A64"/>
<path d="M77.9899 105.64C77.9942 104.77 77.843 103.911 77.548 103.13C77.253 102.349 76.8222 101.666 76.2894 101.136C75.7566 100.605 75.1362 100.242 74.4766 100.073C73.8171 99.904 73.1362 99.9348 72.4874 100.163C71.8386 100.391 71.2393 100.81 70.7364 101.387C70.2336 101.964 69.8408 102.684 69.5887 103.49C69.3366 104.296 69.2322 105.167 69.2834 106.034C69.3347 106.901 69.5404 107.741 69.8843 108.488C70.0671 108.836 70.2636 109.171 70.4731 109.493L73.0018 113.832C73.0745 113.959 73.1693 114.062 73.2784 114.133C73.3875 114.204 73.5081 114.241 73.6303 114.241C73.7525 114.241 73.873 114.204 73.9822 114.133C74.0913 114.062 74.186 113.959 74.2587 113.832L76.733 109.57C76.9601 109.223 77.1716 108.86 77.3664 108.482C77.7667 107.623 77.982 106.642 77.9899 105.64ZM73.6253 108.098C73.2456 108.098 72.8744 107.952 72.5586 107.679C72.2429 107.406 71.9968 107.018 71.8515 106.565C71.7061 106.111 71.6681 105.612 71.7422 105.13C71.8163 104.648 71.9992 104.206 72.2677 103.859C72.5362 103.511 72.8783 103.275 73.2508 103.179C73.6232 103.083 74.0093 103.132 74.3601 103.32C74.7109 103.508 75.0108 103.826 75.2218 104.235C75.4327 104.643 75.5454 105.123 75.5454 105.614C75.5454 106.273 75.3431 106.905 74.983 107.37C74.6229 107.836 74.1346 108.098 73.6253 108.098Z" fill="#455A64"/>
<path d="M156.978 88.0787C154.269 87.8901 151.569 88.618 149.144 90.1907C146.556 91.7523 144.112 94.0626 142.825 97.3586C141.538 100.655 141.682 105.038 143.711 107.65C139.811 108.987 136.877 113.473 135.65 118.44C134.423 123.406 134.685 128.808 135.462 133.927C135.833 136.347 136.491 139.047 138.218 140.084C139.327 140.724 140.692 140.596 141.731 141.422C142.771 142.247 143.246 143.758 143.904 145.044C144.533 146.275 145.348 147.327 146.301 148.138C147.254 148.948 148.325 149.499 149.448 149.758C150.571 150.016 151.722 149.977 152.833 149.642C153.944 149.307 154.99 148.683 155.909 147.809L163.906 92.8467C162.337 90.0051 159.665 88.3731 156.978 88.0787Z" fill="#455A64"/>
<path d="M162.352 93.9987C162.186 94.3027 162.003 94.5894 161.802 94.8562C161.431 95.3938 160.892 96.1362 160.209 97.0962C158.457 99.5731 156.491 101.783 154.35 103.682C152.189 105.586 149.716 106.817 147.125 107.278C146.342 107.405 145.551 107.426 144.765 107.342C144.488 107.342 144.27 107.266 144.126 107.24C144.052 107.233 143.978 107.211 143.909 107.176C143.909 107.176 144.22 107.176 144.77 107.214C145.549 107.248 146.329 107.192 147.1 107.048C149.647 106.523 152.073 105.28 154.207 103.406C156.328 101.523 158.296 99.3658 160.08 96.9682L161.728 94.7986C161.919 94.5107 162.128 94.2432 162.352 93.9987Z" fill="#263238"/>
<path d="M146.764 110.466C146.734 110.466 146.606 110.21 146.497 109.723C146.37 109.075 146.344 108.4 146.423 107.739C146.504 107.079 146.689 106.447 146.967 105.883C147.185 105.454 147.373 105.243 147.397 105.243C147.069 106.034 146.827 106.881 146.68 107.758C146.608 108.661 146.636 109.573 146.764 110.466Z" fill="#263238"/>
<path d="M149.456 112.507C149.502 112.601 149.538 112.702 149.565 112.808C149.629 113.006 149.728 113.301 149.832 113.697C150.139 114.798 150.392 115.922 150.589 117.064C151.282 120.851 151.282 124.796 150.589 128.584C149.856 132.374 148.25 135.787 145.982 138.369C145.297 139.14 144.544 139.806 143.741 140.353C143.463 140.558 143.246 140.667 143.077 140.763C143 140.811 142.918 140.849 142.835 140.878C143.113 140.644 143.4 140.431 143.696 140.238C144.47 139.654 145.196 138.97 145.863 138.196C148.057 135.6 149.614 132.229 150.342 128.5C151.026 124.765 151.055 120.879 150.426 117.128C150.198 115.681 149.931 114.568 149.758 113.749C149.637 113.344 149.536 112.929 149.456 112.507Z" fill="#263238"/>
<path d="M150.832 121.166C150.626 121.137 150.424 121.079 150.228 120.993C149.842 120.859 149.283 120.68 148.59 120.469C144.985 119.374 141.278 118.943 137.58 119.189C136.872 119.233 136.298 119.285 135.902 119.329C135.697 119.36 135.489 119.36 135.283 119.329C135.481 119.246 135.685 119.193 135.892 119.169C136.283 119.086 136.857 119.003 137.57 118.926C141.287 118.543 145.028 118.976 148.634 120.206C149.327 120.443 149.877 120.661 150.253 120.846C150.455 120.92 150.65 121.028 150.832 121.166Z" fill="#263238"/>
<g opacity="0.3">
<path opacity="0.3" d="M144.255 107.208C146.947 109.448 150.579 109.192 153.43 107.304C156.28 105.416 158.378 101.915 159.482 98.0306C155.756 103.598 150.223 107.637 144.255 107.208Z" fill="black"/>
</g>
<g opacity="0.3">
<path opacity="0.3" d="M142.815 140.865C143.934 140.763 145.021 140.344 146 139.636C146.978 138.927 147.824 137.949 148.476 136.769C149.646 134.371 150.356 131.646 150.545 128.82C149.827 131.237 148.918 133.551 147.833 135.726C147.206 136.752 146.491 137.682 145.7 138.497C144.815 139.435 143.844 140.23 142.81 140.865" fill="black"/>
</g>
<path d="M145.596 119.515C145.777 120.044 145.896 120.605 145.948 121.179C146.032 121.704 146.126 122.312 146.269 122.99C146.356 123.375 146.356 123.783 146.269 124.168C146.221 124.393 146.117 124.592 145.973 124.734C145.829 124.876 145.653 124.954 145.473 124.955C145.296 124.923 145.129 124.826 144.994 124.675C144.859 124.524 144.76 124.326 144.71 124.104C144.626 123.721 144.626 123.315 144.71 122.933C144.854 122.235 145.007 121.653 145.131 121.134C145.242 120.577 145.392 120.035 145.581 119.515C145.532 120.089 145.439 120.654 145.304 121.205C145.195 121.749 145.072 122.35 144.943 122.996C144.874 123.325 144.874 123.672 144.943 124.001C144.978 124.162 145.047 124.308 145.142 124.421C145.237 124.534 145.355 124.61 145.482 124.641C145.608 124.637 145.729 124.579 145.827 124.477C145.926 124.376 145.996 124.236 146.027 124.078C146.094 123.751 146.094 123.407 146.027 123.08C145.909 122.475 145.818 121.861 145.755 121.243C145.675 120.168 145.596 119.528 145.596 119.515Z" fill="#263238"/>
<path d="M157.309 98.9458C156.763 98.5919 156.234 98.1943 155.726 97.7554C154.478 96.7504 153.184 95.8442 151.851 95.0418C150.522 94.2436 149.12 93.6632 147.68 93.3139C146.571 93.0515 145.868 93.0451 145.868 92.9875C146.031 92.946 146.198 92.9331 146.363 92.9491C146.812 92.9517 147.26 92.9945 147.704 93.0771C149.177 93.3642 150.61 93.9224 151.96 94.7346C153.305 95.5394 154.597 96.4833 155.825 97.557C156.295 97.9602 156.671 98.2994 156.928 98.5426C157.068 98.6559 157.196 98.7914 157.309 98.9458Z" fill="#263238"/>
<path d="M156.567 98.5169C156.597 98.5169 156.621 98.7345 156.483 99.0097C156.389 99.191 156.256 99.3326 156.1 99.4168C155.944 99.501 155.773 99.5241 155.607 99.4833L155.444 99.4449L155.518 99.2465C155.661 98.8755 155.912 98.5926 156.216 98.4594C156.443 98.3634 156.592 98.4018 156.597 98.4594C156.602 98.517 156.468 98.5617 156.29 98.6961C156.059 98.8605 155.871 99.11 155.751 99.4129L155.666 99.1761C155.79 99.2025 155.917 99.1895 156.036 99.1382C156.155 99.0869 156.263 98.9989 156.349 98.8817C156.483 98.6833 156.527 98.5105 156.567 98.5169Z" fill="#263238"/>
<path d="M198.367 97.2882C198.367 97.2882 196.388 93.9219 196.388 92.5587L197.209 84.6356C197.209 84.6356 197.565 83.8356 198.12 85.1604C198.614 86.3764 198.337 88.258 198.337 88.258L198.684 90.1203L199.431 88.7124L200.272 83.4197C200.272 83.4197 200.807 79.5797 201.262 79.9957C201.717 80.4117 201.856 81.5061 201.623 83.1573C201.39 84.8084 201.094 86.9012 201.094 86.9012C201.094 86.9012 201.034 87.5412 201.509 86.4596C201.984 85.378 202.499 80.7445 202.692 80.1237C202.885 79.5029 202.944 77.8518 203.682 77.9414C204.419 78.031 203.988 80.1365 203.988 80.1365L203.286 86.9588C203.286 86.9588 203.969 84.2132 204.097 83.7588C204.226 83.3045 204.429 81.7941 204.676 80.9749C204.924 80.1557 205.29 79.7333 205.612 79.7845C205.766 79.796 205.91 79.8833 206.016 80.0285C206.122 80.1737 206.181 80.3658 206.181 80.5653L205.102 86.402C205.102 86.402 204.503 89.058 204.543 89.2307C204.582 89.4035 205.339 88.1236 205.339 88.1236L205.923 86.2036C205.923 86.2036 206.418 83.522 206.963 83.4453C207.507 83.3685 207.537 83.9124 207.537 83.9124L206.621 88.8147L204.944 94.4082L203.355 98.613C203.355 98.613 201.138 98.165 201.054 98.3122C200.97 98.4594 198.367 97.2882 198.367 97.2882Z" fill="#FFBE9D"/>
<path d="M202.296 94.9266C202.119 94.5334 201.967 94.1225 201.841 93.6978C201.533 92.7023 200.946 91.8934 200.198 91.4323C199.831 91.2252 199.422 91.1846 199.035 91.3171L198.906 91.3619L198.877 91.1827C198.733 90.3699 198.535 89.6211 198.446 89.1091C198.365 88.8383 198.329 88.548 198.342 88.2579C198.445 88.5088 198.528 88.7725 198.59 89.0451C198.795 89.7305 198.974 90.429 199.124 91.1379L198.961 91.0035C199.402 90.8359 199.874 90.8722 200.297 91.1059C200.754 91.3529 201.152 91.7527 201.45 92.2643C201.681 92.675 201.871 93.1224 202.014 93.5954C202.167 94.0149 202.262 94.4652 202.296 94.9266Z" fill="#EB996E"/>
<path d="M181.225 93.4547L192.186 114.645L197.135 96.1746L203.875 98.3186C203.875 98.3186 201.123 123.15 200.074 125.614C199.025 128.078 195.734 131.636 191.662 130.92C187.589 130.203 179.479 116.078 179.479 116.078L181.225 93.4547Z" fill="#21C124"/>
<path d="M193.537 123.15C193.784 120.052 193.264 116.933 192.053 114.241C192.311 114.561 192.522 114.938 192.676 115.355C193.107 116.326 193.417 117.377 193.597 118.472C193.783 119.564 193.84 120.686 193.765 121.8C193.751 122.264 193.674 122.721 193.537 123.15Z" fill="#263238"/>
<g opacity="0.3">
<path opacity="0.3" d="M182.052 120.584C182.41 120.338 182.718 119.986 182.95 119.557C183.182 119.127 183.333 118.633 183.388 118.113C183.494 117.076 183.469 116.023 183.314 114.997C182.873 110.818 182.255 106.466 181.829 102.287L182.002 120.149" fill="black"/>
</g>
<g opacity="0.3">
<path opacity="0.3" d="M193.651 122.12C193.868 122.068 194.073 121.947 194.245 121.769C194.418 121.59 194.554 121.359 194.641 121.096C194.812 120.562 194.872 119.979 194.814 119.406C194.736 118.327 194.447 117.291 193.974 116.395C193.502 115.499 192.861 114.774 192.112 114.286C193.191 116.649 193.721 119.365 193.636 122.107" fill="black"/>
</g>
<path d="M193.824 231.513L200.089 249.957L218.003 240.204C217.176 238.054 205.745 239.148 205.745 239.148L201.786 226.623L193.824 231.513Z" fill="#21C124"/>
<g opacity="0.6">
<path opacity="0.6" d="M200.594 240.678C200.444 240.84 200.346 241.068 200.317 241.318C200.289 241.568 200.333 241.823 200.44 242.034C200.561 242.233 200.735 242.365 200.929 242.403C201.122 242.441 201.319 242.383 201.48 242.239C201.638 242.067 201.741 241.825 201.769 241.56C201.797 241.296 201.749 241.027 201.633 240.806C201.492 240.615 201.3 240.502 201.096 240.49C200.892 240.478 200.693 240.568 200.539 240.742" fill="white"/>
</g>
<g opacity="0.6">
<path opacity="0.6" d="M200.089 249.957L199.525 248.037L216.909 239.398C216.909 239.398 217.854 239.398 218.003 240.185L200.089 249.957Z" fill="white"/>
</g>
<path d="M206.082 239.206C206.116 239.321 205.696 239.615 205.384 240.21C205.072 240.805 204.998 241.407 204.889 241.407C204.78 241.407 204.711 240.684 205.102 239.967C205.493 239.25 206.067 239.097 206.082 239.206Z" fill="#263238"/>
<path d="M208.769 238.982C208.828 239.078 208.511 239.474 208.368 240.114C208.224 240.754 208.308 241.311 208.219 241.35C208.13 241.388 207.863 240.786 208.051 239.993C208.239 239.199 208.734 238.873 208.769 238.982Z" fill="#263238"/>
<path d="M210.708 241.215C210.639 241.279 210.332 240.78 210.357 240.044C210.382 239.308 210.708 238.834 210.773 238.905C210.837 238.975 210.699 239.449 210.684 240.057C210.669 240.665 210.793 241.158 210.708 241.215Z" fill="#263238"/>
<path d="M204.934 236.185C204.934 236.306 204.478 236.37 203.998 236.684C203.518 236.998 203.197 237.407 203.118 237.324C203.038 237.241 203.281 236.646 203.85 236.287C204.419 235.929 204.944 236.076 204.934 236.185Z" fill="#263238"/>
<path d="M131.048 249.605L130.281 239.756L136.635 229.407L128.846 222.931L128.638 223.327L124.679 231.059L119.538 236.306L127.703 253.656L135.655 252.965C135.655 252.965 134.942 250.565 131.048 249.605Z" fill="#21C124"/>
<g opacity="0.6">
<path opacity="0.6" d="M119.527 236.306L127.692 253.656L135.645 252.965L134.67 251.5L128.177 251.602L120.621 235.193L119.527 236.306Z" fill="white"/>
</g>
<path d="M130.751 245.087C130.701 245.196 130.221 244.901 129.608 244.978C128.994 245.055 128.559 245.42 128.494 245.324C128.43 245.228 128.831 244.601 129.583 244.524C130.335 244.447 130.83 245.004 130.751 245.087Z" fill="#263238"/>
<path d="M130.508 242.649C130.429 242.732 130.043 242.156 129.405 242.054C128.767 241.951 128.272 242.367 128.217 242.265C128.163 242.162 128.272 242.041 128.484 241.862C128.774 241.634 129.114 241.542 129.449 241.599C129.785 241.656 130.096 241.859 130.33 242.175C130.499 242.418 130.543 242.617 130.508 242.649Z" fill="#263238"/>
<path d="M130.394 239.5C130.31 239.57 130.008 238.994 129.444 238.796C128.88 238.598 128.39 238.873 128.346 238.764C128.301 238.655 128.415 238.559 128.628 238.438C128.915 238.279 129.236 238.252 129.537 238.36C129.838 238.469 130.102 238.706 130.286 239.033C130.419 239.282 130.434 239.474 130.394 239.5Z" fill="#263238"/>
<path d="M132.399 236.882C132.305 236.934 132.052 236.364 131.538 235.999C131.023 235.634 130.548 235.609 130.513 235.481C130.479 235.353 131.087 235.135 131.711 235.602C132.334 236.07 132.493 236.857 132.399 236.882Z" fill="#263238"/>
<path d="M133.324 234.681C133.284 234.719 133.002 234.329 132.577 233.663C132.334 233.279 132.082 232.889 131.839 232.486C131.671 232.251 131.533 231.983 131.429 231.692C131.394 231.591 131.377 231.482 131.377 231.372C131.377 231.262 131.394 231.153 131.429 231.052C131.469 230.939 131.534 230.844 131.616 230.778C131.698 230.712 131.793 230.678 131.889 230.681C132.173 230.727 132.441 230.878 132.661 231.116C133.191 231.635 133.553 232.39 133.675 233.234C133.782 233.709 133.743 234.217 133.566 234.655C133.541 234.202 133.496 233.752 133.433 233.305C133.337 232.839 133.169 232.403 132.938 232.025C132.803 231.81 132.646 231.618 132.473 231.455C132.307 231.284 132.112 231.168 131.904 231.116C131.873 231.113 131.843 231.122 131.817 231.141C131.79 231.161 131.769 231.19 131.755 231.225C131.73 231.318 131.73 231.42 131.755 231.513C131.848 231.761 131.964 231.993 132.102 232.204C132.329 232.626 132.557 233.036 132.78 233.439C133.014 233.811 133.198 234.23 133.324 234.681Z" fill="#263238"/>
<path d="M133.626 234.962C133.586 234.962 133.591 234.418 133.987 233.766C134.258 233.327 134.632 233.015 135.054 232.878C135.475 232.742 135.919 232.788 136.318 233.01C136.361 233.051 136.397 233.104 136.421 233.165C136.446 233.226 136.46 233.293 136.461 233.362C136.46 233.483 136.433 233.6 136.382 233.702C136.306 233.832 136.216 233.949 136.115 234.047C135.66 234.522 135.121 234.843 134.546 234.982C134.224 235.112 133.879 235.112 133.557 234.982C133.557 234.905 133.933 234.911 134.492 234.7C135.005 234.509 135.482 234.182 135.892 233.74C135.966 233.668 136.033 233.585 136.09 233.49C136.12 233.394 136.09 233.42 136.09 233.394C136.016 233.346 135.935 233.316 135.853 233.305C135.754 233.285 135.655 233.274 135.556 233.273C135.365 233.267 135.174 233.301 134.992 233.375C134.678 233.494 134.394 233.714 134.165 234.015C133.774 234.502 133.68 234.988 133.626 234.962Z" fill="#263238"/>
<g opacity="0.6">
<path opacity="0.6" d="M125.857 235.449C125.869 235.691 125.826 235.932 125.732 236.142C125.638 236.353 125.498 236.522 125.329 236.628C125.161 236.735 124.971 236.775 124.785 236.742C124.6 236.709 124.425 236.605 124.285 236.444C124.145 236.282 124.045 236.071 123.998 235.836C123.952 235.601 123.96 235.353 124.022 235.124C124.085 234.895 124.198 234.696 124.349 234.551C124.499 234.405 124.68 234.322 124.867 234.31C125.115 234.294 125.357 234.404 125.542 234.617C125.727 234.83 125.84 235.129 125.857 235.449Z" fill="white"/>
</g>
<path d="M167.894 60.3417C168.235 58.2274 168.822 56.1924 169.636 54.3066C170.466 52.4088 171.809 50.975 173.407 50.2811C175.067 49.719 176.817 49.7745 178.454 50.4411C179.613 50.9524 180.669 51.7895 181.547 52.8922C183.032 54.5498 183.789 57.1353 184.412 59.5353" fill="#21C124"/>
<path d="M185.461 59.7017C185.172 57.375 184.206 55.2796 182.76 53.8458C181.289 52.5142 179.555 51.7547 177.762 51.657C174.985 51.3818 171.739 52.361 169.844 54.985C167.949 57.6089 166.83 61.1801 167.068 64.38C167.172 65.82 168.251 69.7175 169.107 70.6583L185.011 70.1271C185.961 68.1687 185.748 61.9992 185.461 59.7017Z" fill="#21C124"/>
<path d="M185.184 64.0088C185.012 61.1604 184.017 58.5003 182.397 56.5587C180.776 54.617 178.649 53.5364 176.44 53.5322H175.985C171.076 53.8906 168.562 59.4777 168.983 65.8136L169.844 95.0866H181.092L180.993 85.5572C180.993 85.5572 185.714 84.6228 185.778 78.5173C185.808 75.5734 185.491 69.4999 185.184 64.0088Z" fill="#FFBE9D"/>
<path d="M181.028 85.5508C178.837 85.5454 176.694 84.7281 174.852 83.1956C174.852 83.1956 176.297 87.586 181.003 87.0356L181.028 85.5508Z" fill="#EB996E"/>
<path d="M183.324 68.8087C183.324 69.0358 183.256 69.2541 183.134 69.4177C183.012 69.5812 182.846 69.6772 182.67 69.6855C182.585 69.6942 182.498 69.6806 182.417 69.6455C182.335 69.6104 182.26 69.5545 182.195 69.4811C182.131 69.4077 182.078 69.3184 182.041 69.2183C182.003 69.1182 181.982 69.0094 181.978 68.8983C181.977 68.6712 182.045 68.4529 182.167 68.2894C182.289 68.1259 182.455 68.0298 182.631 68.0216C182.716 68.0129 182.803 68.0265 182.884 68.0616C182.966 68.0967 183.041 68.1526 183.106 68.226C183.17 68.2994 183.223 68.3887 183.26 68.4888C183.298 68.5889 183.319 68.6977 183.324 68.8087Z" fill="#263238"/>
<path d="M184.14 66.9912C184.056 67.1063 183.546 66.6136 182.824 66.6136C182.101 66.6136 181.567 67.0807 181.488 66.9655C181.408 66.8503 181.532 66.716 181.765 66.4984C182.079 66.2173 182.452 66.0677 182.834 66.0696C183.21 66.0704 183.578 66.2249 183.883 66.5112C184.105 66.7352 184.194 66.94 184.14 66.9912Z" fill="#263238"/>
<path d="M176.351 69.2503C176.353 69.4768 176.286 69.6951 176.165 69.8588C176.044 70.0225 175.878 70.1188 175.703 70.1271C175.617 70.1349 175.531 70.1207 175.45 70.0852C175.369 70.0498 175.294 69.9938 175.229 69.9206C175.165 69.8474 175.112 69.7584 175.075 69.6587C175.037 69.559 175.015 69.4506 175.01 69.3399C175.007 69.1123 175.074 68.8924 175.195 68.7273C175.316 68.5622 175.482 68.465 175.658 68.4567C175.744 68.4489 175.831 68.4633 175.912 68.4992C175.994 68.535 176.069 68.5915 176.134 68.6654C176.198 68.7393 176.251 68.8291 176.288 68.9295C176.325 69.03 176.347 69.139 176.351 69.2503Z" fill="#263238"/>
<path d="M177.004 67.4583C176.925 67.5735 176.41 67.0807 175.688 67.0871C174.966 67.0935 174.431 67.5543 174.352 67.4391C174.273 67.3239 174.401 67.1831 174.634 66.9655C174.947 66.6829 175.321 66.5351 175.703 66.5431C176.079 66.5403 176.447 66.6927 176.752 66.9783C176.97 67.2023 177.049 67.4071 177.004 67.4583Z" fill="#263238"/>
<path d="M179.637 74.1078C180.019 73.9539 180.415 73.8614 180.815 73.8326C180.998 73.8326 181.171 73.7622 181.206 73.6022C181.221 73.3547 181.178 73.1067 181.082 72.8918L180.538 71.0679C179.78 68.4695 179.236 66.332 179.315 66.2936C179.394 66.2552 180.077 68.3287 180.83 70.9271C181.013 71.5671 181.186 72.2071 181.354 72.7638C181.469 73.0536 181.503 73.3865 181.448 73.7046C181.421 73.7891 181.379 73.8642 181.326 73.9242C181.273 73.9842 181.21 74.0273 181.141 74.0502C181.04 74.0887 180.935 74.1081 180.83 74.1078C180.434 74.173 180.033 74.173 179.637 74.1078Z" fill="#263238"/>
<path d="M177.499 74.7478C177.618 74.7478 177.618 75.759 178.291 76.4822C178.964 77.2054 179.8 77.1222 179.805 77.2374C179.81 77.3526 179.622 77.4358 179.266 77.4486C178.804 77.4533 178.356 77.2496 177.999 76.8726C177.657 76.5102 177.438 75.9885 177.39 75.4198C177.361 74.9974 177.445 74.7414 177.499 74.7478Z" fill="#263238"/>
<path d="M177.38 65.3336C177.311 65.5896 176.584 65.4808 175.737 65.628C174.891 65.7752 174.203 66.076 174.085 65.852C174.035 65.7432 174.154 65.5 174.426 65.2504C174.794 64.9434 175.211 64.7487 175.646 64.681C176.08 64.6134 176.521 64.6746 176.935 64.86C177.267 65.0136 177.41 65.212 177.38 65.3336Z" fill="#263238"/>
<path d="M184.318 64.284C184.18 64.5144 183.551 64.3736 182.834 64.4568C182.116 64.54 181.498 64.7768 181.349 64.5784C181.28 64.476 181.349 64.252 181.616 64.0152C181.971 63.7156 182.381 63.5413 182.804 63.5096C183.224 63.4556 183.648 63.5484 184.031 63.7784C184.274 63.964 184.378 64.1688 184.318 64.284Z" fill="#263238"/>
<path d="M169.661 70.3319C169.582 70.2871 166.425 69.0839 166.519 73.2566C166.613 77.4293 169.834 76.4566 169.839 76.3222C169.844 76.1878 169.661 70.3319 169.661 70.3319Z" fill="#FFBE9D"/>
<path d="M169.102 74.7798C169.102 74.7798 169.042 74.831 168.948 74.895C168.815 74.9654 168.666 74.9654 168.533 74.895C168.32 74.7326 168.145 74.5 168.025 74.2211C167.905 73.9422 167.844 73.627 167.85 73.3078C167.834 72.9495 167.879 72.5911 167.983 72.2582C168.011 72.1272 168.062 72.0067 168.134 71.9075C168.205 71.8082 168.295 71.7331 168.394 71.6887C168.458 71.6641 168.527 71.6693 168.588 71.7031C168.649 71.737 168.7 71.7975 168.73 71.8742C168.775 71.9894 168.755 72.0727 168.775 72.0791C168.795 72.0854 168.839 72.0086 168.81 71.8359C168.79 71.7343 168.745 71.6441 168.681 71.5799C168.589 71.4949 168.476 71.4604 168.364 71.4839C168.233 71.5233 168.111 71.6059 168.012 71.7236C167.912 71.8413 167.838 71.9901 167.795 72.1558C167.664 72.5196 167.606 72.9203 167.627 73.3206C167.619 73.6932 167.696 74.0606 167.849 74.3762C168.003 74.6918 168.225 74.9414 168.488 75.0934C168.573 75.1208 168.661 75.1236 168.747 75.1014C168.832 75.0793 168.913 75.0328 168.983 74.9654C169.097 74.8822 169.112 74.7862 169.102 74.7798Z" fill="#EB996E"/>
<path d="M171.779 57.9289L173.372 56.1498L178.439 57.1545L182.002 55.9706L182.938 57.2953C182.537 57.9929 183.388 55.017 182.576 54.2234C180.83 52.5082 179.355 52.5722 177.133 52.521C174.911 52.4698 170.477 55.9258 168.889 57.8841C167.617 59.4521 167.627 60.8025 167.627 60.8025C167.424 63.0616 168.399 65.6216 168.785 67.8423C168.988 68.9815 169.374 72.4375 169.374 72.4375C170.116 72.4375 170.363 71.6759 170.279 70.7287L170.141 67.0104C170.884 66.2529 171.416 65.2023 171.655 64.0183C171.895 62.8342 171.828 61.5815 171.467 60.4505C171.299 60.1177 170.888 58.5689 171.779 57.9289Z" fill="#263238"/>
<path d="M171.121 58.9273C171.293 58.3422 171.603 57.8418 172.007 57.4972C172.411 57.1527 172.889 56.9813 173.372 57.0073C174.342 57.089 175.254 57.6289 175.935 58.5241C176.109 58.7654 176.303 58.9802 176.514 59.1641C176.621 59.2488 176.741 59.2979 176.866 59.3068C176.99 59.3158 177.114 59.2843 177.227 59.2153C177.296 59.1705 177.366 59.1001 177.44 59.1257C177.491 59.1528 177.533 59.2028 177.559 59.2665C177.742 59.6503 178 59.9657 178.306 60.1817C178.46 60.2842 178.635 60.3214 178.807 60.2881C178.978 60.2548 179.137 60.1526 179.261 59.9961C179.438 60.2063 179.659 60.3452 179.896 60.3958C180.133 60.4463 180.377 60.4063 180.597 60.2807C180.817 60.1551 181.004 59.9493 181.135 59.6885C181.266 59.4276 181.335 59.1231 181.334 58.8121C181.552 58.8703 181.778 58.8471 181.986 58.7451C182.193 58.643 182.374 58.4665 182.507 58.2361C182.742 57.8925 182.914 57.4858 183.013 57.0455C183.111 56.6051 183.133 56.142 183.076 55.6896C183.019 55.2372 182.885 54.8067 182.684 54.4292C182.483 54.0517 182.22 53.7366 181.913 53.5066C181.427 53.187 180.898 52.9894 180.354 52.9242C179.508 52.7709 178.655 52.6875 177.801 52.6746C177.425 52.6479 177.048 52.7063 176.688 52.8474C176.193 53.0778 175.787 53.5962 175.272 53.6794C174.935 53.6992 174.598 53.6295 174.283 53.4746C173.826 53.2711 173.345 53.1799 172.862 53.2058C171.917 53.3146 171.135 54.1914 170.512 55.1258C170.041 55.7423 169.7 56.5047 169.522 57.3401C169.439 57.7596 169.455 58.2014 169.567 58.6094C169.679 59.0173 169.882 59.3731 170.151 59.6313C170.259 59.7278 170.384 59.7897 170.515 59.8119C170.646 59.8342 170.779 59.8161 170.903 59.7593C170.963 59.7271 171.018 59.6798 171.064 59.6202C171.11 59.5605 171.146 59.4898 171.171 59.4119C171.196 59.334 171.209 59.2505 171.208 59.1663C171.208 59.082 171.195 58.9986 171.17 58.9209" fill="#263238"/>
<path d="M168.889 68.4759C168.542 65.276 168.958 61.436 170.754 58.7033C172.551 55.9706 175.728 54.3002 177.831 54.8186C179.469 55.2218 183.032 55.3882 184.333 59.8233L184.15 56.1625C184.15 56.1625 182.566 52.0026 177.89 52.1306C173.214 52.2586 171.175 52.9626 168.914 56.5209C168.16 57.6053 167.642 58.9299 167.415 60.3583C167.189 61.7868 167.26 63.2677 167.622 64.6488C167.948 65.974 168.373 67.2556 168.889 68.4759Z" fill="#21C124"/>
<path d="M181.77 53.033C181.71 53.0156 181.652 52.9899 181.597 52.9562C181.488 52.905 181.329 52.8154 181.102 52.7258C180.506 52.4479 179.894 52.2338 179.271 52.0858C178.349 51.8868 177.413 51.816 176.48 51.8746C175.338 51.9437 174.21 52.2349 173.135 52.7386C172.061 53.266 171.058 54.0114 170.166 54.9466C169.779 55.3545 169.422 55.8087 169.102 56.3034C168.943 56.5274 168.815 56.7642 168.681 56.9881C168.547 57.2121 168.434 57.4361 168.335 57.6601C168.004 58.356 167.726 59.0911 167.503 59.8553C167.419 60.1177 167.37 60.3353 167.33 60.4953C167.314 60.5712 167.291 60.6443 167.261 60.7129L167.305 60.4889C167.345 60.3417 167.385 60.1241 167.464 59.8489C167.67 59.0725 167.939 58.3261 168.265 57.6217C168.364 57.3977 168.488 57.1737 168.607 56.9369C168.726 56.7002 168.869 56.4634 169.027 56.233C169.353 55.7336 169.712 55.273 170.101 54.857C170.991 53.9082 171.994 53.1517 173.07 52.617C174.156 52.1068 175.296 51.8175 176.45 51.7594C177.391 51.7002 178.334 51.7818 179.261 52.0026C179.884 52.1469 180.497 52.361 181.092 52.6426C181.305 52.745 181.458 52.8474 181.587 52.905L181.77 53.033Z" fill="#263238"/>
<path d="M169.201 63.1192C169.15 63.1016 169.101 63.0735 169.057 63.036C168.933 62.9373 168.816 62.826 168.706 62.7032C168.341 62.2937 168.061 61.7717 167.894 61.1855C167.726 60.5994 167.675 59.968 167.746 59.3497C167.768 59.1648 167.803 58.9828 167.85 58.8057C167.884 58.6777 167.909 58.6137 167.914 58.6201C167.919 58.6265 167.86 58.9017 167.825 59.3625C167.781 59.9627 167.84 60.5681 167.998 61.1353C168.163 61.6999 168.423 62.2095 168.76 62.6264C169.018 62.9464 169.211 63.1 169.201 63.1192Z" fill="#263238"/>
<path d="M170.566 59.4585C170.412 59.3713 170.274 59.2426 170.161 59.0809C169.867 58.7093 169.644 58.2532 169.512 57.7497C169.375 57.2467 169.343 56.706 169.418 56.1817C169.437 55.9557 169.492 55.7375 169.582 55.5417C169.582 55.5417 169.537 55.7849 169.493 56.1817C169.447 56.6887 169.489 57.2025 169.616 57.6857C169.747 58.1604 169.951 58.5958 170.215 58.9657C170.418 59.2985 170.576 59.4393 170.566 59.4585Z" fill="#263238"/>
<path d="M172.778 56.7897C172.651 56.7144 172.536 56.6103 172.437 56.4825C172.183 56.1905 171.971 55.8414 171.813 55.4522C171.658 55.0538 171.569 54.6178 171.551 54.1722C171.533 53.9918 171.545 53.8086 171.586 53.6346C171.611 54.2339 171.721 54.822 171.912 55.369C172.149 55.892 172.44 56.3701 172.778 56.7897Z" fill="#263238"/>
<path d="M174.911 52.0666C174.998 52.1826 175.067 52.3196 175.114 52.4698C175.252 52.8114 175.36 53.1721 175.436 53.545C175.509 53.92 175.552 54.3039 175.564 54.6906C175.576 54.8516 175.566 55.0139 175.535 55.1706C175.5 55.1706 175.5 54.441 175.327 53.5834C175.154 52.7258 174.881 52.0858 174.911 52.0666Z" fill="#263238"/>
<path d="M179.018 51.9642C179.095 52.0908 179.151 52.2369 179.182 52.393C179.275 52.7623 179.313 53.1509 179.296 53.5386C179.28 53.926 179.208 54.3062 179.083 54.6586C179.04 54.8111 178.97 54.9489 178.88 55.0618C179.043 54.5755 179.146 54.0595 179.187 53.5322C179.192 53.0016 179.135 52.473 179.018 51.9642Z" fill="#263238"/>
<path d="M181.656 52.9242C181.749 53.0499 181.823 53.1977 181.874 53.3594C182.01 53.7458 182.086 54.1635 182.096 54.5882C182.106 55.0111 182.047 55.4319 181.923 55.8234C181.882 55.9908 181.815 56.1455 181.725 56.2778C181.888 55.7387 181.975 55.1666 181.982 54.5882C181.951 54.0128 181.841 53.4492 181.656 52.9242Z" fill="#263238"/>
<path d="M184.194 55.7978C184.237 55.927 184.256 56.0672 184.249 56.2074C184.268 56.8917 184.092 57.5612 183.754 58.0889C183.62 58.2873 183.517 58.3769 183.512 58.3641C183.726 57.9926 183.903 57.5885 184.041 57.1609C184.136 56.7167 184.188 56.2587 184.194 55.7978Z" fill="#263238"/>
<path d="M185.476 59.3753C185.476 59.7313 185.385 60.0774 185.219 60.3609C185.085 60.6701 184.874 60.9115 184.62 61.0457C184.797 60.8032 184.962 60.5467 185.115 60.2777C185.367 59.8489 185.441 59.3689 185.476 59.3753Z" fill="#263238"/>
<path d="M185.649 63.4008C185.674 63.4008 185.649 63.6504 185.476 63.8424C185.303 64.0344 185.12 64.0536 185.12 64.0152C185.12 63.9768 185.263 63.9 185.402 63.7336C185.54 63.5672 185.615 63.388 185.649 63.4008Z" fill="#263238"/>
<path d="M168.854 66.7223C168.487 66.656 168.136 66.4806 167.829 66.2097C167.523 65.9387 167.269 65.5797 167.088 65.1608C167.564 65.868 168.172 66.4057 168.854 66.7223Z" fill="#263238"/>
<path d="M169.126 68.7383C169.126 68.7703 168.968 68.9815 168.681 69.0007C168.394 69.0199 168.186 68.8407 168.216 68.8087C168.245 68.7767 168.424 68.8791 168.676 68.8535C168.928 68.8279 169.111 68.7063 169.126 68.7383Z" fill="#263238"/>
<g opacity="0.3">
<path opacity="0.3" d="M181.384 52.8922C180.372 52.034 179.238 51.4473 178.048 51.167C176.858 50.8866 175.636 50.9183 174.456 51.2602C173.265 51.6536 172.147 52.3489 171.166 53.3058C170.185 54.2627 169.36 55.4622 168.74 56.8345C168.74 56.8345 171.655 52.0666 175.832 51.9002C180.008 51.7338 181.384 52.8922 181.384 52.8922Z" fill="black"/>
</g>
<path d="M178.157 68.9623C178.138 68.7104 178.107 68.4604 178.063 68.2135C177.925 67.5436 177.616 66.9531 177.187 66.5368C176.896 66.2517 176.557 66.0588 176.198 65.9736C175.783 65.8761 175.357 65.9224 174.961 66.108C174.525 66.3155 174.146 66.6851 173.872 67.1703C173.577 67.6909 173.417 68.3198 173.417 68.9655C173.417 69.6113 173.577 70.2401 173.872 70.7607C174.146 71.2459 174.525 71.6155 174.961 71.8231C175.331 71.9971 175.729 72.049 176.119 71.9741C176.508 71.8993 176.877 71.7 177.192 71.3943C177.62 70.9769 177.929 70.3869 178.068 69.7175C178.112 69.4687 178.144 69.2164 178.162 68.9623C178.176 69.2204 178.158 69.4798 178.108 69.7303C177.984 70.4246 177.678 71.0419 177.242 71.4775C176.939 71.7757 176.587 71.9794 176.213 72.0727C175.783 72.182 175.338 72.1378 174.926 71.9447C174.702 71.8442 174.492 71.6995 174.302 71.5159C174.105 71.3382 173.93 71.1223 173.783 70.8759C173.472 70.3324 173.303 69.6739 173.303 68.9975C173.303 68.3211 173.472 67.6626 173.783 67.1191C173.928 66.8613 174.103 66.6345 174.302 66.4472C174.492 66.2635 174.702 66.1189 174.926 66.0184C175.311 65.8361 175.726 65.7834 176.131 65.8651C176.536 65.9468 176.918 66.1603 177.242 66.4856C177.678 66.9211 177.984 67.5385 178.108 68.2327C178.154 68.4711 178.17 68.7173 178.157 68.9623Z" fill="#455A64"/>
<path d="M185.343 68.5975C185.343 68.5975 185.343 68.3223 185.244 67.8487C185.105 67.1788 184.797 66.5883 184.368 66.172C184.077 65.8857 183.738 65.6926 183.378 65.6088C182.964 65.5113 182.537 65.5576 182.141 65.7432C181.928 65.8436 181.728 65.9837 181.547 66.1592C181.253 66.4428 181.015 66.8111 180.85 67.235C180.686 67.6589 180.6 68.1265 180.6 68.6007C180.6 69.0749 180.686 69.5426 180.85 69.9664C181.015 70.3903 181.253 70.7587 181.547 71.0423C181.728 71.2177 181.928 71.3579 182.141 71.4583C182.511 71.6323 182.909 71.6842 183.299 71.6093C183.688 71.5345 184.057 71.3352 184.373 71.0295C184.801 70.6121 185.109 70.0221 185.249 69.3527C185.343 68.8791 185.328 68.5975 185.347 68.5975C185.358 68.8556 185.34 69.1143 185.293 69.3655C185.165 70.059 184.858 70.6753 184.422 71.1127C184.119 71.4109 183.767 71.6146 183.393 71.7079C182.963 71.8172 182.518 71.773 182.106 71.5799C181.883 71.478 181.673 71.3335 181.483 71.1511C181.223 70.9054 181.003 70.5957 180.836 70.2396C180.669 69.8836 180.558 69.4883 180.51 69.0767C180.461 68.665 180.477 68.245 180.554 67.8409C180.632 67.4368 180.771 67.0567 180.963 66.7224C181.251 66.2165 181.649 65.8332 182.106 65.6216C182.491 65.4393 182.906 65.3866 183.311 65.4683C183.716 65.5501 184.098 65.7635 184.422 66.0888C184.858 66.5262 185.165 67.1424 185.293 67.8359C185.338 68.0853 185.355 68.3419 185.343 68.5975Z" fill="#455A64"/>
<path d="M180.617 67.4136C180.617 67.4136 180.478 67.292 180.241 67.1448C179.93 66.942 179.583 66.8489 179.236 66.8747C178.888 66.9006 178.552 67.0445 178.261 67.292C178.034 67.4776 177.92 67.6375 177.91 67.6183C177.984 67.4512 178.09 67.3105 178.217 67.2088C178.504 66.93 178.848 66.7655 179.206 66.7352C179.569 66.71 179.93 66.8212 180.245 67.0552C180.389 67.135 180.517 67.2578 180.617 67.4136Z" fill="#455A64"/>
<path d="M173.516 68.3863C173.516 68.4247 172.561 68.8471 171.358 69.3335C170.156 69.8199 169.176 70.1719 169.171 70.1399C169.166 70.1079 170.126 69.6791 171.323 69.1927C172.521 68.7063 173.506 68.3479 173.516 68.3863Z" fill="#455A64"/>
<path d="M175.668 71.5414C175.526 71.5556 175.383 71.5317 175.248 71.471C174.918 71.3494 174.615 71.1303 174.362 70.8311C174.108 70.5259 173.911 70.1493 173.788 69.7303C173.73 69.561 173.701 69.3776 173.704 69.1927C173.764 69.3552 173.817 69.5218 173.862 69.6919C174.148 70.4717 174.66 71.0742 175.287 71.3686C175.417 71.4175 175.544 71.4752 175.668 71.5414Z" fill="white"/>
<path d="M181.557 70.5239C181.557 70.5239 181.403 70.4855 181.235 70.2487C181.031 69.9363 180.896 69.5581 180.844 69.1543C180.78 68.7554 180.78 68.3437 180.844 67.9447C180.863 67.7783 180.916 67.6214 180.998 67.4904C180.998 67.4904 180.958 67.6696 180.919 67.9703C180.872 68.3541 180.872 68.7449 180.919 69.1287C180.969 69.5095 181.086 69.8705 181.26 70.1847C181.352 70.3073 181.451 70.4207 181.557 70.5239Z" fill="white"/>
<path d="M178.078 74.9654C178.078 74.9334 178.148 74.7734 178.286 74.6006C178.425 74.4278 178.543 74.3062 178.568 74.3382C178.593 74.3702 178.499 74.5302 178.36 74.703C178.222 74.8758 178.103 74.991 178.078 74.9654Z" fill="#263238"/>
<path d="M178.425 75.2406C178.425 75.2406 178.494 75.0166 178.627 74.799C178.761 74.5814 178.89 74.415 178.91 74.4406C178.929 74.4662 178.845 74.6646 178.712 74.8822C178.578 75.0998 178.449 75.2662 178.425 75.2406Z" fill="#263238"/>
<path d="M178.781 75.5798C178.751 75.5798 178.81 75.3558 178.904 75.119C178.999 74.8822 179.102 74.7094 179.132 74.7222C179.162 74.735 179.102 74.9526 179.003 75.1894C178.904 75.4262 178.806 75.599 178.781 75.5798Z" fill="#263238"/>
<path d="M179.32 75.5862C179.291 75.5862 179.276 75.439 179.286 75.2662C179.295 75.0934 179.33 74.9526 179.36 74.9526C179.39 74.9526 179.405 75.0998 179.395 75.2726C179.385 75.4454 179.355 75.5862 179.32 75.5862Z" fill="#263238"/>
<path d="M179.84 75.695C179.805 75.695 179.781 75.567 179.781 75.4134C179.781 75.2598 179.805 75.1254 179.84 75.1254C179.875 75.1254 179.895 75.2534 179.895 75.4134C179.895 75.5734 179.87 75.695 179.84 75.695Z" fill="#263238"/>
<path d="M180.325 75.7526C180.295 75.7526 180.241 75.6054 180.201 75.4006C180.161 75.1958 180.161 75.0166 180.201 75.0102C180.241 75.0038 180.285 75.1638 180.32 75.3686C180.354 75.5734 180.354 75.7462 180.325 75.7526Z" fill="#263238"/>
<path d="M169.171 76.4886C169.194 76.7403 169.142 76.9938 169.027 77.199C168.971 77.3205 168.895 77.4247 168.805 77.5043C168.714 77.5839 168.611 77.637 168.503 77.6598C168.369 77.6826 168.233 77.6577 168.109 77.5878C167.985 77.5179 167.878 77.4056 167.8 77.263C167.723 77.1236 167.669 76.9657 167.64 76.7986C167.611 76.6315 167.608 76.4586 167.632 76.2902C167.682 76.0153 167.812 75.7752 167.993 75.6182C168.07 75.5407 168.159 75.4852 168.253 75.4554C168.348 75.4257 168.447 75.4222 168.542 75.4454C168.365 75.484 168.197 75.5713 168.048 75.7014C167.889 75.8595 167.78 76.087 167.741 76.3414C167.706 76.645 167.763 76.954 167.899 77.2054C167.967 77.3271 168.059 77.4233 168.165 77.4841C168.271 77.5448 168.388 77.5679 168.503 77.551C168.597 77.5339 168.688 77.4908 168.768 77.4245C168.848 77.3583 168.916 77.2704 168.968 77.167C169.068 76.9596 169.137 76.7294 169.171 76.4886Z" fill="#263238"/>
<path d="M162.505 170.567C163.104 170.567 187.827 203.846 187.827 206.157C187.827 208.467 191.499 231.91 193.27 235.519C195.042 239.129 196.106 238.284 196.106 238.284L204.325 233.33C204.325 233.33 199.773 196.851 198.773 192.749C197.773 188.646 178.92 156.385 178.92 156.385L161.105 160.769L162.505 170.567Z" fill="#263238"/>
<path d="M153.375 153.927L148.239 194.95C148.239 194.95 132.171 215.756 131.171 218.073C131.171 218.073 129.38 217.299 128.781 219.353C128.304 221.286 127.931 223.26 127.668 225.26L135.645 233.926C135.645 233.926 156.72 211.328 158.715 207.974C160.709 204.621 169.062 182.509 170.66 176.839C172.259 171.168 174.124 158.593 174.124 158.593L153.375 153.927Z" fill="#263238"/>
<path d="M191.969 198.726C191.899 199.173 191.779 199.605 191.612 200.006C191.259 201.006 190.835 201.962 190.346 202.861C189.862 203.769 189.305 204.608 188.683 205.363C188.438 205.697 188.148 205.97 187.827 206.169C188.053 205.825 188.296 205.5 188.554 205.197C189.127 204.394 189.655 203.538 190.133 202.637C191.271 200.589 191.894 198.669 191.969 198.726Z" fill="#455A64"/>
<path d="M151.119 197.792C150.488 197.736 149.89 197.401 149.426 196.845C148.915 196.376 148.539 195.701 148.358 194.925C148.741 195.518 149.153 196.08 149.59 196.608C150.08 197.043 150.591 197.438 151.119 197.792Z" fill="#455A64"/>
<path d="M134.536 223.43C133.73 222.899 133.035 222.126 132.507 221.177C131.979 220.227 131.635 219.128 131.503 217.971C131.837 219.019 132.245 220.026 132.72 220.979C133.263 221.869 133.871 222.69 134.536 223.43Z" fill="#455A64"/>
<path d="M160.006 159.994C159.99 160.154 159.955 160.309 159.902 160.455C159.786 160.864 159.647 161.262 159.487 161.645C158.421 164.211 156.733 166.253 154.682 167.456C154.376 167.639 154.06 167.793 153.736 167.917C153.622 167.979 153.499 168.014 153.375 168.02C153.375 167.962 153.87 167.738 154.602 167.245C155.575 166.599 156.474 165.783 157.275 164.82C158.071 163.849 158.762 162.742 159.328 161.53C159.759 160.596 159.947 159.969 160.006 159.994Z" fill="#455A64"/>
<path d="M172.605 170.477C172.533 170.835 172.44 171.186 172.328 171.527C172.11 172.244 171.833 173.191 171.482 174.343C170.749 176.704 169.72 179.968 168.488 183.52C167.256 187.072 166.053 190.24 165.172 192.518L164.113 195.206C163.993 195.542 163.852 195.865 163.693 196.173C163.784 195.821 163.895 195.479 164.024 195.149L165.014 192.416C165.855 190.106 167.028 186.931 168.255 183.386C169.483 179.84 170.542 176.595 171.314 174.247C171.695 173.12 172.006 172.186 172.239 171.476C172.341 171.131 172.464 170.797 172.605 170.477Z" fill="#455A64"/>
<path d="M168.27 87.3043C168.27 87.3043 162.827 90.1395 161.565 95.0866C160.922 97.589 157.171 115.886 157.171 115.886C157.171 115.886 152.222 151.022 152.905 154.369L181.225 159.994C181.927 158.895 182.28 157.494 182.215 156.071L181.755 145.543L182.086 100.418C182.091 100.081 182.072 99.7452 182.032 99.4129L181.042 91.0931L181.359 87.5027L168.666 83.1636L168.27 87.3043Z" fill="#21C124"/>
<path d="M167.508 84.4756C167.542 84.1954 167.622 83.9276 167.741 83.6895C167.86 83.4514 168.017 83.2482 168.201 83.0932C168.384 82.9382 168.591 82.8348 168.808 82.7896C169.024 82.7444 169.246 82.7585 169.458 82.8309L181.062 86.7924C181.411 86.9122 181.718 87.1837 181.93 87.5612C182.143 87.9388 182.249 88.3995 182.23 88.8659L182.2 89.5059C182.186 89.8128 182.118 90.1116 182.002 90.3796C181.885 90.6476 181.723 90.8778 181.528 91.0529C181.332 91.2279 181.108 91.3433 180.874 91.3902C180.639 91.437 180.398 91.4142 180.171 91.3235L168.597 86.7284C168.236 86.5861 167.926 86.2797 167.726 85.8656C167.526 85.4516 167.449 84.9578 167.508 84.4756Z" fill="#21C124"/>
<path d="M181.225 91.1443C181.021 91.1214 180.819 91.0721 180.622 90.9971L179.013 90.4723C177.653 90.0115 175.782 89.3587 173.724 88.6163L170.962 87.6052C170.616 87.5352 170.273 87.4325 169.938 87.298C169.778 87.2325 169.624 87.1468 169.478 87.042C169.398 86.9897 169.326 86.9204 169.265 86.8372C169.212 86.7515 169.166 86.6594 169.126 86.562C169.008 86.21 168.97 85.8211 169.018 85.442C169.05 85.1272 169.115 84.8195 169.211 84.5268C169.339 84.1157 169.52 83.7351 169.745 83.4004C169.908 83.1764 170.017 83.0868 170.022 83.0996C169.734 83.5469 169.504 84.0529 169.344 84.5972C169.153 85.1858 169.139 85.8454 169.305 86.4468C169.413 86.7668 169.7 86.8884 170.007 87.0228C170.331 87.1472 170.662 87.2392 170.997 87.298L173.763 88.2835C175.822 89.0259 177.687 89.7171 179.033 90.2035L180.622 90.8435C180.83 90.9185 181.032 91.0192 181.225 91.1443Z" fill="#263238"/>
<path d="M181.339 93.7042C181.367 93.812 181.383 93.9238 181.389 94.037C181.413 94.293 181.443 94.6066 181.478 94.9906C181.547 95.8226 181.636 97.0258 181.72 98.517C181.903 101.499 182.086 105.621 182.19 110.178C182.294 114.734 182.284 118.869 182.19 121.857C182.156 123.348 182.106 124.558 182.062 125.39C182.037 125.78 182.012 126.094 181.997 126.35C181.997 126.463 181.984 126.575 181.958 126.683C181.947 126.572 181.947 126.461 181.958 126.35C181.958 126.088 181.958 125.774 181.958 125.384C181.958 124.552 181.997 123.342 182.007 121.851C182.042 118.869 182.007 114.741 181.918 110.184C181.829 105.627 181.661 101.512 181.527 98.5362C181.458 97.077 181.404 95.8866 181.359 95.0034C181.359 94.6194 181.334 94.2994 181.324 94.0434C181.319 93.93 181.324 93.8162 181.339 93.7042Z" fill="#263238"/>
<path d="M173.105 84.3028C172.914 84.9047 172.76 85.5253 172.645 86.1588C172.609 86.7979 172.609 87.4396 172.645 88.0788C172.499 87.786 172.401 87.458 172.357 87.1147C172.313 86.7713 172.323 86.42 172.387 86.082C172.41 85.7387 172.485 85.4046 172.608 85.0992C172.731 84.7938 172.9 84.5231 173.105 84.3028Z" fill="#263238"/>
<path d="M176.401 85.282C176.425 85.282 176.544 85.4612 176.643 85.8324C176.763 86.3272 176.785 86.8531 176.708 87.3619C176.63 87.8706 176.454 88.346 176.198 88.7443C176 89.0387 175.831 89.1603 175.812 89.1283C176.099 88.5659 176.316 87.9481 176.455 87.298C176.515 86.6263 176.497 85.9467 176.401 85.282Z" fill="#263238"/>
<path d="M179.612 86.434C179.637 86.434 179.77 86.5876 179.889 86.946C180.044 87.4227 180.092 87.9458 180.028 88.456C179.964 88.9661 179.791 89.443 179.528 89.8323C179.325 90.1267 179.157 90.2355 179.137 90.2035C179.475 89.6913 179.699 89.0706 179.786 88.407C179.873 87.7433 179.82 87.0616 179.632 86.434H179.612Z" fill="#263238"/>
<path d="M177.94 96.5906C176.871 92.5075 174.278 88.9427 171.012 88.1043C167.746 87.266 164.678 88.1619 162.347 91.6755L159.378 99.8353C160.694 98.8881 162.802 93.3522 165.257 91.4707C167.711 89.5891 170.443 89.5507 172.462 92.1683C173.946 94.0882 175.06 96.8786 175.025 99.6177C174.956 104.981 173.229 110.011 171.972 115.131C170.359 121.697 169.082 128.699 165.356 133.633C162.362 137.595 158.353 139.956 154.469 142.228C153.548 143.207 151.421 146.766 152.519 147.348C153.618 147.93 157.611 146.068 158.744 145.614C161.57 144.5 164.504 143.303 166.662 140.679C168.641 138.241 169.74 134.843 170.769 131.553C172.749 125.204 174.045 118.587 176.029 112.232C177.712 106.824 179.385 102.12 177.94 96.5906Z" fill="#455A64"/>
<path d="M173.422 164.922L171.165 159.994L163.614 163.399C163.614 163.399 164.109 172.077 165.098 172.327C165.396 172.393 165.701 172.375 165.992 172.274C166.284 172.172 166.555 171.989 166.786 171.738C166.786 171.738 167.35 174.004 168.478 174.1L169.107 174.138C169.309 174.343 170.458 175.418 171.408 175.021C171.408 175.021 172.279 177.466 172.981 177.21C173.684 176.954 174.139 174.01 174.139 174.01L173.422 164.922Z" fill="#FFBE9D"/>
<path d="M166.603 90.2931C165.314 90.8762 164.164 91.8804 163.264 93.2081C162.364 94.5358 161.744 96.1419 161.466 97.8706C159.981 107.067 156.438 131.15 156.582 134.542C156.765 138.855 163.124 164.417 163.124 164.417L172.031 160.948L167.988 132.148C167.988 132.148 174.297 105.205 174.792 101.109C175.337 96.6354 172.318 87.7331 166.603 90.2931Z" fill="#21C124"/>
<path d="M166.603 90.3123C166.828 90.1964 167.06 90.1002 167.295 90.0243C167.982 89.7818 168.701 89.7338 169.404 89.8835C170.536 90.1558 171.57 90.897 172.348 91.9955C173.994 94.3702 174.914 97.4397 174.936 100.629C174.926 101.261 174.865 101.889 174.753 102.504C174.654 103.144 174.53 103.784 174.411 104.424C173.917 106.984 173.303 109.755 172.65 112.686C171.338 118.549 169.814 125.108 168.122 132.193V132.123L172.175 160.922V161.069L172.066 161.114L167.889 162.733L163.139 164.583L163.015 164.628L162.98 164.474C161.659 159.233 160.412 154.113 159.264 149.159C158.695 146.682 158.141 144.251 157.641 141.851C157.394 140.654 157.146 139.47 156.933 138.286C156.82 137.697 156.726 137.102 156.636 136.513C156.553 135.923 156.502 135.327 156.483 134.727C156.508 133.553 156.589 132.382 156.726 131.22C156.849 130.081 156.973 128.961 157.111 127.854C157.379 125.646 157.671 123.515 157.953 121.454C158.522 117.333 159.086 113.512 159.606 110.037L161.036 100.667C161.205 99.3722 161.43 98.0903 161.709 96.8274C161.984 95.7854 162.378 94.8019 162.876 93.909C163.566 92.6733 164.461 91.6522 165.494 90.9203C165.849 90.6578 166.224 90.4433 166.613 90.2803C166.613 90.2803 166.519 90.3443 166.331 90.4467C166.052 90.5964 165.78 90.7696 165.519 90.9651C164.505 91.711 163.63 92.7356 162.956 93.9666C162.47 94.8546 162.087 95.829 161.818 96.8594C161.552 98.1115 161.335 99.3803 161.169 100.661C160.759 103.419 160.293 106.562 159.774 110.037C159.254 113.512 158.715 117.345 158.156 121.461C157.879 123.521 157.596 125.652 157.329 127.86C157.191 128.961 157.067 130.081 156.948 131.22C156.819 132.365 156.741 133.519 156.716 134.676C156.747 135.261 156.81 135.843 156.904 136.417C156.988 137.006 157.087 137.588 157.201 138.177C157.408 139.355 157.661 140.539 157.908 141.729C158.403 144.123 158.967 146.554 159.536 149.025C160.689 153.972 161.936 159.092 163.258 164.333L163.099 164.225L167.85 162.381L172.026 160.756L171.937 160.948C170.502 150.708 169.141 140.961 167.904 132.148V132.11V132.072C169.601 124.987 171.14 118.44 172.467 112.584C173.125 109.659 173.738 106.907 174.248 104.341C174.527 103.127 174.708 101.878 174.788 100.616C174.77 97.4722 173.877 94.4416 172.274 92.0787C171.514 90.9928 170.504 90.2523 169.394 89.9667C168.7 89.8081 167.988 89.8408 167.305 90.0627C167.13 90.1097 166.956 90.1696 166.786 90.2419C166.726 90.2697 166.665 90.2932 166.603 90.3123Z" fill="#263238"/>
<path d="M168.097 131.995C166.681 130.677 164.992 129.939 163.248 129.876C164.128 129.688 165.031 129.783 165.877 130.152C166.723 130.522 167.485 131.154 168.097 131.995Z" fill="#263238"/>
<g opacity="0.3">
<path opacity="0.3" d="M160.971 156.353C156.819 148.391 154.637 137.262 157.012 129.345C156.364 134.087 156.983 138.42 158.076 143.022C159.17 147.623 160.476 152.212 160.689 157.018" fill="black"/>
</g>
<path d="M148.194 269.746L135.902 252.972L125.827 253.708L118.691 257.356L114.163 269.746" fill="#CAF0BD"/>
<path d="M125.827 253.708L136.263 269.746H148.194L135.902 252.972L125.827 253.708Z" fill="#CAF0BD"/>
<path d="M114.163 269.765C114.18 269.683 114.203 269.604 114.233 269.528L114.455 268.856C114.673 268.248 114.95 267.403 115.346 266.335L118.592 257.317V257.266H118.637L125.763 253.593H125.802L130.642 253.234L135.882 252.856H135.942L135.981 252.914L144.74 264.946L147.284 268.491C147.566 268.888 147.778 269.208 147.957 269.451C148.041 269.555 148.116 269.671 148.179 269.797C148.091 269.701 148.006 269.599 147.927 269.49L147.219 268.568L144.621 265.087C142.404 262.092 139.326 257.919 135.798 253.138L135.897 253.189L130.657 253.573L125.817 253.919H125.857L118.716 257.541L118.77 257.471C117.4 261.176 116.257 264.261 115.445 266.431L114.5 268.92L114.247 269.56C114.225 269.632 114.197 269.7 114.163 269.765Z" fill="#CAF0BD"/>
<path d="M58.6414 269.746L63.3325 259.212L71.8885 256.127L79.8902 264.927V269.746" fill="#CAF0BD"/>
<path d="M63.3325 259.212L79.8902 264.927L71.8885 256.127L63.3325 259.212Z" fill="#CAF0BD"/>
<path d="M79.8901 269.765C79.8715 269.656 79.8632 269.544 79.8654 269.432C79.8654 269.189 79.8654 268.875 79.8654 268.491C79.8654 267.621 79.8654 266.431 79.8308 264.946L79.8555 265.023L71.8241 256.268L71.9429 256.3L69.9734 256.965L63.3622 259.333L63.4315 259.263L59.9873 266.859C59.5716 267.755 59.2401 268.472 58.9976 268.997L58.7304 269.56C58.6995 269.625 58.6647 269.687 58.6265 269.746C58.6427 269.672 58.6659 269.601 58.6957 269.535L58.9333 268.952L59.8685 266.77L63.2137 259.141V259.084H63.2632L69.8843 256.664L71.834 255.967H71.8983L71.9478 256.024L79.9248 264.869L79.9545 264.901V264.952C79.9545 266.437 79.9248 267.627 79.9149 268.498C79.9149 268.882 79.9149 269.195 79.9149 269.439C79.9167 269.548 79.9084 269.658 79.8901 269.765Z" fill="#CAF0BD"/>
<path d="M228.513 250.809L216.637 242.06L195.784 251.884L178.939 269.746L238.529 269.349L228.513 250.809Z" fill="#CAF0BD"/>
<path d="M178.939 269.746L200.307 253.708L228.513 250.809L216.162 241.356L195.784 251.884L178.939 269.746Z" fill="#CAF0BD"/>
<path d="M209.64 269.541L220.314 260.082L230.047 259.186L221.902 261.528L217.686 269.49L209.64 269.541Z" fill="#CAF0BD"/>
<path d="M178.939 269.765C178.939 269.765 178.939 269.727 179.013 269.669L179.241 269.407L180.142 268.421L183.576 264.728L195.71 251.788L210.555 243.98L216.038 241.113L216.097 241.081L216.152 241.126L228.523 250.725L235.758 264.216L237.762 267.992L238.257 268.997C238.317 269.108 238.374 269.224 238.425 269.343C238.425 269.343 238.356 269.24 238.232 269.016L237.683 268.043C237.188 267.167 236.51 265.906 235.629 264.312L228.32 250.873L228.355 250.911L215.984 241.343H216.093L210.615 244.217L195.739 251.993H195.769L183.576 264.843L180.112 268.472L179.246 269.426L179.004 269.669L178.939 269.765Z" fill="#CAF0BD"/>
<path d="M230.379 259.154C230.125 259.23 229.867 259.275 229.607 259.288L227.484 259.532L220.318 260.248H220.383L219.21 261.285C216.587 263.608 214.207 265.701 212.475 267.199L210.421 268.933L209.852 269.4C209.724 269.503 209.649 269.554 209.645 269.541C209.698 269.467 209.758 269.4 209.823 269.343L210.362 268.824L212.376 266.981C214.083 265.432 216.449 263.308 219.071 260.984L220.244 259.948H220.274H220.318L227.484 259.346L229.617 259.199C229.87 259.161 230.124 259.146 230.379 259.154Z" fill="#CAF0BD"/>
<path d="M284.664 260.549L277.528 256.895L265.632 259.692L259.867 269.714L288.098 269.746L284.664 260.549Z" fill="#CAF0BD"/>
<path d="M265.632 259.692C265.978 259.608 284.664 260.549 284.664 260.549L277.528 256.901L265.632 259.692Z" fill="#CAF0BD"/>
<path d="M259.872 269.714C259.894 269.643 259.924 269.576 259.961 269.515L260.258 268.965L261.406 266.898L265.543 259.602L265.568 259.557H265.612L274.465 257.458L277.508 256.741H277.543H277.578L284.703 260.415H284.743V260.46L287.217 267.179L287.88 269.048L288.049 269.541C288.07 269.598 288.087 269.658 288.098 269.72C288.066 269.672 288.039 269.618 288.019 269.56L287.826 269.08C287.648 268.632 287.405 268.011 287.108 267.243C286.485 265.618 285.624 263.333 284.57 260.581L284.624 260.645L277.484 257.023H277.553L274.509 257.74L265.657 259.794L265.726 259.743C263.994 262.706 262.549 265.189 261.51 266.962L260.312 268.978L259.991 269.503C259.915 269.648 259.875 269.718 259.872 269.714Z" fill="#CAF0BD"/>
<path d="M337.647 269.765C337.647 269.855 263.42 269.931 171.833 269.931C80.2465 269.931 5.99927 269.835 5.99927 269.765C5.99927 269.695 80.2267 269.599 171.833 269.599C263.44 269.599 337.647 269.65 337.647 269.765Z" fill="#263238"/>
<path d="M134.017 274.827C134.017 274.923 123.382 274.994 110.264 274.994C97.1455 274.994 86.5112 274.923 86.5112 274.827C86.5112 274.731 97.1406 274.661 110.264 274.661C123.387 274.661 134.017 274.738 134.017 274.827Z" fill="#263238"/>
<path d="M116.4 278.834C116.4 278.923 113.04 279 108.903 279C104.766 279 101.401 278.923 101.401 278.834C101.401 278.744 104.761 278.667 108.903 278.667C113.045 278.667 116.4 278.725 116.4 278.834Z" fill="#263238"/>
</g>
<defs>
<filter id="filter0_ddd_2_651" x="0" y="17.9588" width="351" height="269.041" filterUnits="userSpaceOnUse" color-interpolation-filters="sRGB">
<feFlood flood-opacity="0" result="BackgroundImageFix"/>
<feColorMatrix in="SourceAlpha" type="matrix" values="0 0 0 0 0 0 0 0 0 0 0 0 0 0 0 0 0 0 127 0" result="hardAlpha"/>
<feOffset dy="4"/>
<feGaussianBlur stdDeviation="2"/>
<feComposite in2="hardAlpha" operator="out"/>
<feColorMatrix type="matrix" values="0 0 0 0 0 0 0 0 0 0 0 0 0 0 0 0 0 0 0.25 0"/>
<feBlend mode="normal" in2="BackgroundImageFix" result="effect1_dropShadow_2_651"/>
<feColorMatrix in="SourceAlpha" type="matrix" values="0 0 0 0 0 0 0 0 0 0 0 0 0 0 0 0 0 0 127 0" result="hardAlpha"/>
<feOffset dy="4"/>
<feGaussianBlur stdDeviation="2"/>
<feComposite in2="hardAlpha" operator="out"/>
<feColorMatrix type="matrix" values="0 0 0 0 0 0 0 0 0 0 0 0 0 0 0 0 0 0 0.25 0"/>
<feBlend mode="normal" in2="effect1_dropShadow_2_651" result="effect2_dropShadow_2_651"/>
<feColorMatrix in="SourceAlpha" type="matrix" values="0 0 0 0 0 0 0 0 0 0 0 0 0 0 0 0 0 0 127 0" result="hardAlpha"/>
<feOffset dy="4"/>
<feGaussianBlur stdDeviation="2"/>
<feComposite in2="hardAlpha" operator="out"/>
<feColorMatrix type="matrix" values="0 0 0 0 0 0 0 0 0 0 0 0 0 0 0 0 0 0 0.25 0"/>
<feBlend mode="normal" in2="effect2_dropShadow_2_651" result="effect3_dropShadow_2_651"/>
<feBlend mode="normal" in="SourceGraphic" in2="effect3_dropShadow_2_651" result="shape"/>
</filter>
</defs>
</svg>
