<svg width="9" height="15" viewBox="0 0 9 15" fill="none" xmlns="http://www.w3.org/2000/svg">
<g clip-path="url(#clip0_2_2369)">
<path d="M0.698262 1.91564C0.501131 1.71564 0.391613 1.45248 0.402565 1.1788C0.402565 0.905111 0.512082 0.652478 0.720166 0.452479C0.917298 0.263005 1.19109 0.147215 1.47584 0.147215C1.76058 0.147215 2.03438 0.241953 2.24246 0.431426L8.44116 6.38932C8.53972 6.48406 8.61639 6.59985 8.67115 6.72616C8.7259 6.85248 8.75876 6.98932 8.75876 7.12616C8.75876 7.26301 8.7259 7.39985 8.67115 7.53669C8.61639 7.66301 8.53972 7.7788 8.44116 7.87353L2.24246 13.8314C2.14389 13.9262 2.02342 14.0104 1.892 14.063C1.74963 14.1156 1.60726 14.1472 1.46489 14.1472C1.32251 14.1472 1.16919 14.1262 1.03777 14.0735C0.906345 14.0209 0.785875 13.9367 0.676358 13.842C0.577792 13.7472 0.50113 13.6209 0.446371 13.4946C0.38066 13.3683 0.358757 13.2314 0.358757 13.0841C0.358757 12.9472 0.391612 12.8104 0.446371 12.6841C0.50113 12.5577 0.588744 12.442 0.698261 12.3367L6.11938 7.12616L5.08992 6.14722L0.698262 1.91564Z" fill="#181725"/>
</g>
<defs>
<clipPath id="clip0_2_2369">
<rect width="8.4" height="14" fill="white" transform="translate(8.75876 14.1472) rotate(-180)"/>
</clipPath>
</defs>
</svg>
