<svg width="17" height="17" viewBox="0 0 17 17" fill="none" xmlns="http://www.w3.org/2000/svg">
<path d="M16.3817 14.593L16.3808 14.5921L11.5084 9.89731L11.5082 9.89708L10.4039 8.84702L16.3807 3.10238C16.5057 2.98227 16.6074 2.84853 16.6714 2.70082C16.7344 2.55546 16.7727 2.39687 16.7727 2.23715C16.7727 2.06937 16.7479 1.90936 16.6707 1.76019C16.6083 1.61669 16.5202 1.47094 16.405 1.36025L16.4051 1.3602L16.4031 1.35848C16.2792 1.25135 16.1408 1.15416 15.988 1.09295C15.8346 1.03152 15.6578 1.00762 15.4955 1.00762C15.3302 1.00762 15.1662 1.04429 15.0043 1.10415L15.0043 1.10413L15.0031 1.10463C14.8502 1.16583 14.7113 1.26322 14.5982 1.37193L14.6328 1.40797L14.5982 1.37193L7.72098 7.98199C7.60629 8.09222 7.51765 8.22639 7.45459 8.37186L7.45457 8.37185L7.45404 8.37317C7.39163 8.52913 7.35326 8.68736 7.35326 8.84721C7.35326 9.00693 7.39157 9.16552 7.45459 9.31088C7.51765 9.45635 7.60629 9.59053 7.72098 9.70076L14.5982 16.3108L14.5982 16.3108L14.5992 16.3117C14.8403 16.5313 15.1565 16.6401 15.4834 16.6401C15.8126 16.6401 16.1287 16.5064 16.3564 16.2875C16.5964 16.0568 16.7239 15.7641 16.7241 15.4466C16.7366 15.1284 16.609 14.8237 16.3817 14.593Z" fill="#181725" stroke="#181725" stroke-width="0.1"/>
<path d="M1.35226 3.05471L1.35318 3.05562L6.22556 7.7504L6.22579 7.75062L7.33005 8.80069L1.35322 14.5453C1.22827 14.6654 1.12656 14.7992 1.06253 14.9469C0.999516 15.0922 0.961204 15.2508 0.961204 15.4106C0.961204 15.5783 0.98604 15.7383 1.06323 15.8875C1.12563 16.031 1.21375 16.1768 1.32892 16.2875L1.32887 16.2875L1.33086 16.2892C1.45471 16.3964 1.59312 16.4935 1.74595 16.5548C1.89934 16.6162 2.07618 16.6401 2.23841 16.6401C2.40378 16.6401 2.56771 16.6034 2.72962 16.5436L2.72963 16.5436L2.73087 16.5431C2.8837 16.4819 3.02265 16.3845 3.13575 16.2758L3.1011 16.2397L3.13575 16.2758L10.013 9.66572C10.1277 9.55549 10.2163 9.42132 10.2794 9.27585L10.2794 9.27585L10.2799 9.27453C10.3423 9.11858 10.3807 8.96034 10.3807 8.80049C10.3807 8.64077 10.3424 8.48219 10.2794 8.33682C10.2163 8.19135 10.1277 8.05718 10.013 7.94695L3.13575 1.33689L3.13576 1.33688L3.13477 1.33597C2.89367 1.11643 2.57746 1.00761 2.25056 1.00761C1.92134 1.00761 1.60527 1.14135 1.37753 1.36024C1.13757 1.59088 1.01007 1.88362 1.00981 2.20112C0.997365 2.51935 1.12491 2.82405 1.35226 3.05471Z" fill="#181725" stroke="#181725" stroke-width="0.1"/>
</svg>
