<svg width="21" height="16" viewBox="0 0 21 16" fill="none" xmlns="http://www.w3.org/2000/svg">
<path d="M2.50732 2.43062H2.40732V2.53062V13.2562V13.3562H2.50732H18.5073H18.6073V13.2562V2.53062V2.43062H18.5073H2.50732ZM2.50732 0.485498H18.5073C19.0089 0.485498 19.4914 0.699136 19.8484 1.08198C20.2056 1.46507 20.4073 1.98605 20.4073 2.53062V13.2562C20.4073 13.8008 20.2056 14.3218 19.8484 14.7049C19.4914 15.0877 19.0089 15.3014 18.5073 15.3014H2.50732C2.00576 15.3014 1.5232 15.0877 1.16625 14.7049C0.809085 14.3218 0.607324 13.8008 0.607324 13.2562V2.53062C0.607324 1.98605 0.809085 1.46507 1.16625 1.08198C1.5232 0.699136 2.00576 0.485498 2.50732 0.485498ZM11.5073 4.77574H16.5073C16.7437 4.77574 16.9719 4.87638 17.1413 5.05808C17.3109 5.24002 17.4073 5.48819 17.4073 5.74831C17.4073 6.00842 17.3109 6.25659 17.1413 6.43853C16.9719 6.62023 16.7437 6.72087 16.5073 6.72087H11.5073C11.271 6.72087 11.0428 6.62023 10.8734 6.43853C10.7037 6.25659 10.6073 6.00842 10.6073 5.74831C10.6073 5.48819 10.7037 5.24002 10.8734 5.05808C11.0428 4.87638 11.271 4.77574 11.5073 4.77574ZM11.5073 7.99343H16.5073C16.7437 7.99343 16.9719 8.09406 17.1413 8.27577C17.3109 8.45771 17.4073 8.70588 17.4073 8.96599C17.4073 9.2261 17.3109 9.47427 17.1413 9.65621C16.9719 9.83792 16.7437 9.93855 16.5073 9.93855H11.5073C11.271 9.93855 11.0428 9.83792 10.8734 9.65621C10.7037 9.47427 10.6073 9.2261 10.6073 8.96599C10.6073 8.70588 10.7037 8.45771 10.8734 8.27577C11.0428 8.09406 11.271 7.99343 11.5073 7.99343Z" fill="#181725" stroke="white" stroke-width="0.2"/>
<g clip-path="url(#clip0_2_2373)">
<path d="M7.25756 5.58122V6.14392C7.25756 6.44833 7.11997 6.7343 6.88148 6.93724C6.63383 7.1494 6.31279 7.26932 5.97341 7.26932C5.63403 7.26932 5.30382 7.1494 5.06534 6.93724C4.82686 6.7343 4.68927 6.44833 4.68927 6.14392V5.58122C4.68927 5.28603 4.82686 5.00006 5.06534 4.7879C5.30382 4.57573 5.63403 4.45581 5.97341 4.45581C6.31279 4.45581 6.63383 4.57573 6.88148 4.7879C7.11997 5.00006 7.25756 5.28603 7.25756 5.58122Z" fill="#181725"/>
<path d="M8.2207 8.902V9.36323C8.2207 9.58462 8.11063 9.80601 7.93635 9.96283C7.7529 10.1197 7.50524 10.2119 7.25759 10.2119H4.6893C4.43247 10.2119 4.18482 10.1197 4.01054 9.96283C3.82709 9.80601 3.7262 9.58462 3.7262 9.36323V8.87433C3.7262 8.56069 3.83627 8.24705 4.03806 7.98876C4.23985 7.73047 4.5242 7.52753 4.85441 7.40761C4.90027 7.39838 4.93696 7.38916 4.98282 7.38916C5.02868 7.38916 5.06537 7.39838 5.11124 7.40761H6.7531C6.77145 7.40761 6.78062 7.40761 6.78979 7.41683C6.78979 7.40761 6.79897 7.40761 6.79897 7.40761C6.94573 7.39838 7.03745 7.40761 7.04662 7.40761C7.39518 7.52753 7.68869 7.73047 7.89966 7.99799C8.10145 8.2655 8.2207 8.57914 8.2207 8.902Z" fill="#181725"/>
</g>
<defs>
<clipPath id="clip0_2_2373">
<rect width="6" height="7.68429" fill="white" transform="translate(3.50732 4.45581)"/>
</clipPath>
</defs>
</svg>
