<svg width="23" height="23" viewBox="0 0 23 23" fill="none" xmlns="http://www.w3.org/2000/svg">
<path d="M17.0548 4.12069C17.3398 3.84688 17.3398 3.40296 17.0548 3.12919L14.8791 1.03935C14.594 0.765538 14.1319 0.765573 13.8468 1.03935L0.520586 13.8397C0.235565 14.1135 0.235528 14.5574 0.520586 14.8312L2.69629 16.921C2.98135 17.1949 3.44351 17.1948 3.72853 16.921C4.3436 16.3302 5.34477 16.3302 5.95987 16.921C6.57497 17.5119 6.57497 18.4735 5.95987 19.0643C5.67485 19.3381 5.67481 19.782 5.95987 20.0558L8.13557 22.1457C8.42063 22.4195 8.88279 22.4194 9.16781 22.1457L22.4941 9.34532C22.7791 9.07151 22.7791 8.62759 22.4941 8.35382L20.3184 6.26397C20.0333 5.99016 19.5711 5.9902 19.2861 6.26397C18.671 6.85477 17.6699 6.8548 17.0548 6.26397C16.4397 5.67315 16.4397 4.71152 17.0548 4.12069ZM16.0225 7.2555C17.0292 8.22249 18.572 8.36735 19.7395 7.691L20.9457 8.84957L12.5952 16.8705L11.4795 15.7989C11.1945 15.5251 10.7323 15.5251 10.4473 15.7989C10.1623 16.0727 10.1623 16.5166 10.4473 16.7904L11.563 17.862L8.65169 20.6584L7.44552 19.4998C8.14963 18.3784 7.99882 16.8965 6.9921 15.9295C5.98539 14.9626 4.44265 14.8177 3.27511 15.494L2.06894 14.3354L4.98018 11.5391L6.09585 12.6107C6.3809 12.8846 6.84306 12.8845 7.12808 12.6107C7.41311 12.337 7.41311 11.893 7.12808 11.6192L6.01242 10.5476L14.3629 2.52663L15.5691 3.6852C14.865 4.80668 15.0158 6.28851 16.0225 7.2555Z" fill="#181725" stroke="#181725" stroke-width="0.3"/>
<path d="M7.7275 13.1867C7.4425 13.4605 7.44254 13.9043 7.7275 14.178L8.81504 15.2226C9.10003 15.4964 9.56208 15.4963 9.84703 15.2226C10.132 14.9489 10.132 14.5051 9.84703 14.2314L8.7595 13.1868C8.7595 13.1867 8.75949 13.1867 8.75949 13.1867C8.47455 12.913 8.01247 12.913 7.7275 13.1867Z" fill="#181725" stroke="#181725" stroke-width="0.3"/>
</svg>
