<svg width="25" height="25" viewBox="0 0 25 25" fill="none" xmlns="http://www.w3.org/2000/svg">
<path d="M8.90982 12.5881C9.05065 12.5356 9.20209 12.5083 9.3552 12.5078C9.50831 12.5074 9.65998 12.5337 9.80124 12.5853C9.9425 12.6368 10.0705 12.7126 10.1776 12.8081C10.2848 12.9036 10.3689 13.0168 10.425 13.1412C10.4812 13.2656 10.5082 13.3985 10.5045 13.5321C10.5007 13.6657 10.4664 13.7974 10.4034 13.9192C10.3404 14.041 10.2501 14.1506 10.1378 14.2415C10.0254 14.3323 9.89339 14.4025 9.74943 14.4481C8.98375 14.7114 8.32659 15.1699 7.86346 15.7638C7.40033 16.3577 7.15267 17.0596 7.15271 17.7781V19.5181C7.15271 19.7833 7.27339 20.0376 7.4882 20.2252C7.70301 20.4127 7.99436 20.5181 8.29815 20.5181H17.4617C17.7655 20.5181 18.0569 20.4127 18.2717 20.2252C18.4865 20.0376 18.6072 19.7833 18.6072 19.5181V17.8711C18.6073 17.1295 18.3493 16.4055 17.8673 15.7949C17.3854 15.1843 16.7022 14.716 15.9085 14.4521C15.7636 14.4082 15.6304 14.3394 15.5165 14.2497C15.4027 14.16 15.3107 14.0513 15.2459 13.9299C15.1811 13.8086 15.1448 13.6772 15.1393 13.5434C15.1338 13.4096 15.1591 13.2763 15.2137 13.1512C15.2683 13.0261 15.3511 12.9119 15.4572 12.8152C15.5633 12.7186 15.6906 12.6416 15.8315 12.5887C15.9723 12.5358 16.1239 12.5081 16.2772 12.5074C16.4305 12.5066 16.5825 12.5326 16.7241 12.5841C17.9515 12.9922 19.0079 13.7164 19.7533 14.6606C20.4988 15.6047 20.898 16.7244 20.8981 17.8711V19.5181C20.8981 20.3137 20.536 21.0768 19.8916 21.6394C19.2471 22.202 18.3731 22.5181 17.4617 22.5181H8.29815C7.38678 22.5181 6.51273 22.202 5.8683 21.6394C5.22386 21.0768 4.86182 20.3137 4.86182 19.5181V17.7781C4.86197 16.6582 5.24815 15.5643 5.9701 14.6387C6.69206 13.7131 7.71638 12.9985 8.90982 12.5881ZM12.8799 2.51807C14.0951 2.51807 15.2605 2.93949 16.1197 3.68964C16.979 4.43978 17.4617 5.4572 17.4617 6.51807V8.51807C17.4617 9.57893 16.979 10.5963 16.1197 11.3465C15.2605 12.0966 14.0951 12.5181 12.8799 12.5181C11.6648 12.5181 10.4994 12.0966 9.64013 11.3465C8.78087 10.5963 8.29815 9.57893 8.29815 8.51807V6.51807C8.29815 5.4572 8.78087 4.43978 9.64013 3.68964C10.4994 2.93949 11.6648 2.51807 12.8799 2.51807ZM12.8799 4.51807C12.2724 4.51807 11.6897 4.72878 11.26 5.10385C10.8304 5.47893 10.589 5.98763 10.589 6.51807V8.51807C10.589 9.0485 10.8304 9.55721 11.26 9.93228C11.6897 10.3074 12.2724 10.5181 12.8799 10.5181C13.4875 10.5181 14.0702 10.3074 14.4998 9.93228C14.9295 9.55721 15.1708 9.0485 15.1708 8.51807V6.51807C15.1708 5.98763 14.9295 5.47893 14.4998 5.10385C14.0702 4.72878 13.4875 4.51807 12.8799 4.51807Z" fill="#181725"/>
</svg>
